<svg width="105" height="64" viewBox="0 0 105 64" fill="none" xmlns="http://www.w3.org/2000/svg">
<path d="M8.28693 14.5502C9.00567 13.5418 9.98723 13.0376 11.2316 13.0376H12.7603V19.474H9.68686V29H3.25041V19.474H0.820648V13.0376H3.25041V9.17572C3.25041 6.30077 4.61279 4.8633 7.33756 4.8633H12.7603V10.6561H11.65C11.178 10.6561 10.7811 10.7205 10.4592 10.8492C10.1374 10.9672 9.86923 11.1871 9.65468 11.5089L7.78811 14.4053L8.19039 14.6789L8.28693 14.5502ZM27.9898 24.4784C27.6894 25.3259 27.3569 26.0553 26.9921 26.6668C26.6381 27.2782 26.2037 27.7824 25.6887 28.1794C25.1738 28.5655 24.5516 28.8498 23.8222 29.0322C23.1034 29.2253 22.2345 29.3218 21.2154 29.3218C18.7588 29.3218 16.9244 28.7855 15.7122 27.7127C14.5108 26.64 13.91 25.0362 13.91 22.9015C13.91 20.7774 14.5 19.1844 15.6801 18.1224C16.8601 17.0604 18.6462 16.5294 21.0384 16.5294C21.7893 16.5294 22.4759 16.5776 23.0981 16.6742C23.731 16.7707 24.3103 16.9048 24.8359 17.0765C25.3616 17.2374 25.8389 17.4251 26.268 17.6397C26.6971 17.8435 27.0833 18.058 27.4266 18.2833V18.0419C27.4266 17.645 27.3086 17.2803 27.0726 16.9477C26.8366 16.6045 26.4879 16.3095 26.0267 16.0627C25.5654 15.8053 24.9861 15.6068 24.2888 15.4674C23.6023 15.3279 22.8031 15.2582 21.8912 15.2582C20.797 15.2582 19.7833 15.3654 18.85 15.58C17.9167 15.7838 16.9942 16.1003 16.0823 16.5294L19.2523 10.6561H23.7095C25.6405 10.6561 27.2549 10.8385 28.553 11.2032C29.851 11.5679 30.8915 12.0829 31.6746 12.748C32.4685 13.4131 33.0317 14.2176 33.3642 15.1616C33.6968 16.0949 33.863 17.1355 33.863 18.2833V29H27.4266L28.4403 24.6232L27.9898 24.4784ZM23.9187 23.2233C24.5624 23.2233 25.1095 23.2126 25.56 23.1911C26.0106 23.1589 26.3699 23.1106 26.6381 23.0463C26.917 22.9819 27.1155 22.9015 27.2335 22.8049C27.3622 22.6976 27.4266 22.5689 27.4266 22.4187C27.4266 22.2793 27.3622 22.1613 27.2335 22.0647C27.1155 21.9682 26.917 21.8877 26.6381 21.8234C26.3699 21.759 26.0106 21.7161 25.56 21.6946C25.1095 21.6624 24.5624 21.6464 23.9187 21.6464C23.2536 21.6464 22.6904 21.6624 22.2291 21.6946C21.7786 21.7161 21.4139 21.759 21.1349 21.8234C20.856 21.877 20.6522 21.9521 20.5235 22.0486C20.4055 22.1452 20.3465 22.2685 20.3465 22.4187C20.3465 22.5689 20.4055 22.6976 20.5235 22.8049C20.6522 22.9015 20.856 22.9819 21.1349 23.0463C21.4139 23.1106 21.7786 23.1589 22.2291 23.1911C22.6904 23.2126 23.2536 23.2233 23.9187 23.2233ZM44.9549 25.5082C44.9012 25.2186 44.8637 24.9021 44.8422 24.5588C44.8208 24.2048 44.81 23.8508 44.81 23.4968C44.81 23.1428 44.8208 22.7942 44.8422 22.4509C44.8744 22.0969 44.9173 21.7751 44.9709 21.4854L46.9823 10.6561H53.5314L50.1201 29H38.5667L35.1554 10.6561H41.7044L44.4882 25.6209L44.9709 25.5565L44.9549 25.5082ZM61.1008 21.5337C61.3153 21.9306 61.6479 22.2042 62.0984 22.3544C62.549 22.4938 63.1444 22.5635 63.8846 22.5635H72.429L70.6911 29H64.1903C60.8648 29 58.3868 28.2223 56.7562 26.6668C55.1364 25.1113 54.3264 22.7835 54.3264 19.6832C54.3264 16.583 55.1042 14.2498 56.6596 12.6836C58.2258 11.1174 60.6073 10.3343 63.8041 10.3343C65.4025 10.3343 66.7917 10.5274 67.9717 10.9136C69.1517 11.289 70.1333 11.8254 70.9164 12.5227C71.6995 13.22 72.2841 14.0674 72.6703 15.0651C73.0565 16.052 73.2496 17.1569 73.2496 18.3799C73.2496 19.4955 73.0941 20.5468 72.783 21.5337H61.1008ZM67.2315 18.4603C67.2315 17.8596 66.9902 17.4305 66.5074 17.173C66.0354 16.9048 65.2309 16.7707 64.0937 16.7707C63.1176 16.7707 62.372 16.8887 61.8571 17.1247C61.3529 17.35 61.0257 17.7952 60.8755 18.4603H67.2315ZM75.1707 29V4.8633H81.6072V29H75.1707ZM97.6028 24.4784C97.3024 25.3259 96.9699 26.0553 96.6051 26.6668C96.2511 27.2782 95.8167 27.7824 95.3018 28.1794C94.7868 28.5655 94.1646 28.8498 93.4352 29.0322C92.7164 29.2253 91.8475 29.3218 90.8284 29.3218C88.3718 29.3218 86.5374 28.7855 85.3252 27.7127C84.1238 26.64 83.523 25.0362 83.523 22.9015C83.523 20.7774 84.113 19.1844 85.2931 18.1224C86.4731 17.0604 88.2592 16.5294 90.6514 16.5294C91.4023 16.5294 92.0889 16.5776 92.7111 16.6742C93.344 16.7707 93.9233 16.9048 94.4489 17.0765C94.9746 17.2374 95.4519 17.4251 95.881 17.6397C96.3101 17.8435 96.6963 18.058 97.0396 18.2833V18.0419C97.0396 17.645 96.9216 17.2803 96.6856 16.9477C96.4496 16.6045 96.1009 16.3095 95.6397 16.0627C95.1784 15.8053 94.5991 15.6068 93.9018 15.4674C93.2153 15.3279 92.4161 15.2582 91.5042 15.2582C90.41 15.2582 89.3963 15.3654 88.463 15.58C87.5297 15.7838 86.6072 16.1003 85.6953 16.5294L88.8653 10.6561H93.3225C95.2535 10.6561 96.868 10.8385 98.166 11.2032C99.464 11.5679 100.505 12.0829 101.288 12.748C102.081 13.4131 102.645 14.2176 102.977 15.1616C103.31 16.0949 103.476 17.1355 103.476 18.2833V29H97.0396L98.0533 24.6232L97.6028 24.4784ZM93.5317 23.2233C94.1754 23.2233 94.7225 23.2126 95.173 23.1911C95.6236 23.1589 95.9829 23.1106 96.2511 23.0463C96.53 22.9819 96.7285 22.9015 96.8465 22.8049C96.9752 22.6976 97.0396 22.5689 97.0396 22.4187C97.0396 22.2793 96.9752 22.1613 96.8465 22.0647C96.7285 21.9682 96.53 21.8877 96.2511 21.8234C95.9829 21.759 95.6236 21.7161 95.173 21.6946C94.7225 21.6624 94.1754 21.6464 93.5317 21.6464C92.8666 21.6464 92.3034 21.6624 91.8422 21.6946C91.3916 21.7161 91.0269 21.759 90.748 21.8234C90.469 21.877 90.2652 21.9521 90.1365 22.0486C90.0185 22.1452 89.9595 22.2685 89.9595 22.4187C89.9595 22.5689 90.0185 22.6976 90.1365 22.8049C90.2652 22.9015 90.469 22.9819 90.748 23.0463C91.0269 23.1106 91.3916 23.1589 91.8422 23.1911C92.3034 23.2126 92.8666 23.2233 93.5317 23.2233Z" fill="black"/>
<path d="M12.3282 55H9.59267C7.45791 55 5.85416 54.4797 4.78142 53.4392C3.7194 52.3879 3.18839 50.9129 3.18839 49.0141V43.0926H1.80456V36.6561L9.62485 33.808V36.6561H12.3121V43.0926H9.62485V47.3084C9.62485 47.7912 9.74821 48.1237 9.99494 48.3061C10.2524 48.4777 10.66 48.5635 11.2179 48.5635H13.0684L12.3282 55ZM21.4644 47.5337C21.679 47.9306 22.0115 48.2042 22.4621 48.3544C22.9126 48.4938 23.508 48.5635 24.2482 48.5635H32.7926L31.0547 55H24.5539C21.2284 55 18.7504 54.2223 17.1198 52.6668C15.5 51.1113 14.69 48.7835 14.69 45.6832C14.69 42.583 15.4678 40.2498 17.0232 38.6836C18.5895 37.1174 20.9709 36.3343 24.1677 36.3343C25.7661 36.3343 27.1553 36.5274 28.3353 36.9136C29.5153 37.289 30.4969 37.8254 31.28 38.5227C32.0631 39.22 32.6477 40.0674 33.0339 41.0651C33.4201 42.052 33.6132 43.1569 33.6132 44.3799C33.6132 45.4955 33.4577 46.5468 33.1466 47.5337H21.4644ZM27.5951 44.4603C27.5951 43.8596 27.3538 43.4305 26.871 43.173C26.399 42.9048 25.5945 42.7707 24.4574 42.7707C23.4812 42.7707 22.7356 42.8887 22.2207 43.1247C21.7165 43.35 21.3893 43.7952 21.2391 44.4603H27.5951ZM54.1357 46.3269C54.0606 49.3198 53.2453 51.5672 51.6898 53.0691C50.1344 54.5709 47.8011 55.3218 44.6902 55.3218C41.4934 55.3218 39.1119 54.5334 37.5457 52.9564C35.9903 51.3688 35.2125 48.998 35.2125 45.8441C35.2125 42.6903 35.9903 40.3195 37.5457 38.7319C39.1119 37.1335 41.4934 36.3343 44.6902 36.3343C47.8011 36.3343 50.129 37.0852 51.6737 38.587C53.2292 40.0889 54.0499 42.3255 54.1357 45.297H47.6831C47.6295 44.3852 47.372 43.7362 46.9108 43.35C46.4495 42.9638 45.7093 42.7707 44.6902 42.7707C44.1324 42.7707 43.655 42.8244 43.2581 42.9316C42.8719 43.0389 42.5608 43.2159 42.3248 43.4627C42.0888 43.6987 41.9172 44.0098 41.8099 44.3959C41.7026 44.7821 41.649 45.2541 41.649 45.812C41.649 46.3698 41.7026 46.8472 41.8099 47.2441C41.9172 47.6303 42.0888 47.9467 42.3248 48.1935C42.5608 48.4295 42.8719 48.6011 43.2581 48.7084C43.655 48.8156 44.1324 48.8693 44.6902 48.8693C45.7093 48.8693 46.4495 48.6762 46.9108 48.29C47.372 47.8931 47.6295 47.2387 47.6831 46.3269H54.1357ZM74.5777 55H68.1413V45.8602C68.1413 44.7446 67.9106 43.9561 67.4493 43.4948C66.9881 43.0336 66.264 42.8029 65.277 42.8029C64.2901 42.8029 63.5767 43.0336 63.1369 43.4948C62.7078 43.9561 62.4933 44.7446 62.4933 45.8602V55H56.0568V30.8633H62.4933V36.6722L61.383 39.3433L61.8335 39.5364C62.1232 38.882 62.4611 38.351 62.8473 37.9434C63.2335 37.525 63.6572 37.1978 64.1185 36.9618C64.5798 36.7258 65.0839 36.5649 65.631 36.4791C66.1781 36.3933 66.7574 36.3504 67.3689 36.3504C69.804 36.3504 71.6116 37.1442 72.7916 38.7319C73.9823 40.3195 74.5777 42.6849 74.5777 45.8281V55Z" fill="black"/>
<path d="M90.0474 33.722C90.4617 32.9731 91.5383 32.9731 91.9526 33.722V33.722C92.2881 34.3285 93.0974 34.4712 93.6201 34.016V34.016C94.2656 33.454 95.2773 33.8222 95.4105 34.6676V34.6676C95.5183 35.3523 96.23 35.7632 96.8768 35.5142V35.5142C97.6756 35.2069 98.5003 35.8989 98.3363 36.7389V36.7389C98.2035 37.4192 98.7317 38.0487 99.4247 38.036V38.036C100.28 38.0203 100.819 38.9527 100.377 39.686V39.686C100.02 40.2798 100.301 41.052 100.956 41.2771V41.2771C101.766 41.5551 101.953 42.6153 101.287 43.1534V43.1534C100.748 43.5891 100.748 44.4109 101.287 44.8466V44.8466C101.953 45.3847 101.766 46.4449 100.956 46.7229V46.7229C100.301 46.948 100.02 47.7202 100.377 48.314V48.314C100.819 49.0473 100.28 49.9797 99.4247 49.964V49.964C98.7317 49.9513 98.2035 50.5808 98.3363 51.2611V51.2611C98.5003 52.1011 97.6756 52.7931 96.8768 52.4858V52.4858C96.23 52.2368 95.5183 52.6477 95.4105 53.3324V53.3324C95.2773 54.1778 94.2656 54.546 93.6201 53.984V53.984C93.0974 53.5288 92.2881 53.6715 91.9526 54.278V54.278C91.5383 55.0269 90.4617 55.0269 90.0474 54.278V54.278C89.7119 53.6715 88.9026 53.5288 88.3799 53.984V53.984C87.7344 54.546 86.7227 54.1778 86.5895 53.3324V53.3324C86.4817 52.6477 85.77 52.2368 85.1232 52.4858V52.4858C84.3244 52.7931 83.4997 52.1011 83.6637 51.2611V51.2611C83.7965 50.5808 83.2683 49.9513 82.5753 49.964V49.964C81.7196 49.9797 81.1813 49.0473 81.6227 48.314V48.314C81.9801 47.7202 81.6991 46.948 81.0435 46.7229V46.7229C80.2341 46.4449 80.0471 45.3847 80.7127 44.8466V44.8466C81.2517 44.4109 81.2517 43.5891 80.7127 43.1534V43.1534C80.0471 42.6153 80.2341 41.5551 81.0435 41.2771V41.2771C81.6991 41.052 81.9801 40.2798 81.6227 39.686V39.686C81.1813 38.9527 81.7196 38.0203 82.5753 38.036V38.036C83.2683 38.0487 83.7965 37.4192 83.6637 36.7389V36.7389C83.4997 35.8989 84.3244 35.2069 85.1232 35.5143V35.5143C85.77 35.7632 86.4817 35.3523 86.5895 34.6676V34.6676C86.7227 33.8222 87.7344 33.454 88.3799 34.016V34.016C88.9026 34.4712 89.7119 34.3285 90.0474 33.722V33.722Z" fill="#75D8AB"/>
<path d="M94.2044 37.4499C94.0451 38.0245 93.7008 39.3732 93.7088 39.381C93.7168 39.3887 95.0825 39.0226 95.664 38.8543L95.8764 38.7954L95.0681 38.0178L94.2599 37.2402L94.2044 37.4499Z" fill="black"/>
<path d="M92.8922 37.4457C92.3205 37.6002 91.8303 37.7402 91.8066 37.7522C91.759 37.7723 91.8033 37.8187 92.5532 38.5403C93.0699 39.0374 93.3573 39.2984 93.3691 39.2865C93.3868 39.2687 93.9253 37.2512 93.9306 37.1867C93.9304 37.171 93.4638 37.2873 92.8922 37.4457Z" fill="black"/>
<path d="M94.8956 39.4003C94.31 39.5609 93.8218 39.7028 93.812 39.7127C93.8002 39.7245 94.0838 40.0129 94.5885 40.4984C95.3384 41.22 95.3866 41.2625 95.406 41.2154C95.4274 41.1702 95.9274 39.2821 95.9521 39.1665C95.9616 39.1175 95.8126 39.1484 94.8956 39.4003Z" fill="black"/>
<path d="M91.5211 38.0385C91.5016 38.0778 91.0514 39.7776 90.9827 40.0599L90.9637 40.1461L91.9859 39.8637C92.5515 39.7073 93.0438 39.5732 93.0855 39.563L93.157 39.5466L92.3488 38.769C91.5868 38.0358 91.5386 37.9933 91.5211 38.0385Z" fill="black"/>
<path d="M93.5363 39.997C93.5268 40.0382 93.4004 40.5244 93.253 41.0832C93.1054 41.638 92.9907 42.0928 92.9947 42.0928C93.0344 42.0885 95.0828 41.5198 95.1224 41.5037C95.166 41.4837 95.1177 41.4334 94.3597 40.7041L93.5515 39.9265L93.5363 39.997Z" fill="black"/>
<path d="M90.1033 38.2073L89.0334 38.5019L89.8237 39.2739C90.26 39.6975 90.6239 40.0438 90.6319 40.0437C90.6538 40.0454 91.2032 37.9378 91.1871 37.9224C91.1791 37.9185 90.6908 38.0448 90.1033 38.2073Z" fill="black"/>
<path d="M94.1656 42.1083C93.5781 42.2669 93.0958 42.4068 93.0979 42.4166C93.098 42.4244 93.4579 42.7746 93.8982 43.1943L94.7003 43.9544L94.9779 42.8976C95.1312 42.3173 95.2496 41.8351 95.2455 41.8273C95.2375 41.8196 94.7531 41.9458 94.1656 42.1083Z" fill="black"/>
<path d="M88.5173 39.7937C88.366 40.3681 88.2416 40.8484 88.2417 40.8641C88.242 40.8875 89.8717 40.4581 90.2944 40.3266L90.3935 40.2943L89.5913 39.5225L88.7891 38.7507L88.5173 39.7937Z" fill="black"/>
<path d="M90.776 40.8483C90.7549 40.9326 90.6285 41.411 90.4944 41.9129C90.3622 42.4168 90.257 42.8304 90.2631 42.8362C90.2691 42.842 90.69 42.7321 91.1981 42.5899C91.7082 42.4498 92.1904 42.3138 92.2758 42.2914L92.4246 42.2488L91.6204 41.475L90.8162 40.7012L90.776 40.8483Z" fill="black"/>
<path d="M92.8167 42.7537C92.6917 43.1714 92.2883 44.7808 92.3122 44.7806C92.3281 44.7804 92.8144 44.6483 93.396 44.4878L94.452 44.1992L93.6498 43.4274L92.8476 42.6556L92.8167 42.7537Z" fill="black"/>
<path d="M89.4188 40.9012C88.8332 41.0617 88.349 41.1996 88.3431 41.2056C88.3372 41.2115 88.6951 41.5636 89.1354 41.9873L89.9376 42.7591L90.2114 41.7141C90.3608 41.1417 90.4852 40.6574 90.485 40.6418C90.4848 40.6223 90.0043 40.7406 89.4188 40.9012Z" fill="black"/>
<path d="M92.2996 42.6198C92.1824 42.6504 91.6942 42.7845 91.2178 42.9145L90.3484 43.1542L91.1506 43.9261C91.5909 44.3497 91.9568 44.6939 91.9627 44.688C91.9765 44.6742 92.5107 42.6372 92.5143 42.5941C92.5141 42.5746 92.4186 42.5873 92.2996 42.6198Z" fill="black"/>
<path d="M88.087 41.4624C88.0515 41.498 87.5296 43.5779 87.5575 43.5776C87.5734 43.5774 88.0637 43.4453 88.6453 43.2848L89.7012 42.9962L88.899 42.2244C88.4587 41.8007 88.0929 41.4565 88.087 41.4624Z" fill="black"/>
<path d="M89.8402 44.4345C89.6889 45.0089 89.5645 45.4931 89.5646 45.5088C89.5649 45.5322 91.6731 44.9786 91.7066 44.945C91.7125 44.9391 91.3545 44.5869 90.9142 44.1633L90.112 43.3915L89.8402 44.4345Z" fill="black"/>
<path d="M88.7087 43.6013L87.6388 43.8959L88.033 44.2867C88.2522 44.5015 88.6101 44.8458 88.8332 45.0566L89.2392 45.4356L89.5169 44.3789C89.6701 43.7986 89.7926 43.3202 89.7865 43.3144C89.7805 43.3086 89.2962 43.4388 88.7087 43.6013Z" fill="black"/>
<path d="M87.3767 44.1583C87.3476 44.2309 86.8252 46.2678 86.8333 46.2755C86.8413 46.2833 88.9037 45.7282 88.977 45.6981C88.9889 45.694 88.6369 45.3399 88.1926 44.9124C87.7483 44.4849 87.3805 44.1465 87.3767 44.1583Z" fill="black"/>
<path d="M87.2272 46.909C86.9671 46.9308 86.7655 47.1784 86.8067 47.4249C86.8169 47.4886 87.5159 49.5744 87.5593 49.6732C87.5923 49.7478 87.6318 49.7983 87.6932 49.8461C87.8826 49.9918 88.1394 49.9759 88.314 49.8078C88.3554 49.7678 88.3868 49.712 88.5677 49.3606C88.7144 49.0754 88.7492 49.0129 88.7751 48.9897C88.801 48.9665 88.869 48.9376 89.1779 48.8182C89.3825 48.7398 89.5675 48.6651 89.5891 48.6524C89.6775 48.6023 89.7564 48.5083 89.7928 48.4101C89.8221 48.3314 89.825 48.2196 89.8002 48.1362C89.766 48.0218 89.6943 47.9287 89.5977 47.8718C89.5607 47.8503 88.8908 47.5617 87.6246 47.0199C87.382 46.916 87.3261 46.9005 87.2272 46.909ZM87.3645 47.2406C87.5654 47.3228 89.4162 48.1188 89.4404 48.1336C89.5181 48.1806 89.5329 48.294 89.4692 48.362C89.4423 48.3897 89.4273 48.3967 89.0196 48.5543C88.8332 48.6266 88.6616 48.6966 88.6393 48.7093C88.5922 48.7369 88.5274 48.7964 88.4966 48.84C88.485 48.8562 88.3999 49.017 88.307 49.1964C88.1132 49.5732 88.1065 49.5851 88.0806 49.6068C88.016 49.661 87.9165 49.6504 87.8622 49.5832C87.8453 49.5626 87.7564 49.3079 87.4765 48.4769C87.277 47.8835 87.1125 47.3877 87.1108 47.3746C87.1013 47.2957 87.1869 47.2074 87.2689 47.2103C87.2829 47.211 87.3257 47.2243 87.3645 47.2406Z" fill="black"/>
</svg>
