<svg width="321" height="195" viewBox="0 0 321 195" fill="none" xmlns="http://www.w3.org/2000/svg">
<path d="M25.418 42.6788C27.6226 39.5859 30.6333 38.0394 34.4501 38.0394H39.1388V57.7816H29.712V87H9.96979V57.7816H2.51713V38.0394H9.96979V26.1941C9.96979 17.376 14.1485 12.9669 22.5061 12.9669H39.1388V30.7348H35.7333C34.2856 30.7348 33.0681 30.9323 32.081 31.3271C31.0939 31.689 30.2713 32.3636 29.6132 33.3507L23.888 42.2346L25.1219 43.0737L25.418 42.6788ZM85.8514 73.1311C84.9301 75.7305 83.9101 77.968 82.7914 79.8435C81.7056 81.719 80.373 83.2654 78.7936 84.4829C77.2142 85.6674 75.3058 86.5393 73.0684 87.0987C70.8638 87.691 68.1986 87.9871 65.0728 87.9871C57.5379 87.9871 51.9113 86.3419 48.1932 83.0516C44.508 79.7612 42.6654 74.8421 42.6654 68.2943C42.6654 61.7794 44.4751 56.8932 48.0945 53.6357C51.7139 50.3783 57.1924 48.7496 64.5299 48.7496C66.8331 48.7496 68.939 48.8976 70.8474 49.1938C72.7887 49.4899 74.5655 49.9012 76.1778 50.4276C77.79 50.9212 79.2542 51.497 80.5704 52.1551C81.8865 52.7803 83.0711 53.4383 84.124 54.1293V53.389C84.124 52.1715 83.762 51.0528 83.0382 50.0328C82.3143 48.9799 81.2449 48.075 79.8301 47.3183C78.4152 46.5286 76.6384 45.9198 74.4997 45.4921C72.3938 45.0644 69.9425 44.8505 67.1457 44.8505C63.7895 44.8505 60.6802 45.1795 57.8175 45.8376C54.9549 46.4628 52.1252 47.4334 49.3284 48.7496L59.0514 30.7348H72.7229C78.6455 30.7348 83.5975 31.2942 87.5789 32.4129C91.5602 33.5316 94.7518 35.111 97.1538 37.151C99.5887 39.1911 101.316 41.6588 102.336 44.5544C103.356 47.417 103.866 50.6086 103.866 54.1293V87H84.124L87.2334 73.5753L85.8514 73.1311ZM73.3645 69.2814C75.3387 69.2814 77.0168 69.2485 78.3987 69.1827C79.7807 69.084 80.883 68.9359 81.7056 68.7385C82.5611 68.5411 83.1698 68.2943 83.5317 67.9982C83.9266 67.6691 84.124 67.2743 84.124 66.8136C84.124 66.3859 83.9266 66.024 83.5317 65.7278C83.1698 65.4317 82.5611 65.1849 81.7056 64.9875C80.883 64.7901 79.7807 64.6585 78.3987 64.5926C77.0168 64.4939 75.3387 64.4446 73.3645 64.4446C71.3245 64.4446 69.597 64.4939 68.1822 64.5926C66.8002 64.6585 65.6815 64.7901 64.826 64.9875C63.9705 65.152 63.3453 65.3823 62.9505 65.6785C62.5886 65.9746 62.4076 66.353 62.4076 66.8136C62.4076 67.2743 62.5886 67.6691 62.9505 67.9982C63.3453 68.2943 63.9705 68.5411 64.826 68.7385C65.6815 68.9359 66.8002 69.084 68.1822 69.1827C69.597 69.2485 71.3245 69.2814 73.3645 69.2814ZM137.887 76.2899C137.723 75.4015 137.608 74.4308 137.542 73.3779C137.476 72.2921 137.443 71.2063 137.443 70.1205C137.443 69.0346 137.476 67.9653 137.542 66.9124C137.641 65.8265 137.772 64.8394 137.937 63.951L144.106 30.7348H164.194L153.731 87H118.293L107.83 30.7348H127.918L136.456 76.6354L137.937 76.4379L137.887 76.2899ZM187.411 64.0991C188.069 65.3165 189.089 66.1556 190.471 66.6162C191.853 67.044 193.679 67.2578 195.949 67.2578H222.157L216.827 87H196.887C186.687 87 179.086 84.6145 174.085 79.8435C169.117 75.0724 166.632 67.9324 166.632 58.4232C166.632 48.9141 169.018 41.7575 173.789 36.9536C178.593 32.1497 185.897 29.7477 195.703 29.7477C200.605 29.7477 204.866 30.34 208.486 31.5245C212.105 32.6761 215.116 34.3213 217.518 36.4601C219.92 38.5988 221.713 41.1982 222.897 44.2582C224.082 47.2853 224.674 50.6744 224.674 54.4254C224.674 57.8474 224.197 61.072 223.243 64.0991H187.411ZM206.215 54.6722C206.215 52.8296 205.475 51.5135 203.994 50.7238C202.547 49.9012 200.079 49.4899 196.591 49.4899C193.597 49.4899 191.31 49.8518 189.731 50.5757C188.184 51.2667 187.181 52.6322 186.72 54.6722H206.215ZM230.567 87V12.9669H250.309V87H230.567ZM299.371 73.1311C298.45 75.7305 297.43 77.968 296.311 79.8435C295.226 81.719 293.893 83.2654 292.314 84.4829C290.734 85.6674 288.826 86.5393 286.588 87.0987C284.384 87.691 281.719 87.9871 278.593 87.9871C271.058 87.9871 265.431 86.3419 261.713 83.0516C258.028 79.7612 256.185 74.8421 256.185 68.2943C256.185 61.7794 257.995 56.8932 261.614 53.6357C265.234 50.3783 270.712 48.7496 278.05 48.7496C280.353 48.7496 282.459 48.8976 284.367 49.1938C286.309 49.4899 288.085 49.9012 289.698 50.4276C291.31 50.9212 292.774 51.497 294.09 52.1551C295.406 52.7803 296.591 53.4383 297.644 54.1293V53.389C297.644 52.1715 297.282 51.0528 296.558 50.0328C295.834 48.9799 294.765 48.075 293.35 47.3183C291.935 46.5286 290.158 45.9198 288.02 45.4921C285.914 45.0644 283.462 44.8505 280.666 44.8505C277.31 44.8505 274.2 45.1795 271.338 45.8376C268.475 46.4628 265.645 47.4334 262.848 48.7496L272.571 30.7348H286.243C292.165 30.7348 297.117 31.2942 301.099 32.4129C305.08 33.5316 308.272 35.111 310.674 37.151C313.109 39.1911 314.836 41.6588 315.856 44.5544C316.876 47.417 317.386 50.6086 317.386 54.1293V87H297.644L300.753 73.5753L299.371 73.1311ZM286.884 69.2814C288.859 69.2814 290.537 69.2485 291.919 69.1827C293.301 69.084 294.403 68.9359 295.226 68.7385C296.081 68.5411 296.69 68.2943 297.052 67.9982C297.447 67.6691 297.644 67.2743 297.644 66.8136C297.644 66.3859 297.447 66.024 297.052 65.7278C296.69 65.4317 296.081 65.1849 295.226 64.9875C294.403 64.7901 293.301 64.6585 291.919 64.5926C290.537 64.4939 288.859 64.4446 286.884 64.4446C284.844 64.4446 283.117 64.4939 281.702 64.5926C280.32 64.6585 279.201 64.7901 278.346 64.9875C277.49 65.152 276.865 65.3823 276.47 65.6785C276.109 65.9746 275.928 66.353 275.928 66.8136C275.928 67.2743 276.109 67.6691 276.47 67.9982C276.865 68.2943 277.49 68.5411 278.346 68.7385C279.201 68.9359 280.32 69.084 281.702 69.1827C283.117 69.2485 284.844 69.2814 286.884 69.2814Z" fill="white"/>
<path d="M38.7462 164H30.3558C23.808 164 18.8889 162.404 15.5985 159.213C12.3411 155.988 10.7123 151.464 10.7123 145.64V127.477H6.46777V107.735L30.4545 98.9989V107.735H38.6968V127.477H30.4545V140.408C30.4545 141.889 30.8329 142.909 31.5897 143.468C32.3794 143.995 33.6297 144.258 35.3407 144.258H41.0166L38.7462 164ZM66.7693 141.099C67.4273 142.317 68.4474 143.156 69.8293 143.616C71.2113 144.044 73.0374 144.258 75.3078 144.258H101.515L96.1851 164H76.2455C66.0454 164 58.4447 161.614 53.4433 156.843C48.4749 152.072 45.9907 144.932 45.9907 135.423C45.9907 125.914 48.3762 118.758 53.1472 113.954C57.9511 109.15 65.2557 106.748 75.061 106.748C79.9636 106.748 84.2246 107.34 87.844 108.525C91.4634 109.676 94.4741 111.321 96.8761 113.46C99.278 115.599 101.071 118.198 102.256 121.258C103.44 124.285 104.033 127.674 104.033 131.425C104.033 134.847 103.556 138.072 102.601 141.099H66.7693ZM85.5737 131.672C85.5737 129.83 84.8334 128.513 83.3527 127.724C81.9049 126.901 79.4372 126.49 75.9494 126.49C72.9552 126.49 70.6684 126.852 69.089 127.576C67.5425 128.267 66.539 129.632 66.0783 131.672H85.5737ZM166.98 137.397C166.75 146.578 164.249 153.471 159.478 158.077C154.707 162.684 147.55 164.987 138.008 164.987C128.203 164.987 120.899 162.569 116.095 157.732C111.324 152.862 108.938 145.59 108.938 135.917C108.938 126.243 111.324 118.971 116.095 114.102C120.899 109.199 128.203 106.748 138.008 106.748C147.55 106.748 154.691 109.051 159.429 113.657C164.2 118.264 166.717 125.124 166.98 134.239H147.189C147.024 131.442 146.234 129.451 144.819 128.267C143.405 127.082 141.134 126.49 138.008 126.49C136.297 126.49 134.833 126.654 133.616 126.983C132.431 127.312 131.477 127.855 130.753 128.612C130.029 129.336 129.503 130.29 129.174 131.475C128.845 132.659 128.68 134.107 128.68 135.818C128.68 137.529 128.845 138.993 129.174 140.211C129.503 141.395 130.029 142.366 130.753 143.123C131.477 143.847 132.431 144.373 133.616 144.702C134.833 145.031 136.297 145.196 138.008 145.196C141.134 145.196 143.405 144.603 144.819 143.419C146.234 142.201 147.024 140.194 147.189 137.397H166.98ZM229.681 164H209.939V135.966C209.939 132.544 209.231 130.126 207.816 128.711C206.401 127.296 204.18 126.589 201.153 126.589C198.126 126.589 195.938 127.296 194.589 128.711C193.273 130.126 192.615 132.544 192.615 135.966V164H172.873V89.9669H192.615V107.784L189.209 115.977L190.591 116.569C191.48 114.562 192.516 112.934 193.701 111.683C194.885 110.4 196.185 109.396 197.6 108.673C199.015 107.949 200.561 107.455 202.239 107.192C203.917 106.929 205.694 106.797 207.569 106.797C215.039 106.797 220.583 109.232 224.202 114.102C227.855 118.971 229.681 126.227 229.681 135.867V164Z" fill="white"/>
<path d="M283.218 101.318C283.775 100.31 285.225 100.31 285.782 101.318L288.503 106.236C288.954 107.052 290.044 107.244 290.748 106.631L294.986 102.941C295.855 102.184 297.217 102.68 297.396 103.818L298.27 109.37C298.416 110.291 299.374 110.844 300.244 110.509L305.489 108.491C306.565 108.077 307.675 109.009 307.454 110.139L306.377 115.655C306.198 116.571 306.909 117.418 307.842 117.401L313.461 117.298C314.613 117.277 315.338 118.533 314.744 119.52L311.845 124.334C311.364 125.134 311.742 126.173 312.625 126.476L317.94 128.301C319.03 128.676 319.281 130.103 318.385 130.827L314.015 134.36C313.289 134.947 313.289 136.053 314.015 136.64L318.385 140.173C319.281 140.897 319.03 142.324 317.94 142.699L312.625 144.524C311.742 144.827 311.364 145.866 311.845 146.666L314.744 151.48C315.338 152.467 314.613 153.723 313.461 153.702L307.842 153.599C306.909 153.582 306.198 154.429 306.377 155.345L307.454 160.861C307.675 161.991 306.565 162.923 305.489 162.509L300.244 160.491C299.374 160.156 298.416 160.709 298.27 161.63L297.396 167.182C297.217 168.32 295.855 168.816 294.986 168.059L290.748 164.369C290.044 163.756 288.954 163.948 288.503 164.764L285.782 169.682C285.225 170.69 283.775 170.69 283.218 169.682L280.497 164.764C280.046 163.948 278.956 163.756 278.252 164.369L274.014 168.059C273.145 168.816 271.783 168.32 271.604 167.182L270.73 161.63C270.584 160.709 269.626 160.156 268.756 160.491L263.511 162.509C262.435 162.923 261.325 161.991 261.546 160.861L262.623 155.345C262.802 154.429 262.091 153.582 261.158 153.599L255.539 153.702C254.387 153.723 253.662 152.467 254.256 151.48L257.155 146.666C257.636 145.866 257.258 144.827 256.375 144.524L251.06 142.699C249.97 142.324 249.719 140.897 250.615 140.173L254.985 136.64C255.711 136.053 255.711 134.947 254.985 134.36L250.615 130.827C249.719 130.103 249.97 128.676 251.06 128.301L256.375 126.476C257.258 126.173 257.636 125.134 257.155 124.334L254.256 119.52C253.662 118.533 254.387 117.277 255.539 117.298L261.158 117.401C262.091 117.418 262.802 116.571 262.623 115.655L261.546 110.139C261.325 109.009 262.435 108.077 263.511 108.491L268.756 110.509C269.626 110.844 270.584 110.291 270.73 109.37L271.604 103.818C271.783 102.68 273.145 102.184 274.014 102.941L278.252 106.631C278.956 107.244 280.046 107.052 280.497 106.236L283.218 101.318Z" fill="#FF5F64"/>
<path d="M296.337 115.134C295.659 117.519 294.184 123.118 294.216 123.149C294.248 123.181 299.787 121.56 302.146 120.819L303.007 120.559L299.791 117.411L296.575 114.263L296.337 115.134Z" fill="white"/>
<path d="M291.584 115.552C289.251 116.212 287.25 116.809 287.153 116.859C286.958 116.944 287.139 117.137 290.191 120.125C292.295 122.184 293.465 123.264 293.513 123.215C293.586 123.14 295.801 114.713 295.823 114.443C295.822 114.378 293.918 114.876 291.584 115.552Z" fill="white"/>
<path d="M298.532 122.558C296.127 123.258 294.122 123.875 294.081 123.917C294.033 123.967 295.187 125.163 297.241 127.174C300.294 130.162 300.49 130.338 300.571 130.139C300.66 129.949 302.764 122.014 302.869 121.528C302.909 121.323 302.298 121.459 298.532 122.558Z" fill="white"/>
<path d="M286.447 117.409C286.368 117.572 284.527 124.582 284.246 125.746L284.168 126.102L288.287 124.905C290.567 124.241 292.551 123.673 292.719 123.629L293.007 123.559L289.767 120.387C286.711 117.396 286.518 117.223 286.447 117.409Z" fill="white"/>
<path d="M293.512 124.554C293.472 124.724 292.951 126.732 292.343 129.04C291.735 131.332 291.262 133.21 291.278 133.21C291.438 133.19 299.706 130.761 299.866 130.693C300.042 130.609 299.849 130.404 296.812 127.432L293.575 124.263L293.512 124.554Z" fill="white"/>
<path d="M281.389 118.68L277.027 119.973L280.203 123.13C281.956 124.863 283.419 126.278 283.451 126.277C283.54 126.283 285.871 117.49 285.807 117.426C285.775 117.411 283.784 117.967 281.389 118.68Z" fill="white"/>
<path d="M295.373 132.632C292.978 133.329 291.012 133.941 291.02 133.982C291.02 134.014 292.466 135.446 294.236 137.162L297.46 140.269L298.638 135.86C299.288 133.439 299.791 131.427 299.775 131.395C299.743 131.364 297.768 131.919 295.373 132.632Z" fill="white"/>
<path d="M275.392 123.637C274.734 126.046 274.193 128.06 274.193 128.125C274.192 128.223 280.868 126.288 282.601 125.703L283.007 125.559L279.791 122.411L276.575 119.263L275.392 123.637Z" fill="white"/>
<path d="M283.403 127.875C283.314 128.226 282.775 130.217 282.204 132.307C281.641 134.404 281.192 136.126 281.216 136.149C281.24 136.173 282.952 135.687 285.018 135.061C287.093 134.444 289.055 133.845 289.402 133.746L290.007 133.559L286.791 130.411L283.575 127.263L283.403 127.875Z" fill="white"/>
<path d="M291.442 133.674C290.902 135.428 289.143 142.176 289.241 142.173C289.306 142.17 291.298 141.577 293.681 140.856L298.007 139.559L294.791 136.411L291.575 133.263L291.442 133.674Z" fill="white"/>
<path d="M278.444 127.599C276.048 128.318 274.065 128.934 274.041 128.959C274.016 128.984 275.451 130.421 277.216 132.149L280.433 135.298L281.619 130.92C282.266 128.521 282.806 126.493 282.806 126.428C282.807 126.346 280.841 126.88 278.444 127.599Z" fill="white"/>
<path d="M289.982 133.612C289.503 133.749 287.506 134.348 285.557 134.93L282 136.001L285.216 139.149C286.982 140.877 288.449 142.281 288.473 142.256C288.53 142.197 290.841 133.667 290.859 133.487C290.859 133.405 290.47 133.466 289.982 133.612Z" fill="white"/>
<path d="M274.534 129.305C274.387 129.456 272.119 138.168 272.233 138.165C272.298 138.163 274.304 137.57 276.685 136.852L281.007 135.559L277.791 132.411C276.026 130.683 274.558 129.279 274.534 129.305Z" fill="white"/>
<path d="M280.396 140.632C279.741 143.039 279.201 145.068 279.2 145.133C279.2 145.231 287.828 142.744 287.966 142.601C287.991 142.576 286.556 141.139 284.791 139.411L281.575 136.263L280.396 140.632Z" fill="white"/>
<path d="M276.395 137.674L272.03 138.97L273.614 140.569C274.495 141.447 275.933 142.855 276.83 143.717L278.463 145.266L279.643 140.854C280.294 138.431 280.815 136.435 280.791 136.411C280.767 136.387 278.791 136.96 276.395 137.674Z" fill="white"/>
<path d="M271.51 139.329C271.389 139.632 269.184 148.118 269.216 148.149C269.249 148.181 277.644 145.755 277.942 145.626C277.991 145.608 276.577 144.159 274.791 142.411C273.005 140.663 271.526 139.28 271.51 139.329Z" fill="white"/>
<path d="M270.958 150.094C270.022 150.174 269.296 151.081 269.445 151.983C269.482 152.216 272 159.855 272.156 160.216C272.275 160.49 272.417 160.675 272.638 160.85C273.32 161.383 274.244 161.326 274.873 160.71C275.022 160.564 275.135 160.359 275.786 159.073C276.314 158.028 276.439 157.8 276.532 157.715C276.625 157.63 276.87 157.524 277.982 157.087C278.719 156.8 279.385 156.527 279.462 156.48C279.781 156.297 280.064 155.953 280.195 155.593C280.301 155.305 280.311 154.895 280.222 154.59C280.099 154.171 279.84 153.83 279.493 153.621C279.359 153.543 276.948 152.486 272.389 150.501C271.516 150.12 271.314 150.063 270.958 150.094ZM271.453 151.308C272.176 151.61 278.84 154.526 278.926 154.58C279.206 154.752 279.26 155.168 279.031 155.417C278.934 155.518 278.88 155.543 277.412 156.12C276.741 156.385 276.123 156.641 276.043 156.688C275.874 156.789 275.64 157.007 275.53 157.166C275.488 157.226 275.182 157.814 274.847 158.471C274.15 159.851 274.126 159.894 274.033 159.974C273.8 160.172 273.442 160.133 273.246 159.887C273.186 159.812 272.865 158.879 271.857 155.836C271.138 153.663 270.546 151.847 270.54 151.799C270.505 151.51 270.813 151.187 271.109 151.198C271.159 151.2 271.313 151.249 271.453 151.308Z" fill="white"/>
</svg>
