<svg width="2533" height="1952" viewBox="0 0 2533 1952" fill="none" xmlns="http://www.w3.org/2000/svg">
<rect x="2532.05" y="409.359" width="457" height="366" rx="182.932" transform="rotate(146.545 2532.05 409.359)" fill="#0DAFC6"/>
<rect x="2464.05" y="305.359" width="457" height="366" rx="182.932" transform="rotate(146.545 2464.05 305.359)" fill="#FDC300"/>
<rect x="2532.05" y="332.359" width="457" height="366" rx="182.932" transform="rotate(146.545 2532.05 332.359)" fill="#FF5F64"/>
<g opacity="0.05">
<path d="M512.385 382.08C509.249 393.885 502.469 421.598 502.629 421.757C502.788 421.917 529.788 414.413 541.284 410.962L545.482 409.755L529.481 393.762L513.479 377.769L512.385 382.08Z" fill="black"/>
<path d="M486.014 382.667C474.732 385.811 465.058 388.661 464.589 388.906C463.651 389.315 464.528 390.271 479.379 405.114C489.612 415.342 495.302 420.712 495.535 420.469C495.884 420.105 506.407 378.724 506.509 377.399C506.505 377.078 497.296 379.442 486.014 382.667Z" fill="black"/>
<path d="M525.367 422.109C513.742 425.448 504.049 428.399 503.853 428.603C503.618 428.848 509.235 434.782 519.229 444.771C534.08 459.614 535.035 460.489 535.423 459.516C535.85 458.583 545.847 419.62 546.342 417.235C546.531 416.224 543.574 416.868 525.367 422.109Z" fill="black"/>
<path d="M458.404 394.656C458.029 395.457 449.567 430.16 448.28 435.924L447.926 437.686L468.01 432.144C479.124 429.074 488.797 426.442 489.616 426.243L491.022 425.924L474.899 409.81C459.698 394.618 458.737 393.736 458.404 394.656Z" fill="black"/>
<path d="M498.341 434.797C498.162 435.639 495.768 445.581 492.972 457.005C490.175 468.349 488.004 477.649 488.083 477.649C488.867 477.568 529.169 466.315 529.948 465.994C530.804 465.593 529.84 464.551 514.734 449.453L498.626 433.354L498.341 434.797Z" fill="black"/>
<path d="M430.785 398.622L409.525 404.615L425.327 420.649C434.052 429.448 441.327 436.64 441.486 436.639C441.922 436.677 452.646 393.151 452.325 392.83C452.165 392.75 442.46 395.316 430.785 398.622Z" fill="black"/>
<path d="M510.91 478.225C499.234 481.45 489.652 484.299 489.694 484.501C489.697 484.663 496.894 491.936 505.697 500.654L521.733 516.443L527.154 494.619C530.146 482.634 532.454 472.675 532.372 472.513C532.212 472.353 522.585 474.919 510.91 478.225Z" fill="black"/>
<path d="M399.751 431.113C396.907 442.84 394.571 452.646 394.578 452.966C394.589 453.446 426.612 445.035 434.911 442.442L436.858 441.804L420.858 425.812L404.858 409.821L399.751 431.113Z" fill="black"/>
<path d="M444.365 452.555C443.953 454.292 441.473 464.148 438.841 474.49C436.248 484.871 434.185 493.394 434.305 493.514C434.425 493.634 442.769 491.388 452.842 488.483C462.955 485.619 472.516 482.839 474.208 482.382L477.159 481.511L461.157 465.518L445.156 449.525L444.365 452.555Z" fill="black"/>
<path d="M484.48 491.662C482.115 500.187 474.554 533.046 475.025 533.047C475.339 533.047 484.893 530.456 496.318 527.306L517.064 521.644L501.064 505.653L485.064 489.661L484.48 491.662Z" fill="black"/>
<path d="M416.831 453.171C405.339 456.309 395.836 459.011 395.721 459.131C395.606 459.251 402.747 466.545 411.53 475.322L427.53 491.314L432.655 470.003C435.449 458.327 437.774 448.451 437.767 448.131C437.758 447.731 428.324 450.033 416.831 453.171Z" fill="black"/>
<path d="M474.406 489.327C472.108 489.921 462.529 492.539 453.183 495.077L436.127 499.756L452.127 515.748C460.91 524.525 468.204 531.66 468.319 531.54C468.587 531.261 478.569 489.736 478.627 488.857C478.618 488.457 476.743 488.692 474.406 489.327Z" fill="black"/>
<path d="M390.803 465.606C390.114 466.325 380.367 508.751 380.916 508.752C381.23 508.752 390.854 506.17 402.268 503.031L422.995 497.39L406.995 481.398C398.213 472.62 390.918 465.486 390.803 465.606Z" fill="black"/>
<path d="M425.514 526.094C422.681 537.81 420.355 547.687 420.362 548.007C420.373 548.487 461.76 537.683 462.411 537.004C462.526 536.884 455.385 529.59 446.603 520.813L430.602 504.821L425.514 526.094Z" fill="black"/>
<path d="M403.086 508.756L381.813 514.761L389.697 522.88C394.08 527.341 401.237 534.493 405.698 538.873L413.816 546.747L419.249 524.909C422.247 512.917 424.641 503.032 424.52 502.911C424.4 502.791 414.768 505.443 403.086 508.756Z" fill="black"/>
<path d="M376.522 520.595C375.952 522.092 365.821 564.097 365.982 564.258C366.143 564.419 407.069 553.192 408.523 552.579C408.76 552.497 401.719 545.142 392.834 536.262C383.949 527.382 376.597 520.352 376.522 520.595Z" fill="black"/>
<path d="M374.607 577.252C369.466 577.699 365.48 582.781 366.295 587.839C366.496 589.147 380.316 631.953 381.175 633.979C381.827 635.511 382.608 636.548 383.821 637.528C387.566 640.518 392.641 640.194 396.093 636.744C396.912 635.922 397.531 634.778 401.107 627.565C404.008 621.712 404.694 620.431 405.207 619.955C405.719 619.478 407.064 618.885 413.17 616.435C417.214 614.826 420.871 613.294 421.297 613.032C423.045 612.004 424.604 610.076 425.324 608.061C425.903 606.446 425.96 604.15 425.47 602.438C424.794 600.092 423.377 598.181 421.467 597.012C420.735 596.571 407.493 590.649 382.463 579.529C377.668 577.396 376.563 577.078 374.607 577.252ZM377.321 584.057C381.294 585.744 417.88 602.082 418.357 602.386C419.893 603.349 420.187 605.677 418.928 607.073C418.396 607.642 418.099 607.784 410.041 611.018C406.355 612.503 402.963 613.939 402.522 614.199C401.592 614.766 400.31 615.988 399.702 616.882C399.472 617.215 397.79 620.514 395.953 624.196C392.124 631.929 391.99 632.173 391.48 632.618C390.203 633.731 388.234 633.513 387.162 632.134C386.828 631.711 385.07 626.484 379.536 609.43C375.592 597.251 372.34 587.075 372.306 586.808C372.118 585.188 373.81 583.376 375.433 583.436C375.708 583.449 376.554 583.723 377.321 584.057Z" fill="black"/>
</g>
<path d="M528.981 1708.75C549.449 1808.8 429.23 1851.13 319.844 1866.9C210.457 1882.68 100.553 1693.12 80.0852 1593.08C59.6168 1493.03 167.658 1673.49 277.044 1657.71C386.43 1641.93 508.512 1608.71 528.981 1708.75Z" fill="#FDC300"/>
<path d="M509.283 1604.57C441.972 1683.54 315.494 1696.05 226.786 1632.5C138.079 1568.95 152.374 1393.68 219.684 1314.71C286.995 1235.73 278.827 1403.82 367.534 1467.37C456.242 1530.91 576.593 1525.59 509.283 1604.57Z" fill="#75D8AB"/>
<path d="M544.464 1581C507.4 1675.49 392.247 1722.52 287.262 1686.04C182.277 1649.56 189.894 1438.06 226.958 1343.56C264.022 1249.07 259.778 1451.97 364.763 1488.45C469.748 1524.93 581.527 1486.51 544.464 1581Z" fill="#FF5F64"/>
<g opacity="0.05">
<path d="M2016.01 1162.7C2024.52 1168.62 2044.83 1181.99 2045.06 1181.9C2045.29 1181.8 2054.39 1156.27 2058.04 1145.33L2059.42 1141.35L2036.15 1150.97L2012.88 1160.59L2016.01 1162.7Z" fill="#FF5F64"/>
<path d="M2004.32 1181.58C2000.48 1192.29 1997.33 1201.51 1997.27 1201.98C1997.08 1202.91 1998.44 1202.4 2020.18 1193.41C2035.17 1187.21 2043.22 1183.68 2043.15 1183.41C2043.03 1183.01 2012.78 1162.7 2011.68 1162.26C2011.39 1162.18 2008.08 1170.86 2004.32 1181.58Z" fill="#0DAFC6"/>
<path d="M2057.32 1165.25C2053.45 1176.3 2050.38 1185.57 2050.44 1185.79C2050.52 1186.06 2059.03 1182.75 2073.66 1176.69C2095.41 1167.7 2096.74 1167.1 2096.11 1166.5C2095.54 1165.88 2067.11 1146.68 2065.3 1145.61C2064.53 1145.17 2063.36 1147.93 2057.32 1165.25Z" fill="white"/>
<path d="M2004.05 1215.65C2004.53 1216.2 2030.15 1233.43 2034.47 1236.19L2035.82 1237L2042.55 1217.7C2046.28 1207.02 2049.55 1197.73 2049.85 1196.95L2050.38 1195.62L2026.9 1205.34C2004.76 1214.49 2003.43 1215.09 2004.05 1215.65Z" fill="#FF5F64"/>
<path d="M2057.26 1198.99C2057.9 1199.39 2065.26 1204.3 2073.68 1209.98C2082.04 1215.64 2088.96 1220.17 2089 1220.1C2089.39 1219.38 2102.79 1180.62 2102.95 1179.84C2103.1 1178.97 2101.62 1179.53 2079.62 1188.63L2056.16 1198.33L2057.26 1198.99Z" fill="#FDC300"/>
<path d="M1993.42 1238.27L1986.32 1258.39L2009.52 1248.96C2022.27 1243.73 2032.79 1239.34 2032.88 1239.2C2033.16 1238.83 2001.32 1217.76 2000.85 1217.95C2000.69 1218.07 1997.3 1227.21 1993.42 1238.27Z" fill="white"/>
<path d="M2100.15 1203.63C2096.2 1214.66 2093.13 1223.77 2093.33 1223.79C2093.48 1223.83 2104.01 1219.53 2116.75 1214.21L2139.86 1204.51L2123.92 1193.91C2115.17 1188.07 2107.8 1183.38 2107.61 1183.4C2107.38 1183.5 2104.04 1192.57 2100.15 1203.63Z" fill="#0DAFC6"/>
<path d="M2008.88 1280.72C2017.49 1286.4 2024.71 1291.11 2024.99 1291.19C2025.42 1291.31 2036.58 1261.08 2039.12 1253.13L2039.68 1251.26L2016.45 1260.86L1993.21 1270.45L2008.88 1280.72Z" fill="#FF5F64"/>
<path d="M2048.27 1254.73C2049.55 1255.55 2056.74 1260.37 2064.25 1265.45C2071.83 1270.51 2078.09 1274.6 2078.26 1274.53C2078.44 1274.46 2081.31 1266.59 2084.62 1257.04C2087.98 1247.46 2091.09 1238.38 2091.68 1236.79L2092.63 1233.98L2069.35 1243.6L2046.08 1253.22L2048.27 1254.73Z" fill="white"/>
<path d="M2101.61 1237.62C2107.7 1242.01 2132.06 1257.57 2132.33 1257.16C2132.52 1256.88 2135.78 1247.84 2139.63 1237.01L2146.68 1217.37L2123.44 1226.97L2100.2 1236.56L2101.61 1237.62Z" fill="black"/>
<path d="M2036.9 1275.93C2033 1286.82 2029.87 1295.84 2029.91 1295.98C2029.95 1296.11 2040.45 1291.87 2053.21 1286.6L2076.45 1277L2060.77 1266.72C2052.18 1261.1 2044.89 1256.38 2044.6 1256.3C2044.25 1256.19 2040.81 1265.05 2036.9 1275.93Z" fill="#FDC300"/>
<path d="M2096.11 1242.64C2095.31 1244.8 2092.05 1253.88 2088.87 1262.72L2083.1 1278.88L2106.34 1269.28C2119.09 1264.01 2129.55 1259.59 2129.51 1259.46C2129.42 1259.15 2098.88 1239.12 2098.14 1238.83C2097.79 1238.73 2096.91 1240.43 2096.11 1242.64Z" fill="black"/>
<path d="M2036.81 1309.08C2037.04 1309.88 2068.5 1329.96 2068.82 1329.48C2069 1329.2 2072.31 1320.1 2076.17 1309.29L2083.22 1289.67L2059.98 1299.27C2047.23 1304.53 2036.77 1308.95 2036.81 1309.08Z" fill="black"/>
<path d="M2105.53 1301.78C2114.14 1307.45 2121.43 1312.17 2121.71 1312.25C2122.14 1312.37 2136.63 1273.32 2136.41 1272.57C2136.37 1272.44 2125.86 1276.68 2113.11 1281.94L2089.87 1291.54L2105.53 1301.78Z" fill="black"/>
<path d="M2080.48 1313.54L2073.39 1333.68L2085.06 1329.01C2091.51 1326.4 2101.92 1322.09 2108.33 1319.39L2119.93 1314.45L2103.98 1303.83C2095.23 1297.99 2087.98 1293.24 2087.8 1293.31C2087.63 1293.38 2084.36 1302.48 2080.48 1313.54Z" fill="black"/>
<path d="M2080.13 1346.21C2081.11 1347.11 2111.97 1367.26 2112.2 1367.16C2112.44 1367.07 2126.36 1328.41 2126.67 1326.98C2126.74 1326.75 2116.22 1330.9 2103.3 1336.24C2090.38 1341.58 2079.96 1346.08 2080.13 1346.21Z" fill="black"/>
</g>
</svg>
