<svg width="375" height="854" viewBox="0 0 375 854" fill="none" xmlns="http://www.w3.org/2000/svg">
<rect opacity="0.08" y="173" width="375" height="596" fill="#0B0C0B"/>
<path d="M552.178 143.652C587.265 201.618 529.383 255.84 471.367 290.93C413.351 326.02 306.735 232.574 271.648 174.608C236.561 116.642 339.984 204.812 398 169.722C456.015 134.632 517.091 85.6861 552.178 143.652Z" fill="#FDC300"/>
<path d="M556.547 189.43C537.143 254.42 468.712 291.398 403.704 272.022C338.695 252.647 305.526 139.536 324.931 74.5457C344.335 9.55547 379.27 116.751 444.279 136.127C509.288 155.502 575.952 124.439 556.547 189.43Z" fill="#FF5F64"/>
<path d="M570.855 166.556C572.171 234.301 518.253 290.3 450.426 291.632C382.599 292.965 337.14 158.695 335.825 90.9504C334.509 23.2053 379.848 151.309 447.675 149.976C515.502 148.643 569.54 98.8112 570.855 166.556Z" fill="#0DAFC6"/>
<g opacity="0.15">
<path d="M50.4713 196.37C49.4217 200.046 47.1173 208.639 47.1582 208.675C47.199 208.712 54.6971 204.754 57.8937 202.994L59.0604 202.366L54.9505 198.699L50.8405 195.031L50.4713 196.37Z" fill="#FF5F64"/>
<path d="M43.4137 198.111C40.2744 199.775 37.5799 201.248 37.4475 201.351C37.184 201.533 37.4078 201.757 41.2216 205.161C43.8494 207.506 45.3158 208.716 45.3835 208.629C45.4852 208.499 49.0589 195.614 49.1089 195.217C49.1131 195.123 46.5542 196.422 43.4137 198.111Z" fill="#0DAFC6"/>
<path d="M53.5196 207.215C50.3034 208.934 47.6192 210.416 47.5628 210.488C47.495 210.575 48.9324 211.956 51.4987 214.246C55.3123 217.649 55.5588 217.845 55.6792 217.535C55.8099 217.234 59.133 205.182 59.3044 204.452C59.3716 204.143 58.5566 204.52 53.5196 207.215Z" fill="#75D8AB"/>
<path d="M35.7375 203.608C35.6192 203.871 32.6271 214.722 32.1628 216.516L32.0316 217.062L37.647 214.049C40.7546 212.38 43.4582 210.94 43.6869 210.825L44.0785 210.635L39.9682 206.967C36.0931 203.508 35.8467 203.313 35.7375 203.608Z" fill="#FF5F64"/>
<path d="M45.9077 212.723C45.8427 212.984 44.9999 216.085 44.0191 219.651C43.0393 223.194 42.2696 226.09 42.2911 226.085C42.5074 226.008 53.7606 219.952 53.9801 219.804C54.2221 219.628 53.9778 219.385 50.1232 215.945L46.013 212.278L45.9077 212.723Z" fill="#FDC300"/>
<path d="M28.0536 206.532L22.1771 209.679L26.1919 213.336C28.4095 215.339 30.2611 216.967 30.3041 216.956C30.4219 216.939 34.0846 203.497 34.0028 203.424C33.9608 203.411 31.281 204.799 28.0536 206.532Z" fill="#75D8AB"/>
<path d="M48.5692 224.618C45.3429 226.327 42.6916 227.789 42.6997 227.845C42.6975 227.893 44.5265 229.549 46.7667 231.524L50.8493 235.093L52.6975 228.351C53.7165 224.647 54.5151 221.581 54.4957 221.539C54.4548 221.503 51.7965 222.885 48.5692 224.618Z" fill="#0DAFC6"/>
<path d="M18.8903 218.311C17.8837 221.977 17.0534 225.039 17.0491 225.133C17.0427 225.275 25.9881 220.597 28.3144 219.262L28.8609 218.94L24.7817 215.3L20.7025 211.66L18.8903 218.311Z" fill="#FF5F64"/>
<path d="M30.6723 221.649C30.531 222.186 29.6904 225.239 28.8004 228.444C27.9207 231.658 27.2161 234.293 27.2468 234.32C27.2774 234.348 29.5871 233.145 32.3788 231.637C35.1806 230.138 37.8308 228.7 38.2993 228.455L39.1174 228.007L35.0279 224.358L30.9384 220.709L30.6723 221.649Z" fill="#75D8AB"/>
<path d="M23.3535 223.791C20.1375 225.51 17.4761 226.962 17.4422 227.006C17.4083 227.049 19.226 228.72 21.465 230.718L25.5442 234.358L27.3677 227.692C28.363 224.041 29.1943 220.955 29.1986 220.861C29.204 220.743 26.5694 222.073 23.3535 223.791Z" fill="#FDC300"/>
</g>
<g opacity="0.05">
<path d="M121.292 671.353C124.066 671.411 125.691 674.5 124.167 676.819L114.929 690.881C113.695 692.76 114.507 695.297 116.602 696.11L132.288 702.196C134.875 703.2 135.346 706.659 133.121 708.317L119.63 718.371C117.828 719.714 117.723 722.376 119.414 723.857L132.072 734.941C134.16 736.769 133.419 740.18 130.761 740.977L114.645 745.811C112.493 746.457 111.484 748.923 112.566 750.892L120.67 765.637C122.007 768.069 120.144 771.021 117.374 770.861L100.576 769.891C98.3329 769.762 96.5413 771.734 96.8848 773.954L99.4569 790.582C99.8811 793.324 97.1209 795.461 94.5725 794.363L79.1198 787.707C77.056 786.818 74.6979 788.059 74.2612 790.263L70.9913 806.767C70.452 809.489 67.1275 810.553 65.1082 808.65L52.8639 797.11C51.2286 795.569 48.5885 795.928 47.4242 797.85L38.7067 812.241C37.2689 814.614 33.781 814.477 32.5344 811.998L24.9754 796.966C23.9658 794.958 21.3622 794.393 19.6107 795.801L6.49698 806.342C4.33428 808.08 1.10369 806.758 0.780103 804.003L-1.18194 787.292C-1.444 785.06 -3.69721 783.638 -5.82457 784.362L-21.7527 789.783C-24.3796 790.677 -26.9632 788.329 -26.3247 785.629L-22.4532 769.255C-21.9361 767.069 -23.5671 764.962 -25.8137 764.914L-42.6352 764.56C-45.4094 764.502 -47.0344 761.412 -45.5108 759.093L-36.2726 745.031C-35.0388 743.153 -35.8508 740.615 -37.9458 739.803L-53.6316 733.716C-56.2185 732.713 -56.6889 729.254 -54.4641 727.596L-40.9735 717.541C-39.1717 716.199 -39.0669 713.536 -40.7575 712.056L-53.4157 700.972C-55.5033 699.144 -54.7624 695.733 -52.1046 694.936L-35.9888 690.102C-33.8364 689.456 -32.8273 686.99 -33.9096 685.021L-42.0135 670.276C-43.35 667.844 -41.4871 664.892 -38.7169 665.052L-21.9197 666.021C-19.6763 666.151 -17.8847 664.179 -18.2282 661.958L-20.8003 645.331C-21.2245 642.589 -18.4643 640.452 -15.9159 641.549L-0.463229 648.205C1.60061 649.094 3.95866 647.854 4.39538 645.65L7.66532 629.145C8.20459 626.423 11.5291 625.36 13.5484 627.263L25.7927 638.802C27.428 640.344 30.0681 639.985 31.2324 638.063L39.95 623.672C41.3877 621.299 44.8756 621.436 46.1222 623.915L53.6812 638.947C54.6908 640.954 57.2944 641.52 59.0459 640.112L72.1596 629.571C74.3223 627.832 77.5529 629.154 77.8765 631.91L79.8386 648.62C80.1006 650.852 82.3538 652.274 84.4812 651.55L100.409 646.13C103.036 645.236 105.62 647.583 104.981 650.284L101.11 666.657C100.593 668.844 102.224 670.951 104.47 670.998L121.292 671.353Z" fill="white"/>
<path d="M88.3667 726.997C81.6788 728.448 66.2447 732.109 66.2464 732.217C66.2481 732.324 81.8986 742.328 88.6759 746.527L91.1277 748.073L90.9565 737.259L90.7852 726.445L88.3667 726.997Z" fill="black"/>
<path d="M81.165 715.753C74.6598 711.574 69.0137 708.027 68.693 707.88C68.0866 707.568 68.0613 708.18 68.2265 718.219C68.3403 725.135 68.5438 728.906 68.7568 728.949C69.0761 729.015 92.1533 723.723 92.7854 723.451C92.9256 723.372 87.7053 719.913 81.165 715.753Z" fill="black"/>
<path d="M72.9113 742.037C66.1642 737.754 60.465 734.223 60.2859 734.187C60.0709 734.142 59.9918 738.016 60.103 744.771C60.2682 754.81 60.3142 755.436 60.9201 755.373C61.5265 755.336 83.2957 750.393 84.5752 750.039C85.1081 749.88 83.4827 748.742 72.9113 742.037Z" fill="black"/>
<path d="M70.5853 706.25C70.058 706.278 50.7433 710.874 47.5894 711.689L46.6436 711.955L58.2674 719.406C64.7014 723.529 70.2825 727.127 70.7449 727.437L71.5275 727.975L71.3549 717.079C71.1923 706.806 71.1471 706.176 70.5853 706.25Z" fill="black"/>
<path d="M62.286 732.957C61.8292 733.08 56.3103 734.41 49.9473 735.918C43.6193 737.407 38.4876 738.681 38.5234 738.716C38.9167 739.039 62.301 753.959 62.7991 754.223C63.3681 754.501 63.3928 753.831 63.2312 743.623L63.0588 732.737L62.286 732.957Z" fill="black"/>
<path d="M61.2322 695.275L48.8713 687.418L48.9339 698.154C48.9918 704.07 49.1052 708.967 49.1778 709.036C49.3599 709.236 73.6351 703.52 73.6316 703.302C73.5944 703.214 68.027 699.586 61.2322 695.275Z" fill="black"/>
<path d="M44.8359 748.627C38.0766 744.296 32.4395 740.789 32.369 740.856C32.2981 740.896 32.3396 745.779 32.4693 751.709L32.7473 762.489L44.9388 759.642C51.6406 758.085 57.1289 756.714 57.1635 756.64C57.1618 756.531 51.6307 752.938 44.8359 748.627Z" fill="black"/>
<path d="M39.8923 689.176C33.3225 690.736 27.8479 692.059 27.7073 692.138C27.4964 692.258 45.9688 704.236 50.9415 707.242L52.1218 707.94L51.9586 697.13L51.7953 686.319L39.8923 689.176Z" fill="black"/>
<path d="M41.976 713.451C41.0145 713.686 35.4937 714.958 29.6878 716.279C23.8822 717.627 19.1458 718.763 19.1471 718.844C19.1483 718.925 23.952 722.034 29.8376 725.741C35.7236 729.475 41.3202 732.989 42.2953 733.619L44.0283 734.7L43.8571 723.886L43.6859 713.072L41.976 713.451Z" fill="black"/>
<path d="M34.163 739.986C29.2508 740.991 11.028 745.539 11.2438 745.745C11.3877 745.882 16.9359 749.437 23.5933 753.675L35.6559 761.385L35.4926 750.574L35.3294 739.763L34.163 739.986Z" fill="black"/>
<path d="M34.2336 701.719C27.5506 697.448 21.9764 693.943 21.8699 693.921C21.7634 693.899 21.766 698.762 21.8556 704.696L22.0189 715.506L33.9386 712.653C40.4626 711.083 45.9636 709.739 46.104 709.66C46.2795 709.56 40.9166 705.989 34.2336 701.719Z" fill="black"/>
<path d="M35.6014 735.169C34.2798 734.307 28.7086 730.748 23.2801 727.272L13.3521 720.94L13.5153 731.751C13.6049 737.684 13.7495 742.576 13.8559 742.597C14.1043 742.647 37.3281 737.085 37.7497 736.901C37.925 736.801 36.9586 736.038 35.6014 735.169Z" fill="black"/>
<path d="M24.1193 693.008C23.4802 692.878 -0.0404623 698.758 0.210937 698.998C0.354594 699.135 5.93061 702.723 12.5783 706.959L24.6233 714.665L24.46 703.854C24.3704 697.921 24.2258 693.029 24.1193 693.008Z" fill="black"/>
<path d="M4.28516 722.293C-2.27514 723.855 -7.7768 725.199 -7.91719 725.279C-8.12777 725.398 15.7162 740.896 16.3198 741.018C16.4263 741.04 16.4237 736.177 16.3341 730.243L16.1708 719.433L4.28516 722.293Z" fill="black"/>
<path d="M6.70111 708.497L-5.6713 700.637L-5.69347 706.022C-5.68207 709.003 -5.60549 713.839 -5.52224 716.835L-5.32884 722.264L6.87406 719.419C13.5822 717.863 19.0765 716.547 19.0752 716.465C19.074 716.384 13.5022 712.809 6.70111 708.497Z" fill="black"/>
</g>
</svg>
