<svg width="375" height="598" viewBox="0 0 375 598" fill="none" xmlns="http://www.w3.org/2000/svg">
<path d="M407.931 38.7299C409.222 38.9607 409.757 40.5199 408.879 41.4944L404.627 46.2175C403.916 47.0063 404.111 48.2486 405.029 48.7819L410.537 51.9822C411.672 52.6413 411.64 54.2906 410.481 54.9051L404.882 57.8725C403.943 58.3702 403.701 59.6063 404.382 60.4218L408.47 65.3128C409.313 66.3209 408.717 67.8623 407.415 68.0413L401.152 68.9027C400.097 69.0478 399.445 70.1292 399.809 71.1301L401.983 77.112C402.433 78.3487 401.343 79.596 400.057 79.317L393.883 77.9776C392.84 77.7514 391.855 78.5465 391.856 79.6134L391.863 85.9601C391.865 87.2773 390.413 88.0788 389.299 87.3759L383.947 83.9988C383.044 83.4291 381.846 83.8401 381.483 84.8441L379.33 90.7952C378.882 92.0339 377.244 92.2921 376.437 91.2512L372.547 86.2362C371.893 85.3932 370.628 85.37 369.944 86.1885L365.891 91.036C365.047 92.0456 363.421 91.7295 363.017 90.4772L361.062 84.4201C360.735 83.4066 359.556 82.9532 358.634 83.4862L353.161 86.65C352.024 87.3076 350.607 86.4565 350.654 85.1435L350.879 78.7732C350.916 77.7111 349.966 76.884 348.919 77.0674L342.678 78.1608C341.386 78.3872 340.348 77.1049 340.839 75.8882L343.224 69.9807C343.621 68.9964 343.013 67.8959 341.968 67.7091L335.711 66.5905C334.421 66.3597 333.886 64.8005 334.763 63.826L339.016 59.1029C339.726 58.3141 339.531 57.0718 338.613 56.5386L333.105 53.3382C331.97 52.6791 332.003 51.0298 333.162 50.4154L338.76 47.4479C339.699 46.9502 339.942 45.7141 339.26 44.8986L335.172 40.0076C334.33 38.9995 334.926 37.4581 336.227 37.2791L342.49 36.4178C343.545 36.2727 344.197 35.1913 343.833 34.1903L341.659 28.2084C341.21 26.9717 342.299 25.7244 343.585 26.0034L349.76 27.3428C350.802 27.569 351.787 26.7739 351.786 25.707L351.779 19.3603C351.778 18.0431 353.229 17.2416 354.343 17.9445L359.695 21.3216C360.598 21.8913 361.796 21.4803 362.159 20.4763L364.312 14.5252C364.76 13.2865 366.398 13.0284 367.205 14.0692L371.095 19.0842C371.749 19.9272 373.015 19.9504 373.699 19.1319L377.752 14.2844C378.596 13.2749 380.221 13.591 380.625 14.8433L382.58 20.9004C382.908 21.9139 384.086 22.3673 385.008 21.8343L390.481 18.6704C391.619 18.0129 393.035 18.8639 392.989 20.1769L392.764 26.5472C392.726 27.6093 393.676 28.4365 394.723 28.2531L400.964 27.1596C402.256 26.9332 403.294 28.2155 402.803 29.4322L400.419 35.3397C400.021 36.324 400.63 37.4245 401.675 37.6113L407.931 38.7299Z" fill="black"/>
<path d="M355.871 73.7396C356.181 73.5298 356.513 73.4923 356.866 73.627L357.3 73.7925L356.624 75.628L355.752 75.2953L354.751 78.012L352.924 77.3152L353.924 74.5985L353.234 74.3355L353.91 72.5L354.6 72.763L355.005 71.6616C355.307 70.8418 355.845 70.5793 356.619 70.8743L358.159 71.4613L357.55 73.1133L357.235 72.9931C357.101 72.942 356.982 72.9174 356.877 72.9193C356.773 72.9181 356.674 72.9518 356.579 73.0203L355.745 73.6443L355.83 73.7658L355.871 73.7396Z" fill="#FF5F64"/>
<path d="M363.566 82.2778C363.306 82.3542 363.068 82.4016 362.854 82.4198C362.642 82.4407 362.443 82.4225 362.255 82.3651C362.071 82.3057 361.892 82.2014 361.721 82.0523C361.548 81.9077 361.373 81.7085 361.196 81.4546C360.768 80.8427 360.581 80.29 360.633 79.7967C360.688 79.3059 360.978 78.8701 361.503 78.4892C362.026 78.1102 362.52 77.9729 362.987 78.0774C363.454 78.1818 363.895 78.532 364.312 79.1279C364.442 79.3149 364.55 79.4945 364.635 79.6668C364.721 79.8416 364.789 80.0099 364.838 80.1714C364.89 80.3311 364.927 80.4835 364.949 80.6287C364.973 80.7719 364.988 80.9064 364.992 81.0321L365.052 80.989C365.149 80.9182 365.218 80.8237 365.259 80.7056C365.303 80.5856 365.314 80.4461 365.295 80.2872C365.278 80.1263 365.226 79.9466 365.139 79.748C365.054 79.5521 364.932 79.3406 364.773 79.1135C364.582 78.8409 364.38 78.6075 364.164 78.4133C363.952 78.2172 363.713 78.0439 363.449 77.8933L365.446 77.6349L366.221 78.7452C366.558 79.2262 366.794 79.6609 366.93 80.0493C367.066 80.4377 367.121 80.7888 367.093 81.1026C367.068 81.419 366.968 81.7029 366.794 81.9541C366.622 82.2035 366.395 82.4306 366.113 82.6354L363.476 84.5477L362.356 82.9444L363.609 82.4159L363.566 82.2778ZM363.166 81.0398C363.278 81.2001 363.376 81.3345 363.46 81.4429C363.546 81.5494 363.621 81.6303 363.683 81.6856C363.748 81.7436 363.802 81.7787 363.846 81.7908C363.895 81.8038 363.938 81.7968 363.975 81.77C364.009 81.7451 364.027 81.7081 364.028 81.6588C364.032 81.6121 364.017 81.5483 363.984 81.4674C363.953 81.3891 363.901 81.2919 363.828 81.1759C363.758 81.0579 363.666 80.9187 363.554 80.7584C363.439 80.5927 363.337 80.4553 363.248 80.3461C363.165 80.2377 363.091 80.1545 363.026 80.0966C362.964 80.0366 362.91 79.9993 362.864 79.9844C362.82 79.9723 362.779 79.9796 362.742 80.0064C362.706 80.0332 362.684 80.0709 362.678 80.1194C362.677 80.1687 362.693 80.2338 362.725 80.3148C362.758 80.3957 362.81 80.4952 362.88 80.6132C362.955 80.7319 363.051 80.8741 363.166 81.0398Z" fill="#FF5F64"/>
<path d="M367.31 91.1215C367.398 91.108 367.495 91.0997 367.599 91.0966C367.707 91.0935 367.815 91.0937 367.922 91.0972C368.03 91.1007 368.136 91.1073 368.24 91.1172C368.347 91.1305 368.444 91.1466 368.532 91.1658L371.801 91.8827L371.738 93.8719L366.199 92.6562L366.311 89.147L371.916 88.2903L371.853 90.2796L367.28 90.9787L367.295 91.1259L367.31 91.1215Z" fill="#FF5F64"/>
<path d="M366.831 101.102C366.697 101.076 366.57 101.103 366.45 101.181C366.332 101.261 366.203 101.39 366.064 101.566L364.451 103.601L363.268 101.945L364.495 100.397C365.122 99.6049 365.773 99.1647 366.446 99.0765C367.116 98.9908 367.816 99.247 368.544 99.8451C369.272 100.443 369.673 101.079 369.747 101.751C369.819 102.427 369.553 103.145 368.95 103.906C368.648 104.287 368.341 104.581 368.028 104.787C367.717 104.996 367.405 105.126 367.094 105.178C366.782 105.23 366.473 105.206 366.166 105.105C365.861 105.007 365.565 104.84 365.278 104.604C365.016 104.389 364.799 104.149 364.626 103.884L366.831 101.102ZM366.395 103.155C366.536 103.271 366.683 103.296 366.834 103.231C366.986 103.17 367.17 103.004 367.384 102.733C367.568 102.501 367.681 102.301 367.723 102.132C367.765 101.969 367.723 101.805 367.595 101.641L366.395 103.155Z" fill="#FF5F64"/>
<path d="M359.527 106.014L361.955 112.936L360.117 113.606L357.689 106.684L359.527 106.014Z" fill="#FF5F64"/>
<path d="M348.922 109.335C349.065 109.103 349.21 108.908 349.357 108.75C349.501 108.592 349.661 108.47 349.839 108.386C350.017 108.305 350.219 108.261 350.447 108.254C350.673 108.244 350.937 108.272 351.239 108.338C351.968 108.499 352.479 108.778 352.771 109.176C353.059 109.574 353.136 110.09 353.001 110.724C352.867 111.355 352.591 111.79 352.173 112.029C351.756 112.268 351.192 112.309 350.482 112.152C350.259 112.103 350.058 112.044 349.88 111.975C349.698 111.905 349.535 111.827 349.39 111.742C349.244 111.659 349.114 111.572 349 111.481C348.886 111.392 348.785 111.303 348.697 111.214L348.682 111.285C348.657 111.403 348.669 111.519 348.718 111.634C348.766 111.751 348.851 111.862 348.972 111.965C349.093 112.072 349.252 112.169 349.45 112.256C349.645 112.342 349.878 112.415 350.148 112.474C350.473 112.546 350.781 112.58 351.071 112.578C351.361 112.578 351.655 112.544 351.953 112.476L350.64 114.015L349.317 113.724C348.744 113.597 348.277 113.438 347.915 113.244C347.552 113.051 347.276 112.83 347.086 112.581C346.892 112.332 346.776 112.056 346.737 111.754C346.698 111.454 346.714 111.134 346.787 110.793L347.465 107.608L349.376 108.028L348.798 109.263L348.922 109.335ZM350.051 109.975C349.86 109.932 349.697 109.9 349.562 109.877C349.426 109.857 349.316 109.848 349.233 109.849C349.146 109.85 349.082 109.861 349.041 109.882C348.996 109.906 348.968 109.94 348.959 109.984C348.95 110.026 348.962 110.065 348.994 110.102C349.023 110.139 349.077 110.176 349.155 110.213C349.231 110.25 349.335 110.286 349.467 110.322C349.599 110.361 349.76 110.401 349.951 110.443C350.149 110.487 350.317 110.519 350.456 110.539C350.591 110.562 350.702 110.573 350.789 110.573C350.875 110.575 350.94 110.566 350.984 110.546C351.025 110.525 351.051 110.492 351.06 110.447C351.07 110.402 351.06 110.36 351.032 110.321C351 110.284 350.945 110.246 350.866 110.209C350.787 110.172 350.682 110.133 350.55 110.094C350.415 110.058 350.248 110.018 350.051 109.975Z" fill="#FF5F64"/>
<path d="M340.613 104.042L341.185 104.645C341.632 105.116 341.854 105.58 341.853 106.039C341.847 106.497 341.638 106.928 341.227 107.333L339.944 108.595L340.233 108.9L338.838 110.271L336.586 109.153L337.203 108.546L336.642 107.953L338.036 106.582L338.598 107.175L339.512 106.277C339.616 106.174 339.663 106.076 339.651 105.982C339.634 105.889 339.567 105.781 339.451 105.658L339.064 105.25L340.613 104.042Z" fill="#FF5F64"/>
<path d="M334.329 99.5208C334.435 99.4336 334.498 99.3183 334.518 99.1749C334.534 99.0322 334.521 98.8503 334.48 98.6293L333.999 96.0774L336.017 96.2202L336.382 98.1617C336.569 99.1549 336.476 99.9404 336.104 100.518C335.731 101.093 335.082 101.471 334.158 101.652C333.233 101.833 332.494 101.738 331.939 101.365C331.384 100.988 331.017 100.323 330.837 99.3682C330.747 98.8908 330.727 98.4646 330.776 98.0896C330.821 97.7153 330.926 97.3908 331.09 97.1161C331.254 96.8415 331.474 96.6173 331.75 96.4437C332.022 96.2706 332.341 96.1484 332.706 96.0769C333.038 96.0117 333.361 95.9967 333.672 96.0319L334.329 99.5208ZM333.068 97.8695C332.889 97.9046 332.774 98.0018 332.725 98.161C332.671 98.3177 332.676 98.5658 332.74 98.9054C332.795 99.197 332.872 99.4127 332.972 99.5527C333.067 99.6901 333.218 99.7618 333.425 99.7678L333.068 97.8695Z" fill="#FF5F64"/>
<path d="M334.823 84.7323C335.621 85.1687 336.119 85.703 336.314 86.3351C336.51 86.9673 336.398 87.7068 335.977 88.5536C335.545 89.4238 335.011 89.9625 334.373 90.1697C333.734 90.3724 332.988 90.2546 332.135 89.8163C331.283 89.3779 330.747 88.8367 330.529 88.1926C330.308 87.5441 330.414 86.7848 330.846 85.9146C331.266 85.0677 331.784 84.5384 332.398 84.3267C333.014 84.112 333.73 84.1995 334.544 84.5891L333.673 86.3456C333.419 86.2334 333.209 86.2133 333.042 86.2852C332.875 86.3571 332.723 86.5318 332.585 86.8092C332.51 86.961 332.46 87.0984 332.435 87.2214C332.412 87.3414 332.418 87.4507 332.453 87.5492C332.485 87.6463 332.546 87.7362 332.635 87.8191C332.725 87.902 332.846 87.9822 332.996 88.0597C333.147 88.1372 333.283 88.189 333.405 88.215C333.524 88.2394 333.633 88.2367 333.731 88.2067C333.827 88.1753 333.915 88.1145 333.997 88.0243C334.079 87.9311 334.158 87.8086 334.234 87.6568C334.371 87.3794 334.419 87.1511 334.377 86.9718C334.332 86.7911 334.19 86.6301 333.951 86.4887L334.823 84.7323Z" fill="#FF5F64"/>
<path d="M344.198 79.1958L342.447 80.0675L341.246 77.5627C341.1 77.2569 340.933 77.0721 340.747 77.0081C340.561 76.9442 340.334 76.9791 340.065 77.1127C339.797 77.2464 339.633 77.4062 339.574 77.5922C339.518 77.7767 339.563 78.0218 339.71 78.3276L340.91 80.8323L339.159 81.704L335.989 75.0893L337.74 74.2176L338.503 75.8096L338.552 76.692L338.7 76.6839C338.692 76.4653 338.715 76.274 338.766 76.11C338.816 75.9431 338.889 75.796 338.983 75.6689C339.078 75.5417 339.194 75.4293 339.331 75.3317C339.469 75.2341 339.621 75.1439 339.787 75.0611C340.45 74.7313 341.046 74.7041 341.575 74.9794C342.108 75.2532 342.58 75.8208 342.993 76.6822L344.198 79.1958Z" fill="#FF5F64"/>
<g opacity="0.05">
<path d="M34.6037 477.332C35.2925 476.087 37.0825 476.087 37.7713 477.332L41.9478 484.882C42.5057 485.891 43.8512 486.128 44.7202 485.371L51.2271 479.705C52.3002 478.771 53.9823 479.383 54.2037 480.788L55.5462 489.311C55.7255 490.45 56.9088 491.133 57.9842 490.719L66.0366 487.62C67.3646 487.109 68.7358 488.26 68.4631 489.656L66.8097 498.124C66.5888 499.255 67.4671 500.302 68.6192 500.281L77.2458 500.123C78.6685 500.097 79.5635 501.647 78.8296 502.866L74.3796 510.258C73.7853 511.245 74.2526 512.529 75.3425 512.904L83.5028 515.706C84.8486 516.168 85.1594 517.931 84.0528 518.825L77.343 524.249C76.4469 524.974 76.4469 526.34 77.343 527.065L84.0528 532.489C85.1594 533.383 84.8486 535.146 83.5028 535.608L75.3425 538.41C74.2526 538.785 73.7853 540.068 74.3796 541.056L78.8296 548.448C79.5635 549.667 78.6685 551.217 77.2458 551.191L68.6192 551.033C67.4671 551.012 66.5888 552.059 66.8097 553.19L68.4631 561.658C68.7358 563.054 67.3646 564.205 66.0366 563.694L57.9842 560.595C56.9088 560.181 55.7255 560.864 55.5462 562.003L54.2037 570.525C53.9823 571.931 52.3002 572.543 51.2271 571.609L44.7202 565.943C43.8512 565.186 42.5057 565.423 41.9478 566.432L37.7713 573.981C37.0825 575.227 35.2925 575.227 34.6037 573.981L30.4271 566.432C29.8693 565.423 28.5237 565.186 27.6547 565.943L21.1478 571.609C20.0747 572.543 18.3926 571.931 18.1712 570.525L16.8287 562.003C16.6494 560.864 15.4661 560.181 14.3907 560.595L6.33832 563.694C5.01033 564.205 3.63911 563.054 3.91179 561.658L5.56524 553.19C5.78607 552.059 4.90783 551.012 3.75568 551.033L-4.8709 551.191C-6.29359 551.217 -7.18859 549.667 -6.4547 548.448L-2.00471 541.056C-1.41037 540.068 -1.87768 538.785 -2.96756 538.41L-11.1279 535.608C-12.4737 535.146 -12.7845 533.383 -11.6779 532.489L-4.96812 527.065C-4.07196 526.34 -4.07196 524.974 -4.96811 524.249L-11.6779 518.825C-12.7845 517.931 -12.4737 516.168 -11.1279 515.706L-2.96756 512.904C-1.87768 512.529 -1.41037 511.245 -2.00471 510.258L-6.4547 502.866C-7.18859 501.647 -6.2936 500.097 -4.8709 500.123L3.75567 500.281C4.90783 500.302 5.78607 499.255 5.56524 498.124L3.9118 489.656C3.63911 488.26 5.01033 487.109 6.33832 487.62L14.3907 490.719C15.4661 491.133 16.6494 490.45 16.8287 489.311L18.1712 480.788C18.3926 479.383 20.0747 478.771 21.1478 479.705L27.6547 485.371C28.5237 486.128 29.8693 485.891 30.4271 484.882L34.6037 477.332Z" fill="white"/>
<path d="M52.2471 505.331C51.4534 508.321 49.7384 515.339 49.7787 515.38C49.8191 515.42 56.66 513.532 59.5726 512.663L60.6365 512.359L56.5801 508.299L52.5238 504.24L52.2471 505.331Z" fill="black"/>
<path d="M45.5662 505.478C42.7076 506.269 40.2564 506.987 40.1377 507.048C39.9 507.152 40.1223 507.394 43.8872 511.162C46.4812 513.758 47.9235 515.122 47.9825 515.06C48.0709 514.968 50.7334 504.489 50.7589 504.153C50.7579 504.072 48.4246 504.666 45.5662 505.478Z" fill="black"/>
<path d="M55.5383 515.472C52.5928 516.313 50.1369 517.056 50.0873 517.108C50.0277 517.17 51.4516 518.676 53.9851 521.211C57.7499 524.979 57.992 525.201 58.09 524.955C58.1982 524.719 60.7277 514.852 60.8528 514.247C60.9007 513.992 60.1514 514.153 55.5383 515.472Z" fill="black"/>
<path d="M38.5678 508.519C38.4729 508.721 36.3319 517.51 36.0065 518.969L35.917 519.415L41.0056 518.021C43.8216 517.248 46.2723 516.586 46.4799 516.536L46.836 516.456L42.7489 512.366C38.8956 508.509 38.6521 508.285 38.5678 508.519Z" fill="black"/>
<path d="M48.6879 518.691C48.6425 518.904 48.037 521.421 47.3296 524.315C46.6219 527.187 46.0728 529.543 46.0927 529.543C46.2913 529.523 56.5026 526.691 56.7 526.61C56.9168 526.508 56.6726 526.244 52.8433 522.412L48.76 518.325L48.6879 518.691Z" fill="black"/>
<path d="M31.571 509.521L26.1844 511.029L30.1903 515.099C32.4021 517.332 34.2463 519.158 34.2864 519.158C34.397 519.167 37.1102 508.145 37.0286 508.063C36.9882 508.043 34.5291 508.688 31.571 509.521Z" fill="black"/>
<path d="M51.8751 529.692C48.9167 530.503 46.4888 531.221 46.4996 531.272C46.5002 531.313 48.3247 533.159 50.5562 535.372L54.6214 539.38L55.9928 533.853C56.7497 530.818 57.3336 528.296 57.313 528.255C57.2722 528.214 54.8332 528.86 51.8751 529.692Z" fill="black"/>
<path d="M23.7069 517.754C22.9875 520.724 22.3965 523.207 22.3983 523.288C22.401 523.41 30.5147 521.294 32.6174 520.641L33.1108 520.48L29.0548 516.421L24.9988 512.362L23.7069 517.754Z" fill="black"/>
<path d="M35.0104 523.19C34.9062 523.63 34.2786 526.126 33.6127 528.745C32.9569 531.374 32.4349 533.533 32.4654 533.563C32.4958 533.593 34.6098 533.029 37.162 532.297C39.7242 531.576 42.1467 530.877 42.5755 530.762L43.3231 530.542L39.2668 526.483L35.2105 522.423L35.0104 523.19Z" fill="black"/>
<path d="M45.1755 533.1C44.5772 535.259 42.6645 543.58 42.7838 543.581C42.8633 543.581 45.2841 542.929 48.1789 542.136L53.4352 540.712L49.3793 536.653L45.3233 532.593L45.1755 533.1Z" fill="black"/>
<path d="M28.035 523.343C25.1232 524.133 22.7154 524.813 22.6863 524.843C22.6572 524.874 24.4676 526.725 26.6938 528.953L30.7498 533.012L32.0462 527.615C32.7531 524.659 33.3413 522.158 33.3394 522.077C33.3371 521.975 30.9469 522.554 28.035 523.343Z" fill="black"/>
<path d="M42.624 532.514C42.0417 532.663 39.6147 533.322 37.2467 533.96L32.9254 535.138L36.9814 539.197C39.2076 541.425 41.0568 543.236 41.0859 543.206C41.1537 543.135 43.6789 532.619 43.6936 532.397C43.6912 532.295 43.216 532.354 42.624 532.514Z" fill="black"/>
<path d="M21.4375 526.498C21.2629 526.679 18.7973 537.424 18.9363 537.424C19.0158 537.425 21.4543 536.775 24.3464 535.985L29.598 534.566L25.542 530.506C23.3158 528.278 21.4666 526.467 21.4375 526.498Z" fill="black"/>
<path d="M30.2355 541.822C29.5187 544.789 28.9303 547.291 28.9322 547.372C28.9349 547.493 39.4211 544.776 39.5861 544.604C39.6152 544.574 37.8048 542.722 35.5786 540.494L31.5226 536.435L30.2355 541.822Z" fill="black"/>
<path d="M24.5521 537.429L19.1622 538.94L21.1607 541.001C22.2719 542.133 24.086 543.949 25.217 545.06L27.2748 547.059L28.6492 541.529C29.4077 538.492 30.0134 535.989 29.9829 535.958C29.9523 535.928 27.5121 536.595 24.5521 537.429Z" fill="black"/>
<path d="M17.8183 540.432C17.6741 540.811 15.1111 551.449 15.1519 551.49C15.1927 551.53 25.5622 548.705 25.9306 548.551C25.9904 548.53 24.2056 546.663 21.9533 544.409C19.701 542.155 17.8374 540.371 17.8183 540.432Z" fill="black"/>
<path d="M17.3362 554.789C16.0333 554.903 15.0232 556.19 15.2297 557.472C15.2809 557.803 18.7827 568.651 19.0005 569.164C19.1656 569.552 19.3636 569.815 19.671 570.063C20.62 570.821 21.906 570.739 22.7808 569.865C22.9883 569.656 23.1451 569.367 24.0513 567.539C24.7864 566.056 24.9603 565.731 25.0901 565.61C25.2199 565.49 25.5609 565.339 27.1081 564.718C28.1329 564.311 29.0596 563.922 29.1675 563.856C29.6106 563.596 30.0056 563.107 30.1879 562.596C30.3346 562.187 30.3491 561.605 30.2249 561.172C30.0535 560.577 29.6946 560.093 29.2105 559.797C29.0252 559.685 25.6695 558.184 19.3268 555.366C18.1117 554.826 17.8316 554.745 17.3362 554.789ZM18.024 556.514C19.0305 556.941 28.3017 561.081 28.4226 561.158C28.8118 561.402 28.8862 561.992 28.5672 562.346C28.4325 562.49 28.357 562.526 26.3151 563.346C25.3811 563.722 24.5216 564.086 24.4098 564.152C24.1741 564.295 23.8493 564.605 23.6953 564.832C23.6371 564.916 23.2109 565.752 22.7453 566.685C21.7749 568.645 21.7411 568.706 21.6117 568.819C21.2881 569.101 20.7893 569.046 20.5175 568.696C20.433 568.589 19.9875 567.265 18.5852 562.943C17.5858 559.857 16.7616 557.279 16.753 557.211C16.7055 556.8 17.1341 556.341 17.5453 556.356C17.6151 556.36 17.8296 556.429 18.024 556.514Z" fill="black"/>
</g>
</svg>
