<svg width="375" height="913" viewBox="0 0 375 913" fill="none" xmlns="http://www.w3.org/2000/svg">
<rect y="158" width="375" height="623" fill="#75D8AB"/>
<path d="M345.373 123.515C358.825 127.728 390.641 136.898 390.903 136.707C391.165 136.516 392.619 103.089 392.919 88.8488L393.095 83.6494L366.767 102.845L340.44 122.04L345.373 123.515Z" fill="#FF5F64"/>
<path d="M341.709 148.937C341.1 162.923 340.77 174.921 340.887 175.506C341.02 176.673 342.565 175.621 367.043 157.76C383.91 145.454 392.892 138.603 392.683 138.309C392.369 137.868 344.981 123.706 343.369 123.543C342.967 123.539 342.218 134.949 341.709 148.937Z" fill="#0DAFC6"/>
<path d="M347.04 184.257C347.891 184.752 387.884 196.585 394.573 198.404L396.632 198.911L397.579 173.883C398.1 160.032 398.603 147.98 398.676 146.96L398.828 145.211L372.407 164.486C347.498 182.657 346.021 183.809 347.04 184.257Z" fill="#FF5F64"/>
<path d="M347.276 212.226L346.272 238.375L372.354 219.579C386.69 209.2 398.463 200.541 398.524 200.348C398.744 199.816 349.163 185.359 348.638 185.742C348.476 185.935 347.808 197.866 347.276 212.226Z" fill="white"/>
<path d="M375.986 253.336C389.521 257.334 400.854 260.626 401.257 260.631C401.861 260.638 403.859 220.721 403.861 210.359L403.824 207.926L377.607 227.037L351.389 246.147L375.986 253.336Z" fill="#FF5F64"/>
<path d="M362.344 753.38C404.895 781.183 286.972 820.074 174.911 848.163C62.8492 876.252 -92.7869 838.541 -135.338 810.738C-177.89 782.935 -26.1267 818.116 85.9348 790.027C197.996 761.938 319.793 725.577 362.344 753.38Z" fill="#FDC300"/>
<path d="M349.395 782.983C298.247 820.108 170.144 848.806 63.2695 847.081C-43.6051 845.356 -70.0615 789.576 -18.9133 752.451C32.2349 715.326 63.3469 767.726 170.221 769.451C277.096 771.176 400.543 745.857 349.395 782.983Z" fill="#FF5F64"/>
<path d="M385.313 768.06C367.246 803.774 256.642 841.148 138.271 851.536C19.9008 861.924 -18.8231 797.257 -0.756637 761.543C17.3099 725.829 57.6783 787.246 176.049 776.857C294.42 766.469 403.379 732.346 385.313 768.06Z" fill="#0DAFC6"/>
</svg>
