<svg width="1920" height="2519" viewBox="0 0 1920 2519" fill="none" xmlns="http://www.w3.org/2000/svg">
<rect width="1920" height="846" fill="#75D8AB"/>
<path d="M88.5998 523.522C97.8352 552.534 120.895 620.23 121.494 620.479C122.094 620.727 175.169 584.619 197.407 568.665L205.604 562.958L145.355 537.961L85.1063 512.964L88.5998 523.522Z" fill="#FF5F64"/>
<path d="M35.9461 545.163C13.6617 560.223 -5.22776 573.486 -5.99126 574.371C-7.63474 575.96 -4.19654 577.518 52.1217 600.864C90.9254 616.949 112.051 625.172 112.258 624.457C112.568 623.384 78.6991 521.9 77.0554 518.816C76.5895 518.089 58.114 529.922 35.9461 545.163Z" fill="#0DAFC6"/>
<path d="M91.377 651.4C68.5577 667.144 49.7682 680.649 49.594 681.251C49.385 681.973 71.1384 691.531 109.035 707.242C165.352 730.591 168.86 731.91 168.395 729.426C168.081 727.005 136.401 631.385 134.182 625.613C133.195 623.182 127.098 626.719 91.377 651.4Z" fill="white"/>
<path d="M-26.0428 603.097C-25.8052 605.198 2.91128 690.692 7.96202 704.805L9.59808 709.09L49.2797 681.87C71.2349 666.8 90.3982 653.777 92.0552 652.728L94.9291 650.981L34.2078 625.806C-23.0393 602.071 -26.5479 600.75 -26.0428 603.097Z" fill="#FF5F64"/>
<path d="M30.7533 709.519C31.5107 711.574 39.8095 736.042 49.2396 764.194C58.5533 792.164 66.4783 815.004 66.6638 814.947C68.4027 814.195 147.846 759.271 149.236 757.972C150.695 756.434 146.957 754.751 90.0657 731.164L29.402 706.012L30.7533 709.519Z" fill="#FDC300"/>
<path d="M-78.1875 634.346L-119.637 663.063L-60.2564 688.095C-27.5447 701.797 -0.471704 712.892 -0.101944 712.777C0.972695 712.551 -34.6007 606.382 -35.8024 605.884C-36.2877 605.817 -55.4465 618.542 -78.1875 634.346Z" fill="white"/>
<path d="M-79.4868 731.398C-78.012 735.632 -69.9749 759.756 -61.6123 785.089C-53.0992 810.484 -45.9569 831.286 -45.505 831.474C-45.0532 831.661 -28.5473 820.669 -8.89362 806.959C10.9107 793.311 29.5342 780.246 32.8793 778.013L38.6087 773.951L-21.6413 748.957L-81.8912 723.963L-79.4868 731.398Z" fill="white"/>
</svg>
