<svg width="1920" height="4494" viewBox="0 0 1920 4494" fill="none" xmlns="http://www.w3.org/2000/svg">
<rect y="332" width="1923" height="948" fill="#75D8AB"/>
<path d="M10.3383 462.588C11.9348 459.716 16.0652 459.716 17.6617 462.588L25.3992 476.507C26.6914 478.832 29.7946 479.379 31.8045 477.638L43.8682 467.183C46.3527 465.03 50.2357 466.447 50.7496 469.695L53.2318 485.376C53.6481 488.007 56.3809 489.586 58.8679 488.634L73.7838 482.921C76.8582 481.744 80.027 484.409 79.3931 487.64L76.3434 503.184C75.8297 505.803 77.8625 508.228 80.5307 508.179L96.4767 507.889C99.7735 507.829 101.844 511.424 100.138 514.246L91.9428 527.793C90.5591 530.08 91.6429 533.061 94.1727 533.925L109.221 539.068C112.345 540.135 113.065 544.227 110.493 546.296L98.1374 556.236C96.0529 557.913 96.0529 561.088 98.1374 562.765L110.493 572.705C113.065 574.774 112.345 578.866 109.221 579.933L94.1727 585.076C91.6429 585.94 90.5591 588.921 91.9428 591.208L100.138 604.755C101.844 607.577 99.7735 611.172 96.4767 611.112L80.5307 610.822C77.8625 610.773 75.8296 613.198 76.3434 615.817L79.3931 631.361C80.027 634.592 76.8582 637.257 73.7838 636.08L58.8679 630.367C56.3809 629.415 53.6481 630.994 53.2318 633.625L50.7496 649.306C50.2357 652.554 46.3527 653.971 43.8682 651.818L31.8045 641.363C29.7946 639.622 26.6914 640.169 25.3992 642.494L17.6617 656.413C16.0652 659.285 11.9348 659.285 10.3383 656.413L2.60078 642.494C1.30859 640.169 -1.79456 639.622 -3.80447 641.363L-15.8682 651.818C-18.3527 653.971 -22.2357 652.554 -22.7496 649.306L-25.2318 633.625C-25.6481 630.994 -28.3809 629.415 -30.8679 630.367L-45.7838 636.08C-48.8582 637.257 -52.027 634.592 -51.3931 631.361L-48.3434 615.817C-47.8296 613.198 -49.8625 610.773 -52.5307 610.822L-68.4767 611.112C-71.7735 611.172 -73.8442 607.577 -72.1376 604.755L-63.9428 591.208C-62.5591 588.921 -63.6429 585.94 -66.1726 585.076L-81.2215 579.933C-84.3448 578.866 -85.0645 574.774 -82.4928 572.705L-70.1374 562.765C-68.0529 561.088 -68.0529 557.913 -70.1374 556.236L-82.4928 546.296C-85.0645 544.227 -84.3448 540.135 -81.2215 539.068L-66.1726 533.925C-63.6429 533.061 -62.5591 530.08 -63.9428 527.793L-72.1376 514.246C-73.8442 511.424 -71.7735 507.829 -68.4767 507.889L-52.5307 508.179C-49.8625 508.228 -47.8296 505.803 -48.3434 503.184L-51.3931 487.64C-52.027 484.409 -48.8582 481.744 -45.7838 482.921L-30.8679 488.634C-28.3809 489.586 -25.6481 488.007 -25.2318 485.376L-22.7496 469.695C-22.2357 466.447 -18.3527 465.03 -15.8682 467.183L-3.80447 477.638C-1.79456 479.379 1.30859 478.832 2.60078 476.507L10.3383 462.588Z" fill="black"/>
<path d="M49.7923 613.463C49.5471 612.558 49.7278 611.741 50.3343 611.013L51.0795 610.119L54.8807 613.213L53.3826 615.011L59.0085 619.59L55.8711 623.356L50.2452 618.776L49.0609 620.198L45.2596 617.104L46.444 615.682L44.1632 613.826C42.4653 612.444 42.2805 610.956 43.6086 609.362L46.2519 606.189L49.673 608.974L49.1318 609.623C48.9017 609.9 48.7463 610.163 48.6654 610.413C48.5783 610.658 48.5774 610.92 48.6629 611.201L49.4636 613.685L49.8213 613.581L49.7923 613.463Z" fill="#FF5F64"/>
<path d="M77.0347 601.661C77.0038 602.341 76.923 602.942 76.7924 603.464C76.6696 603.983 76.464 604.442 76.1756 604.839C75.8849 605.228 75.4928 605.566 74.9996 605.852C74.5165 606.144 73.9021 606.397 73.1561 606.611C71.3581 607.127 69.8958 607.122 68.7694 606.595C67.6508 606.067 66.8536 605.025 66.3776 603.471C65.9041 601.924 65.9808 600.64 66.6077 599.619C67.2346 598.598 68.4236 597.836 70.1745 597.333C70.7241 597.176 71.2374 597.067 71.7143 597.006C72.1991 596.943 72.653 596.919 73.076 596.934C73.4966 596.941 73.8879 596.977 74.2498 597.043C74.6093 597.101 74.9398 597.176 75.2413 597.268L75.1875 597.093C75.099 596.804 74.9313 596.563 74.6844 596.37C74.4352 596.17 74.1142 596.028 73.7216 595.946C73.3265 595.855 72.8583 595.832 72.3168 595.877C71.7832 595.92 71.1827 596.037 70.5153 596.229C69.7144 596.458 68.9964 596.75 68.3611 597.102C67.7234 597.446 67.1187 597.871 66.547 598.375L67.5577 593.432L70.8202 592.496C72.2335 592.09 73.4559 591.884 74.4872 591.876C75.5186 591.869 76.3951 592.026 77.1165 592.345C77.8458 592.663 78.4374 593.13 78.8913 593.748C79.3428 594.358 79.6965 595.08 79.9524 595.916L82.3417 603.719L77.6306 605.071L77.3968 601.672L77.0347 601.661ZM73.7751 601.602C74.2462 601.467 74.6443 601.344 74.9693 601.234C75.2919 601.116 75.5442 601.005 75.7261 600.902C75.9159 600.797 76.0432 600.696 76.1081 600.601C76.1784 600.496 76.1968 600.389 76.1633 600.279C76.1322 600.178 76.0588 600.105 75.943 600.062C75.8351 600.017 75.672 600 75.4535 600.012C75.2428 600.021 74.9702 600.065 74.6356 600.144C74.2987 600.216 73.8947 600.319 73.4236 600.454C72.9367 600.594 72.5281 600.724 72.1977 600.844C71.8727 600.954 71.6153 601.062 71.4255 601.168C71.2333 601.265 71.1008 601.363 71.0281 601.46C70.9633 601.555 70.9476 601.658 70.9811 601.767C71.0146 601.876 71.0865 601.958 71.1968 602.011C71.3125 602.054 71.4796 602.07 71.6981 602.058C71.9166 602.046 72.1943 602.005 72.5313 601.934C72.8737 601.852 73.2883 601.742 73.7751 601.602Z" fill="#FF5F64"/>
<path d="M102.045 600.011C102.085 599.79 102.144 599.554 102.221 599.304C102.301 599.046 102.389 598.791 102.485 598.539C102.581 598.287 102.682 598.042 102.79 597.803C102.909 597.56 103.026 597.342 103.143 597.151L107.5 589.983L112.164 591.751L104.779 603.891L96.5526 600.773L99.0788 586.792L103.742 588.559L101.682 599.965L102.043 600.049L102.045 600.011Z" fill="#FF5F64"/>
<path d="M126.08 609.896C125.911 610.192 125.87 610.515 125.958 610.864C126.053 611.208 126.253 611.618 126.557 612.092L130.07 617.569L125.183 619.027L122.511 614.86C121.144 612.729 120.629 610.83 120.967 609.163C121.309 607.503 122.485 606.053 124.495 604.814C126.504 603.575 128.336 603.141 129.991 603.512C131.65 603.89 133.137 605.104 134.451 607.153C135.108 608.177 135.554 609.145 135.789 610.056C136.03 610.962 136.086 611.806 135.956 612.586C135.826 613.367 135.517 614.08 135.029 614.727C134.548 615.369 133.912 615.934 133.119 616.423C132.396 616.869 131.65 617.189 130.883 617.384L126.08 609.896ZM130.593 612.598C130.982 612.357 131.161 612.031 131.129 611.619C131.109 611.209 130.865 610.64 130.398 609.911C129.997 609.285 129.614 608.855 129.249 608.619C128.896 608.386 128.473 608.354 127.98 608.523L130.593 612.598Z" fill="#FF5F64"/>
<path d="M132.017 632.005L150.397 631.876L150.491 636.777L132.112 636.905L132.017 632.005Z" fill="#FF5F64"/>
<path d="M131.047 660.65C130.613 660.122 130.268 659.62 130.014 659.144C129.755 658.674 129.597 658.194 129.542 657.704C129.494 657.217 129.555 656.701 129.725 656.156C129.883 655.613 130.164 655.01 130.568 654.347C131.541 652.749 132.618 651.766 133.799 651.398C134.976 651.037 136.261 651.275 137.655 652.111C139.042 652.943 139.849 653.95 140.075 655.134C140.301 656.317 139.94 657.687 138.992 659.242C138.695 659.731 138.391 660.158 138.082 660.525C137.768 660.899 137.451 661.223 137.131 661.498C136.817 661.777 136.506 662.014 136.195 662.209C135.892 662.408 135.599 662.575 135.316 662.71L135.474 662.804C135.733 662.96 136.018 663.026 136.329 663.003C136.646 662.984 136.977 662.873 137.321 662.669C137.672 662.47 138.031 662.171 138.398 661.772C138.761 661.38 139.123 660.888 139.485 660.295C139.918 659.583 140.25 658.882 140.479 658.191C140.716 657.504 140.875 656.78 140.956 656.019L143.535 660.381L141.77 663.28C141.005 664.536 140.246 665.514 139.494 666.216C138.741 666.917 137.993 667.392 137.248 667.641C136.499 667.896 135.751 667.948 135.003 667.794C134.261 667.645 133.516 667.345 132.766 666.896L125.768 662.698L128.318 658.512L130.774 660.886L131.047 660.65ZM133.48 658.494C133.225 658.912 133.015 659.272 132.851 659.574C132.693 659.879 132.582 660.132 132.518 660.332C132.45 660.538 132.424 660.699 132.44 660.813C132.459 660.939 132.518 661.031 132.616 661.09C132.707 661.145 132.809 661.149 132.923 661.103C133.033 661.064 133.164 660.967 133.317 660.811C133.465 660.661 133.635 660.444 133.828 660.16C134.027 659.879 134.255 659.53 134.51 659.111C134.773 658.679 134.986 658.306 135.147 657.994C135.312 657.692 135.428 657.438 135.497 657.232C135.572 657.029 135.604 656.867 135.592 656.746C135.576 656.631 135.518 656.544 135.42 656.486C135.322 656.427 135.215 656.415 135.098 656.449C134.984 656.495 134.851 656.596 134.698 656.753C134.546 656.909 134.37 657.127 134.17 657.407C133.973 657.699 133.743 658.061 133.48 658.494Z" fill="#FF5F64"/>
<path d="M111.084 676.641L112.979 675.776C114.458 675.101 115.74 674.951 116.825 675.327C117.907 675.713 118.76 676.558 119.384 677.863L121.331 681.93L122.29 681.492L124.406 685.913L119.925 690.342L118.989 688.385L117.127 689.235L115.011 684.814L116.872 683.965L115.486 681.069C115.327 680.738 115.132 680.548 114.902 680.501C114.667 680.464 114.356 680.534 113.97 680.711L112.688 681.296L111.084 676.641Z" fill="#FF5F64"/>
<path d="M94.3781 687.999C94.2577 687.676 94.0355 687.433 93.7116 687.27C93.3865 687.116 92.9451 686.998 92.3873 686.917L85.9485 685.98L87.9268 681.315L92.8256 682.028C95.3316 682.392 97.1182 683.25 98.1853 684.603C99.2444 685.953 99.6129 687.798 99.2908 690.137C98.9687 692.476 98.1402 694.151 96.8054 695.162C95.4624 696.172 93.5864 696.501 91.1775 696.151C89.973 695.976 88.9462 695.678 88.0971 695.257C87.2468 694.845 86.5629 694.333 86.0452 693.721C85.5275 693.109 85.175 692.405 84.9876 691.611C84.7991 690.824 84.7684 689.969 84.8955 689.046C85.0114 688.205 85.2378 687.429 85.5748 686.718L94.3781 687.999ZM89.4389 689.645C89.3765 690.098 89.5138 690.449 89.8508 690.696C90.1786 690.95 90.771 691.139 91.6279 691.264C92.3635 691.371 92.9376 691.363 93.3501 691.242C93.7535 691.127 94.0463 690.827 94.2286 690.342L89.4389 689.645Z" fill="#FF5F64"/>
<path d="M58.8198 674.344C60.5035 672.806 62.1741 672.061 63.8315 672.111C65.489 672.162 67.1504 673.029 68.8159 674.714C70.5273 676.445 71.3692 678.15 71.3418 679.831C71.3026 681.511 70.4171 683.182 68.6852 684.846C66.9533 686.51 65.2351 687.34 63.5305 687.335C61.8143 687.33 60.1005 686.462 58.3891 684.731C56.7236 683.046 55.8898 681.389 55.8875 679.76C55.8795 678.126 56.6684 676.501 58.2542 674.887L61.7086 678.381C61.2366 678.892 61.018 679.373 61.0529 679.827C61.0878 680.28 61.378 680.783 61.9236 681.335C62.2222 681.637 62.5072 681.867 62.7786 682.026C63.0443 682.178 63.308 682.253 63.5699 682.251C63.8258 682.254 64.0885 682.183 64.358 682.038C64.6275 681.892 64.9155 681.672 65.2218 681.378C65.5281 681.083 65.7615 680.802 65.9221 680.535C66.0767 680.273 66.1586 680.013 66.1677 679.755C66.171 679.503 66.0987 679.244 65.9509 678.978C65.7973 678.707 65.5712 678.42 65.2725 678.118C64.727 677.566 64.2247 677.267 63.7657 677.221C63.3007 677.18 62.8036 677.386 62.2741 677.838L58.8198 674.344Z" fill="#FF5F64"/>
<path d="M52.8965 646.728L53.539 651.587L46.6262 652.395C45.7824 652.494 45.2091 652.738 44.9063 653.127C44.6034 653.516 44.5013 654.083 44.5998 654.828C44.6983 655.573 44.944 656.092 45.3367 656.383C45.7285 656.666 46.3462 656.758 47.19 656.659L54.1028 655.85L54.7452 660.709L36.4898 662.846L35.8473 657.987L40.2408 657.472L42.3719 658.074L42.473 657.717C41.9491 657.556 41.5138 657.348 41.1669 657.093C40.8119 656.838 40.5222 656.547 40.2976 656.22C40.0731 655.893 39.9011 655.526 39.7815 655.121C39.662 654.715 39.5717 654.282 39.5107 653.82C39.2676 651.982 39.6876 650.547 40.7706 649.516C41.8525 648.476 43.5821 647.817 45.9594 647.539L52.8965 646.728Z" fill="#FF5F64"/>
<path d="M1804.81 522.635C1856.86 543.436 1979.91 589.488 1980.91 588.809C1981.91 588.131 1985.62 455.934 1985.97 399.521L1986.35 378.943L1886.04 447.114L1785.73 515.284L1804.81 522.635Z" fill="#FF5F64"/>
<path d="M1791.04 627.051C1789.49 682.318 1788.89 729.783 1789.37 732.136C1789.95 736.805 1795.84 733.102 1889.1 669.724C1953.35 626.056 1987.56 601.619 1986.73 600.39C1985.5 598.548 1802.21 528.016 1796 526.88C1794.45 526.741 1792.21 571.75 1791.04 627.051Z" fill="#0DAFC6"/>
<path d="M1992.09 646.715C1990.82 703.485 1990.55 750.898 1991.24 751.925C1992.06 753.158 2028.87 729.342 2091.62 686.694C2184.88 623.317 2190.49 619.204 2186.4 616.901C2182.56 614.428 2010.62 548.332 1999.91 544.844C1995.35 543.462 1994.04 557.804 1992.09 646.715Z" fill="white"/>
<path d="M1811.17 754.947C1814.48 757.168 1969.16 816.234 1995.02 825.475L2002.98 828.112L2005.21 729.153C2006.44 674.387 2007.69 626.75 2007.91 622.726L2008.4 615.838L1907.74 684.247C1812.84 748.743 1807.22 752.861 1811.17 754.947Z" fill="#FF5F64"/>
<path d="M1812.53 870.844L1810.14 974.285L1909.53 907.634C1964.16 870.808 2009.01 840.028 2009.23 839.279C2010.05 837.237 1818.28 764.82 1816.28 766.179C1815.67 766.893 1813.77 814.031 1812.53 870.844Z" fill="white"/>
<path d="M1923.01 1028.96C1975.36 1048.94 2019.2 1065.45 2020.75 1065.59C2023.08 1065.8 2028.52 907.969 2027.94 866.841L2027.66 857.173L1927.76 925.063L1827.86 992.952L1923.01 1028.96Z" fill="#FF5F64"/>
<path d="M307.648 1177.17C382.617 1259.6 306.382 1365.42 223.875 1440.41C141.368 1515.4 -60.258 1398.37 -135.227 1315.94C-210.197 1233.51 -15.3947 1343.04 67.1124 1268.05C149.62 1193.06 232.678 1094.74 307.648 1177.17Z" fill="#FDC300"/>
<path d="M329.191 1249.66C318.455 1360.67 219.739 1442.01 108.704 1431.32C-2.33081 1420.64 -91.6633 1248.62 -80.927 1137.6C-70.1906 1026.59 20.1191 1188.51 131.154 1199.19C242.189 1209.87 339.927 1138.64 329.191 1249.66Z" fill="#FF5F64"/>
<path d="M345.038 1208.22C368.608 1317.12 299.333 1424.55 190.306 1448.17C81.2796 1471.8 -34.5842 1269.53 -58.1547 1160.63C-81.7252 1051.73 31.9932 1244.09 141.02 1220.46C250.046 1196.84 321.467 1099.32 345.038 1208.22Z" fill="#0DAFC6"/>
</svg>
