<svg width="1920" height="1066" viewBox="0 0 1920 1066" fill="none" xmlns="http://www.w3.org/2000/svg">
<rect width="1920" height="963" fill="#F6F6F6"/>
<g opacity="0.05">
<path d="M264.75 52.2978C267.468 47.3843 274.532 47.3843 277.25 52.2978L293.732 82.0913C295.933 86.0705 301.243 87.0068 304.673 84.0205L330.351 61.6609C334.586 57.9734 341.223 60.3894 342.097 65.9362L347.395 99.5701C348.103 104.062 352.772 106.758 357.016 105.125L388.793 92.8961C394.034 90.8794 399.445 95.4199 398.369 100.931L391.844 134.349C390.972 138.812 394.438 142.942 398.985 142.859L433.028 142.236C438.642 142.133 442.174 148.251 439.278 153.062L421.717 182.232C419.372 186.128 421.216 191.195 425.517 192.672L457.72 203.73C463.03 205.553 464.257 212.51 459.89 216.04L433.411 237.445C429.875 240.304 429.875 245.696 433.411 248.555L459.89 269.96C464.257 273.49 463.03 280.446 457.72 282.27L425.517 293.328C421.216 294.805 419.372 299.872 421.717 303.768L439.278 332.938C442.174 337.749 438.642 343.866 433.028 343.764L398.985 343.141C394.438 343.058 390.972 347.188 391.844 351.651L398.369 385.069C399.445 390.58 394.034 395.12 388.793 393.104L357.016 380.875C352.772 379.242 348.103 381.938 347.395 386.43L342.097 420.064C341.223 425.61 334.586 428.026 330.351 424.339L304.673 401.979C301.243 398.993 295.933 399.929 293.732 403.908L277.25 433.702C274.532 438.615 267.468 438.615 264.75 433.702L248.268 403.908C246.067 399.929 240.757 398.993 237.327 401.979L211.649 424.339C207.414 428.026 200.777 425.61 199.903 420.064L194.605 386.43C193.897 381.938 189.228 379.242 184.984 380.875L153.207 393.104C147.966 395.12 142.555 390.58 143.631 385.069L150.156 351.651C151.028 347.188 147.562 343.058 143.015 343.141L108.972 343.764C103.358 343.866 99.826 337.749 102.722 332.938L120.283 303.768C122.628 299.872 120.784 294.805 116.483 293.328L84.2805 282.27C78.9696 280.446 77.743 273.49 82.1098 269.96L108.589 248.555C112.125 245.696 112.125 240.304 108.589 237.445L82.1098 216.04C77.743 212.51 78.9696 205.553 84.2805 203.73L116.483 192.672C120.784 191.195 122.628 186.128 120.283 182.232L102.722 153.062C99.826 148.251 103.358 142.133 108.972 142.236L143.015 142.859C147.562 142.942 151.028 138.812 150.156 134.349L143.631 100.931C142.555 95.4199 147.966 90.8794 153.207 92.8961L184.984 105.125C189.228 106.758 193.897 104.062 194.605 99.5701L199.903 65.9362C200.777 60.3894 207.414 57.9734 211.649 61.6609L237.327 84.0205C240.757 87.0068 246.067 86.0705 248.268 82.0913L264.75 52.2978Z" fill="white"/>
<path d="M334.385 162.791C331.249 174.596 324.469 202.31 324.629 202.469C324.788 202.628 351.788 195.124 363.283 191.674L367.482 190.466L351.481 174.474L335.479 158.481L334.385 162.791Z" fill="black"/>
<path d="M308.014 163.379C296.732 166.523 287.058 169.373 286.589 169.618C285.651 170.027 286.528 170.982 301.379 185.826C311.612 196.053 317.302 201.423 317.535 201.18C317.884 200.816 328.407 159.436 328.509 158.111C328.505 157.79 319.296 160.154 308.014 163.379Z" fill="black"/>
<path d="M347.367 202.821C335.742 206.16 326.049 209.111 325.853 209.315C325.618 209.56 331.235 215.494 341.229 225.483C356.08 240.326 357.035 241.201 357.423 240.228C357.85 239.295 367.847 200.332 368.342 197.946C368.531 196.936 365.574 197.58 347.367 202.821Z" fill="black"/>
<path d="M280.404 175.368C280.029 176.169 271.567 210.872 270.28 216.636L269.926 218.397L290.01 212.856C301.124 209.786 310.797 207.154 311.616 206.955L313.022 206.636L296.899 190.522C281.698 175.33 280.737 174.448 280.404 175.368Z" fill="black"/>
<path d="M320.341 215.509C320.162 216.351 317.768 226.292 314.972 237.717C312.175 249.061 310.004 258.361 310.083 258.361C310.867 258.28 351.169 247.027 351.948 246.706C352.804 246.304 351.84 245.263 336.734 230.165L320.626 214.066L320.341 215.509Z" fill="black"/>
<path d="M252.785 179.335L231.525 185.328L247.327 201.361C256.052 210.161 263.327 217.352 263.486 217.351C263.922 217.389 274.646 173.863 274.325 173.542C274.165 173.462 264.46 176.028 252.785 179.335Z" fill="black"/>
<path d="M332.91 258.937C321.234 262.162 311.652 265.011 311.694 265.213C311.697 265.374 318.894 272.647 327.697 281.366L343.733 297.154L349.154 275.331C352.146 263.346 354.454 253.386 354.373 253.225C354.212 253.064 344.585 255.63 332.91 258.937Z" fill="black"/>
<path d="M221.751 211.826C218.907 223.552 216.571 233.358 216.578 233.678C216.589 234.159 248.612 225.748 256.911 223.155L258.858 222.516L242.858 206.525L226.858 190.533L221.751 211.826Z" fill="black"/>
<path d="M266.365 233.267C265.953 235.004 263.473 244.86 260.841 255.201C258.248 265.583 256.185 274.105 256.305 274.225C256.425 274.345 264.769 272.1 274.842 269.195C284.955 266.33 294.516 263.551 296.208 263.093L299.159 262.223L283.157 246.23L267.156 230.237L266.365 233.267Z" fill="black"/>
<path d="M306.48 272.374C304.115 280.899 296.554 313.758 297.025 313.759C297.338 313.759 306.893 311.168 318.318 308.018L339.064 302.357L323.064 286.365L307.064 270.373L306.48 272.374Z" fill="black"/>
<path d="M238.831 233.883C227.339 237.021 217.836 239.723 217.721 239.842C217.606 239.962 224.747 247.256 233.53 256.034L249.53 272.025L254.655 250.714C257.449 239.039 259.774 229.163 259.767 228.843C259.758 228.443 250.324 230.745 238.831 233.883Z" fill="black"/>
<path d="M296.406 270.038C294.108 270.633 284.529 273.25 275.183 275.788L258.127 280.468L274.127 296.46C282.91 305.237 290.204 312.372 290.319 312.252C290.587 311.973 300.569 270.448 300.627 269.568C300.618 269.168 298.743 269.404 296.406 270.038Z" fill="black"/>
<path d="M212.803 246.318C212.114 247.037 202.367 289.463 202.916 289.464C203.23 289.464 212.854 286.882 224.268 283.743L244.995 278.101L228.995 262.11C220.213 253.332 212.918 246.198 212.803 246.318Z" fill="black"/>
<path d="M247.514 306.806C244.681 318.522 242.355 328.399 242.363 328.719C242.373 329.199 283.76 318.395 284.412 317.716C284.526 317.596 277.385 310.302 268.603 301.525L252.602 285.533L247.514 306.806Z" fill="black"/>
<path d="M225.086 289.468L203.813 295.473L211.697 303.592C216.08 308.053 223.237 315.205 227.698 319.585L235.816 327.459L241.249 305.621C244.247 293.629 246.641 283.744 246.52 283.623C246.4 283.503 236.768 286.155 225.086 289.468Z" fill="black"/>
<path d="M198.522 301.307C197.952 302.804 187.821 344.809 187.982 344.97C188.143 345.131 229.069 333.904 230.523 333.291C230.759 333.209 223.719 325.854 214.834 316.974C205.949 308.094 198.597 301.064 198.522 301.307Z" fill="black"/>
<path d="M196.607 357.964C191.466 358.41 187.48 363.493 188.295 368.551C188.496 369.858 202.316 412.665 203.175 414.691C203.827 416.223 204.608 417.26 205.821 418.24C209.566 421.23 214.641 420.905 218.093 417.455C218.912 416.634 219.531 415.49 223.107 408.277C226.008 402.424 226.694 401.143 227.206 400.666C227.719 400.19 229.064 399.596 235.17 397.147C239.214 395.538 242.871 394.005 243.297 393.744C245.045 392.716 246.604 390.787 247.324 388.773C247.903 387.158 247.96 384.862 247.47 383.15C246.793 380.804 245.377 378.892 243.467 377.724C242.735 377.283 229.493 371.36 204.463 360.24C199.668 358.107 198.562 357.79 196.607 357.964ZM199.321 364.768C203.294 366.456 239.88 382.794 240.357 383.098C241.893 384.061 242.187 386.389 240.928 387.784C240.396 388.354 240.099 388.496 232.041 391.73C228.355 393.214 224.963 394.65 224.522 394.911C223.591 395.477 222.31 396.699 221.702 397.593C221.472 397.927 219.79 401.225 217.953 404.908C214.124 412.64 213.99 412.884 213.479 413.329C212.203 414.442 210.234 414.225 209.162 412.845C208.828 412.423 207.07 407.196 201.536 390.142C197.592 377.963 194.34 367.787 194.306 367.52C194.118 365.9 195.81 364.087 197.433 364.148C197.708 364.161 198.554 364.435 199.321 364.768Z" fill="black"/>
</g>
<g opacity="0.1">
<path d="M1731.12 639.444C1742.59 648.081 1770 667.665 1770.32 667.543C1770.63 667.421 1783.31 632.339 1788.41 617.295L1790.33 611.823L1758.61 624.087L1726.89 636.351L1731.12 639.444Z" fill="#FF5F64"/>
<path d="M1715.21 665.924C1709.86 680.627 1705.47 693.298 1705.38 693.956C1705.11 695.24 1706.96 694.596 1736.61 683.127C1757.03 675.224 1768.02 670.698 1767.91 670.321C1767.76 669.755 1726.94 640.071 1725.44 639.401C1725.06 639.272 1720.46 651.189 1715.21 665.924Z" fill="#0DAFC6"/>
<path d="M1787.03 643.784C1781.65 658.975 1777.35 671.71 1777.44 672.028C1777.54 672.409 1789.14 668.204 1809.09 660.486C1838.74 649.017 1840.55 648.246 1839.7 647.382C1838.93 646.488 1800.57 618.432 1798.13 616.854C1797.07 616.209 1795.46 619.988 1787.03 643.784Z" fill="white"/>
<path d="M1714.91 711.002C1715.56 711.799 1750.13 736.981 1755.97 741.021L1757.79 742.209L1767.18 715.694C1772.37 701.02 1776.94 688.267 1777.35 687.196L1778.09 685.371L1746.08 697.756C1715.89 709.432 1714.08 710.204 1714.91 711.002Z" fill="#FF5F64"/>
<path d="M1787.04 688.466C1787.9 689.046 1797.82 696.223 1809.2 704.526C1820.47 712.795 1829.81 719.427 1829.87 719.333C1830.4 718.357 1849.09 665.093 1849.33 664.018C1849.53 662.817 1847.52 663.523 1817.53 675.126L1785.55 687.499L1787.04 688.466Z" fill="#FDC300"/>
<path d="M1700.42 742.771L1690.53 770.43L1722.15 758.418C1739.54 751.764 1753.87 746.155 1753.99 745.967C1754.39 745.467 1711.41 714.617 1710.77 714.863C1710.55 715.019 1705.83 727.575 1700.42 742.771Z" fill="white"/>
<path d="M1845.07 695.816C1839.57 710.979 1835.28 723.508 1835.56 723.542C1835.75 723.606 1850.11 718.123 1867.47 711.343L1898.98 698.953L1877.47 683.433C1865.66 674.893 1855.71 668.006 1855.46 668.035C1855.14 668.158 1850.49 680.621 1845.07 695.816Z" fill="#0DAFC6"/>
<path d="M1721.37 800.293C1732.99 808.616 1742.74 815.526 1743.13 815.653C1743.7 815.843 1759.24 774.296 1762.78 763.355L1763.58 760.775L1731.91 773.011L1700.23 785.247L1721.37 800.293Z" fill="#FF5F64"/>
<path d="M1774.85 764.09C1776.57 765.302 1786.26 772.349 1796.41 779.779C1806.63 787.177 1815.08 793.174 1815.32 793.082C1815.55 792.99 1819.56 782.18 1824.17 769.048C1828.85 755.885 1833.2 743.411 1834.01 741.217L1835.33 737.362L1803.61 749.626L1771.89 761.89L1774.85 764.09Z" fill="white"/>
<path d="M1847.14 740.856C1855.35 747.259 1888.23 770.099 1888.6 769.54C1888.85 769.168 1893.39 756.737 1898.76 741.851L1908.58 714.846L1876.91 727.082L1845.23 739.319L1847.14 740.856Z" fill="black"/>
<path d="M1759.36 793.801C1753.93 808.762 1749.56 821.178 1749.61 821.365C1749.66 821.552 1763.98 816.157 1781.37 809.44L1813.04 797.204L1791.89 782.129C1780.29 773.887 1770.45 766.96 1770.07 766.833C1769.59 766.675 1764.8 778.841 1759.36 793.801Z" fill="#FDC300"/>
<path d="M1839.83 748.38C1838.7 751.358 1834.17 763.829 1829.73 775.99L1821.69 798.202L1853.37 785.966C1870.75 779.249 1885 773.605 1884.95 773.418C1884.84 772.982 1843.62 743.614 1842.63 743.173C1842.15 743.015 1840.93 745.34 1839.83 748.38Z" fill="black"/>
<path d="M1759.32 837.612C1759.62 838.733 1802.08 868.203 1802.52 867.552C1802.77 867.181 1807.38 854.671 1812.75 839.802L1822.58 812.828L1790.91 825.064C1773.52 831.78 1759.27 837.425 1759.32 837.612Z" fill="black"/>
<path d="M1852.37 828.84C1863.98 837.147 1873.82 844.075 1874.21 844.201C1874.78 844.391 1894.95 790.723 1894.66 789.664C1894.61 789.477 1880.29 794.873 1862.91 801.589L1831.23 813.825L1852.37 828.84Z" fill="black"/>
<path d="M1818.41 844.792L1808.53 872.472L1824.44 866.53C1833.23 863.203 1847.41 857.718 1856.16 854.266L1871.97 847.944L1850.45 832.405C1838.65 823.854 1828.85 816.896 1828.61 816.989C1828.37 817.081 1823.82 829.585 1818.41 844.792Z" fill="black"/>
<path d="M1818.03 887.932C1819.34 889.231 1861 918.745 1861.32 918.621C1861.63 918.498 1881.03 865.382 1881.47 863.405C1881.56 863.092 1867.23 868.355 1849.61 875.165C1832 881.975 1817.8 887.742 1818.03 887.932Z" fill="black"/>
</g>
</svg>
