<svg width="1920" height="2042" viewBox="0 0 1920 2042" fill="none" xmlns="http://www.w3.org/2000/svg">
<g opacity="0.05">
<path d="M1779.75 1151.3C1782.47 1146.38 1789.53 1146.38 1792.25 1151.3L1808.73 1181.09C1810.93 1185.07 1816.24 1186.01 1819.67 1183.02L1845.35 1160.66C1849.59 1156.97 1856.22 1159.39 1857.1 1164.94L1862.4 1198.57C1863.1 1203.06 1867.77 1205.76 1872.02 1204.12L1903.79 1191.9C1909.03 1189.88 1914.44 1194.42 1913.37 1199.93L1906.84 1233.35C1905.97 1237.81 1909.44 1241.94 1913.98 1241.86L1948.03 1241.24C1953.64 1241.13 1957.17 1247.25 1954.28 1252.06L1936.72 1281.23C1934.37 1285.13 1936.22 1290.19 1940.52 1291.67L1972.72 1302.73C1978.03 1304.55 1979.26 1311.51 1974.89 1315.04L1948.41 1336.45C1944.87 1339.3 1944.87 1344.7 1948.41 1347.55L1974.89 1368.96C1979.26 1372.49 1978.03 1379.45 1972.72 1381.27L1940.52 1392.33C1936.22 1393.8 1934.37 1398.87 1936.72 1402.77L1954.28 1431.94C1957.17 1436.75 1953.64 1442.87 1948.03 1442.76L1913.98 1442.14C1909.44 1442.06 1905.97 1446.19 1906.84 1450.65L1913.37 1484.07C1914.44 1489.58 1909.03 1494.12 1903.79 1492.1L1872.02 1479.87C1867.77 1478.24 1863.1 1480.94 1862.4 1485.43L1857.1 1519.06C1856.22 1524.61 1849.59 1527.03 1845.35 1523.34L1819.67 1500.98C1816.24 1497.99 1810.93 1498.93 1808.73 1502.91L1792.25 1532.7C1789.53 1537.62 1782.47 1537.62 1779.75 1532.7L1763.27 1502.91C1761.07 1498.93 1755.76 1497.99 1752.33 1500.98L1726.65 1523.34C1722.41 1527.03 1715.78 1524.61 1714.9 1519.06L1709.6 1485.43C1708.9 1480.94 1704.23 1478.24 1699.98 1479.87L1668.21 1492.1C1662.97 1494.12 1657.56 1489.58 1658.63 1484.07L1665.16 1450.65C1666.03 1446.19 1662.56 1442.06 1658.02 1442.14L1623.97 1442.76C1618.36 1442.87 1614.83 1436.75 1617.72 1431.94L1635.28 1402.77C1637.63 1398.87 1635.78 1393.8 1631.48 1392.33L1599.28 1381.27C1593.97 1379.45 1592.74 1372.49 1597.11 1368.96L1623.59 1347.55C1627.13 1344.7 1627.13 1339.3 1623.59 1336.45L1597.11 1315.04C1592.74 1311.51 1593.97 1304.55 1599.28 1302.73L1631.48 1291.67C1635.78 1290.19 1637.63 1285.13 1635.28 1281.23L1617.72 1252.06C1614.83 1247.25 1618.36 1241.13 1623.97 1241.24L1658.02 1241.86C1662.56 1241.94 1666.03 1237.81 1665.16 1233.35L1658.63 1199.93C1657.56 1194.42 1662.97 1189.88 1668.21 1191.9L1699.98 1204.12C1704.23 1205.76 1708.9 1203.06 1709.6 1198.57L1714.9 1164.94C1715.78 1159.39 1722.41 1156.97 1726.65 1160.66L1752.33 1183.02C1755.76 1186.01 1761.07 1185.07 1763.27 1181.09L1779.75 1151.3Z" fill="white"/>
<path d="M1849.39 1261.79C1846.25 1273.6 1839.47 1301.31 1839.63 1301.47C1839.79 1301.63 1866.79 1294.12 1878.28 1290.67L1882.48 1289.47L1866.48 1273.47L1850.48 1257.48L1849.39 1261.79Z" fill="black"/>
<path d="M1823.01 1262.38C1811.73 1265.52 1802.06 1268.37 1801.59 1268.62C1800.65 1269.03 1801.53 1269.98 1816.38 1284.83C1826.61 1295.05 1832.3 1300.42 1832.53 1300.18C1832.88 1299.82 1843.41 1258.44 1843.51 1257.11C1843.5 1256.79 1834.3 1259.15 1823.01 1262.38Z" fill="black"/>
<path d="M1862.37 1301.82C1850.74 1305.16 1841.05 1308.11 1840.85 1308.31C1840.62 1308.56 1846.23 1314.49 1856.23 1324.48C1871.08 1339.33 1872.04 1340.2 1872.42 1339.23C1872.85 1338.29 1882.85 1299.33 1883.34 1296.95C1883.53 1295.94 1880.57 1296.58 1862.37 1301.82Z" fill="black"/>
<path d="M1795.4 1274.37C1795.03 1275.17 1786.57 1309.87 1785.28 1315.64L1784.93 1317.4L1805.01 1311.86C1816.12 1308.79 1825.8 1306.15 1826.62 1305.96L1828.02 1305.64L1811.9 1289.52C1796.7 1274.33 1795.74 1273.45 1795.4 1274.37Z" fill="black"/>
<path d="M1835.34 1314.51C1835.16 1315.35 1832.77 1325.29 1829.97 1336.72C1827.17 1348.06 1825 1357.36 1825.08 1357.36C1825.87 1357.28 1866.17 1346.03 1866.95 1345.71C1867.8 1345.3 1866.84 1344.26 1851.73 1329.16L1835.63 1313.07L1835.34 1314.51Z" fill="black"/>
<path d="M1767.78 1278.33L1746.52 1284.33L1762.33 1300.36C1771.05 1309.16 1778.33 1316.35 1778.49 1316.35C1778.92 1316.39 1789.65 1272.86 1789.32 1272.54C1789.17 1272.46 1779.46 1275.03 1767.78 1278.33Z" fill="black"/>
<path d="M1847.91 1357.94C1836.23 1361.16 1826.65 1364.01 1826.69 1364.21C1826.7 1364.37 1833.89 1371.65 1842.7 1380.37L1858.73 1396.15L1864.15 1374.33C1867.15 1362.35 1869.45 1352.39 1869.37 1352.22C1869.21 1352.06 1859.59 1354.63 1847.91 1357.94Z" fill="black"/>
<path d="M1736.75 1310.83C1733.91 1322.55 1731.57 1332.36 1731.58 1332.68C1731.59 1333.16 1763.61 1324.75 1771.91 1322.15L1773.86 1321.52L1757.86 1305.52L1741.86 1289.53L1736.75 1310.83Z" fill="black"/>
<path d="M1781.37 1332.27C1780.95 1334 1778.47 1343.86 1775.84 1354.2C1773.25 1364.58 1771.19 1373.11 1771.31 1373.23C1771.43 1373.35 1779.77 1371.1 1789.84 1368.19C1799.95 1365.33 1809.52 1362.55 1811.21 1362.09L1814.16 1361.22L1798.16 1345.23L1782.16 1329.24L1781.37 1332.27Z" fill="black"/>
<path d="M1821.48 1371.37C1819.12 1379.9 1811.55 1412.76 1812.02 1412.76C1812.34 1412.76 1821.89 1410.17 1833.32 1407.02L1854.06 1401.36L1838.06 1385.36L1822.06 1369.37L1821.48 1371.37Z" fill="black"/>
<path d="M1753.83 1332.88C1742.34 1336.02 1732.84 1338.72 1732.72 1338.84C1732.61 1338.96 1739.75 1346.26 1748.53 1355.03L1764.53 1371.03L1769.65 1349.71C1772.45 1338.04 1774.77 1328.16 1774.77 1327.84C1774.76 1327.44 1765.32 1329.74 1753.83 1332.88Z" fill="black"/>
<path d="M1811.41 1369.04C1809.11 1369.63 1799.53 1372.25 1790.18 1374.79L1773.13 1379.47L1789.13 1395.46C1797.91 1404.24 1805.2 1411.37 1805.32 1411.25C1805.59 1410.97 1815.57 1369.45 1815.63 1368.57C1815.62 1368.17 1813.74 1368.4 1811.41 1369.04Z" fill="black"/>
<path d="M1727.8 1345.32C1727.11 1346.04 1717.37 1388.46 1717.92 1388.46C1718.23 1388.46 1727.85 1385.88 1739.27 1382.74L1760 1377.1L1744 1361.11C1735.21 1352.33 1727.92 1345.2 1727.8 1345.32Z" fill="black"/>
<path d="M1762.51 1405.81C1759.68 1417.52 1757.36 1427.4 1757.36 1427.72C1757.37 1428.2 1798.76 1417.39 1799.41 1416.72C1799.53 1416.6 1792.38 1409.3 1783.6 1400.52L1767.6 1384.53L1762.51 1405.81Z" fill="black"/>
<path d="M1740.09 1388.47L1718.81 1394.47L1726.7 1402.59C1731.08 1407.05 1738.24 1414.2 1742.7 1418.58L1750.82 1426.46L1756.25 1404.62C1759.25 1392.63 1761.64 1382.74 1761.52 1382.62C1761.4 1382.5 1751.77 1385.15 1740.09 1388.47Z" fill="black"/>
<path d="M1713.52 1400.31C1712.95 1401.8 1702.82 1443.81 1702.98 1443.97C1703.14 1444.13 1744.07 1432.9 1745.52 1432.29C1745.76 1432.21 1738.72 1424.85 1729.83 1415.97C1720.95 1407.09 1713.6 1400.06 1713.52 1400.31Z" fill="black"/>
<path d="M1711.61 1456.96C1706.47 1457.41 1702.48 1462.49 1703.29 1467.55C1703.5 1468.86 1717.32 1511.66 1718.18 1513.69C1718.83 1515.22 1719.61 1516.26 1720.82 1517.24C1724.57 1520.23 1729.64 1519.9 1733.09 1516.45C1733.91 1515.63 1734.53 1514.49 1738.11 1507.28C1741.01 1501.42 1741.69 1500.14 1742.21 1499.67C1742.72 1499.19 1744.06 1498.6 1750.17 1496.15C1754.21 1494.54 1757.87 1493 1758.3 1492.74C1760.05 1491.72 1761.6 1489.79 1762.32 1487.77C1762.9 1486.16 1762.96 1483.86 1762.47 1482.15C1761.79 1479.8 1760.38 1477.89 1758.47 1476.72C1757.74 1476.28 1744.49 1470.36 1719.46 1459.24C1714.67 1457.11 1713.56 1456.79 1711.61 1456.96ZM1714.32 1463.77C1718.29 1465.46 1754.88 1481.79 1755.36 1482.1C1756.89 1483.06 1757.19 1485.39 1755.93 1486.78C1755.4 1487.35 1755.1 1487.5 1747.04 1490.73C1743.35 1492.21 1739.96 1493.65 1739.52 1493.91C1738.59 1494.48 1737.31 1495.7 1736.7 1496.59C1736.47 1496.93 1734.79 1500.22 1732.95 1503.91C1729.12 1511.64 1728.99 1511.88 1728.48 1512.33C1727.2 1513.44 1725.23 1513.22 1724.16 1511.84C1723.83 1511.42 1722.07 1506.2 1716.54 1489.14C1712.59 1476.96 1709.34 1466.79 1709.31 1466.52C1709.12 1464.9 1710.81 1463.09 1712.43 1463.15C1712.71 1463.16 1713.55 1463.43 1714.32 1463.77Z" fill="black"/>
</g>
<rect opacity="0.08" y="427" width="1920" height="1615" fill="#0B0C0B"/>
<g opacity="0.15">
<path d="M170.937 600.18C167.033 613.848 158.461 645.79 158.612 645.923C158.764 646.057 186.57 631.117 198.424 624.477L202.751 622.11L187.53 608.656L172.31 595.202L170.937 600.18Z" fill="#FF5F64"/>
<path d="M144.756 606.678C133.114 612.961 123.122 618.516 122.631 618.902C121.653 619.586 122.482 620.41 136.606 632.894C146.337 641.496 151.768 645.932 152.019 645.608C152.397 645.122 165.689 597.224 165.875 595.75C165.891 595.4 156.402 600.308 144.756 606.678Z" fill="#0DAFC6"/>
<path d="M182.219 640.434C170.292 646.919 160.338 652.508 160.128 652.778C159.877 653.102 165.2 658.171 174.703 666.572C188.827 679.056 189.739 679.772 190.187 678.619C190.672 677.5 203.032 632.696 203.67 629.982C203.92 628.837 200.898 630.264 182.219 640.434Z" fill="#75D8AB"/>
<path d="M116.321 627.006C115.882 627.984 104.753 668.322 103.025 674.99L102.537 677.018L123.361 665.647C134.886 659.351 144.912 653.917 145.759 653.483L147.212 652.763L131.99 639.308C117.639 626.623 116.727 625.908 116.321 627.006Z" fill="#FF5F64"/>
<path d="M154.022 660.793C153.78 661.763 150.645 673.289 146.997 686.546C143.353 699.715 140.49 710.48 140.569 710.459C141.371 710.166 183.103 687.318 183.917 686.762C184.815 686.099 183.91 685.208 169.635 672.591L154.414 659.136L154.022 660.793Z" fill="#FDC300"/>
<path d="M87.8136 637.906L66.021 649.785L80.889 663.201C89.1012 670.551 95.9584 676.521 96.118 676.48C96.5547 676.41 110.178 626.442 109.875 626.174C109.72 626.128 99.7821 631.367 87.8136 637.906Z" fill="#75D8AB"/>
<path d="M163.867 704.955C151.903 711.407 142.071 716.921 142.1 717.129C142.092 717.304 148.866 723.383 157.162 730.625L172.281 743.716L179.156 718.651C182.946 704.882 185.917 693.485 185.845 693.331C185.694 693.197 175.836 698.415 163.867 704.955Z" fill="#0DAFC6"/>
<path d="M53.844 681.575C50.1 695.202 47.0115 706.585 46.9953 706.935C46.971 707.46 80.1442 689.798 88.7714 684.767L90.798 683.554L75.6913 670.201L60.5845 656.848L53.844 681.575Z" fill="#FF5F64"/>
<path d="M97.541 693.888C97.0153 695.882 93.8889 707.232 90.5786 719.149C87.3063 731.098 84.6854 740.892 84.799 740.993C84.9126 741.093 93.4778 736.553 103.83 730.862C114.221 725.204 124.049 719.778 125.786 718.855L128.82 717.166L113.675 703.779L98.5305 690.392L97.541 693.888Z" fill="#75D8AB"/>
<path d="M70.39 701.886C58.4638 708.371 48.594 713.852 48.4683 714.014C48.3425 714.176 55.0738 720.308 63.3655 727.637L78.4724 740.99L85.2548 716.209C88.957 702.636 92.0495 691.165 92.0657 690.815C92.0859 690.378 82.3162 695.4 70.39 701.886Z" fill="#FDC300"/>
</g>
<path d="M2081 283.799C2172.32 384.214 2079.45 513.126 1978.94 604.481C1878.43 695.836 1632.81 553.262 1541.48 452.847C1450.15 352.432 1687.46 485.866 1787.97 394.511C1888.48 303.156 1989.67 183.384 2081 283.799Z" fill="#FDC300"/>
<path d="M2107.24 372.103C2094.16 507.343 1973.9 606.426 1838.64 593.411C1703.37 580.396 1594.55 370.838 1607.63 235.598C1620.71 100.358 1730.72 297.606 1865.99 310.621C2001.25 323.636 2120.32 236.863 2107.24 372.103Z" fill="#FF5F64"/>
<path d="M2126.54 321.62C2155.26 454.284 2070.87 585.16 1938.05 613.939C1805.23 642.718 1664.08 396.308 1635.37 263.644C1606.65 130.98 1745.19 365.315 1878.01 336.536C2010.82 307.757 2097.83 188.956 2126.54 321.62Z" fill="#0DAFC6"/>
</svg>
