<svg width="1920" height="1273" viewBox="0 0 1920 1273" fill="none" xmlns="http://www.w3.org/2000/svg">
<rect y="77" width="1920" height="1128" fill="#F6F6F6"/>
<g opacity="0.05">
<path d="M1637.38 1124.88C1628.73 1121.26 1618.15 1126.13 1615.32 1135.03C1614.57 1137.33 1601.79 1218.51 1601.52 1222.53C1601.31 1225.57 1601.72 1227.92 1602.88 1230.53C1606.46 1238.56 1614.9 1242.32 1623.29 1239.64C1625.28 1239 1627.21 1237.67 1638.88 1228.98C1648.34 1221.94 1650.5 1220.44 1651.71 1220.1C1652.93 1219.76 1655.58 1219.93 1667.42 1221.12C1675.25 1221.93 1682.4 1222.54 1683.3 1222.48C1686.96 1222.29 1691.05 1220.47 1693.86 1217.81C1696.11 1215.68 1698.08 1212 1698.7 1208.81C1699.53 1204.43 1698.81 1200.12 1696.69 1196.61C1695.87 1195.28 1679.39 1174.46 1648.17 1135.22C1642.19 1127.7 1640.67 1126.25 1637.38 1124.88ZM1636.18 1138.22C1641.2 1144.33 1686.76 1201.81 1687.28 1202.7C1688.97 1205.57 1687.53 1209.6 1684.36 1210.8C1683.04 1211.27 1682.44 1211.25 1666.82 1209.68C1659.66 1208.97 1653.02 1208.43 1652.1 1208.48C1650.14 1208.62 1647.07 1209.51 1645.36 1210.45C1644.72 1210.8 1639.31 1214.73 1633.33 1219.15C1620.83 1228.47 1620.42 1228.75 1619.23 1229.04C1616.26 1229.77 1613.27 1227.75 1612.67 1224.6C1612.48 1223.63 1613.93 1213.66 1618.98 1181.29C1622.59 1158.18 1625.68 1138.91 1625.85 1138.45C1626.87 1135.66 1631.08 1134.15 1633.64 1135.62C1634.08 1135.87 1635.22 1137.03 1636.18 1138.22Z" fill="black"/>
</g>
<g opacity="0.05">
<path d="M196.427 136.426C192.544 150.637 184.13 183.993 184.321 184.182C184.511 184.372 217.087 175.095 230.959 170.837L236.025 169.346L216.904 150.292L197.783 131.238L196.427 136.426Z" fill="black"/>
<path d="M168.979 140.625C155.348 144.493 143.659 147.994 143.092 148.292C141.957 148.792 143.009 149.935 160.822 167.686C173.095 179.916 179.922 186.335 180.204 186.041C180.628 185.601 193.605 135.728 193.736 134.133C193.733 133.746 182.609 136.66 168.979 140.625Z" fill="black"/>
<path d="M208.671 179.66C194.625 183.765 182.913 187.388 182.675 187.635C182.39 187.932 189.124 195.03 201.111 206.975C218.924 224.725 220.07 225.771 220.544 224.597C221.065 223.471 233.392 176.512 234.004 173.637C234.24 172.42 230.668 173.217 208.671 179.66Z" fill="black"/>
<path d="M142.037 148.108C141.578 149.073 131.075 190.841 129.474 197.777L129.032 199.896L153.263 193.043C166.672 189.247 178.342 185.992 179.33 185.744L181.025 185.348L161.759 166.149C143.595 148.049 142.446 146.999 142.037 148.108Z" fill="black"/>
<path d="M182.427 187.976C182.203 188.989 179.231 200.954 175.761 214.704C172.29 228.358 169.593 239.55 169.687 239.549C170.632 239.445 219.257 225.534 220.198 225.14C221.232 224.65 220.082 223.408 202.031 205.421L182.783 186.24L182.427 187.976Z" fill="black"/>
<path d="M113.012 156.556L87.3602 163.963L106.241 183.067C116.667 193.552 125.361 202.12 125.552 202.117C126.076 202.158 139.383 149.771 138.998 149.388C138.807 149.293 127.098 152.471 113.012 156.556Z" fill="black"/>
<path d="M193.918 236.27C179.83 240.259 168.267 243.774 168.317 244.016C168.318 244.21 176.917 252.876 187.437 263.263L206.602 282.071L213.326 255.804C217.037 241.378 219.907 229.393 219.81 229.2C219.618 229.009 208.004 232.185 193.918 236.27Z" fill="black"/>
<path d="M82.327 189.025C78.9471 202.984 76.1704 214.656 76.1792 215.037C76.1923 215.609 114.41 205.626 124.314 202.547L126.638 201.789L107.517 182.734L88.3965 163.68L82.327 189.025Z" fill="black"/>
<path d="M127.804 206.887C127.292 208.977 124.216 220.84 120.953 233.288C117.738 245.783 115.177 256.041 115.321 256.184C115.464 256.327 125.53 253.548 137.684 249.96C149.886 246.42 161.423 242.988 163.464 242.422L167.025 241.347L147.904 222.293L128.783 203.239L127.804 206.887Z" fill="black"/>
<path d="M167.702 246.062C164.89 256.209 155.905 295.323 156.467 295.324C156.841 295.325 168.244 292.249 181.879 288.509L206.638 281.789L187.517 262.734L168.397 243.68L167.702 246.062Z" fill="black"/>
<path d="M99.6219 210.817C85.9064 214.542 74.5651 217.749 74.428 217.892C74.291 218.034 82.8257 226.725 93.3206 237.184L112.441 256.238L118.532 230.87C121.853 216.973 124.617 205.217 124.608 204.836C124.596 204.36 113.337 207.092 99.6219 210.817Z" fill="black"/>
<path d="M159.883 246.748C157.14 247.454 145.708 250.561 134.554 253.574L114.2 259.129L133.321 278.183C143.815 288.642 152.533 297.143 152.67 297C152.989 296.668 164.853 247.24 164.921 246.193C164.91 245.716 162.671 245.995 159.883 246.748Z" fill="black"/>
<path d="M74.1682 219.918C73.3461 220.773 61.7638 271.274 62.419 271.276C62.7933 271.277 74.2792 268.212 87.9019 264.486L112.638 257.789L93.5174 238.734C83.0225 228.276 74.3052 219.775 74.1682 219.918Z" fill="black"/>
<path d="M107.349 284.002C103.982 297.948 101.218 309.705 101.227 310.086C101.24 310.657 150.633 297.834 151.41 297.026C151.547 296.884 143.012 288.193 132.517 277.734L113.397 258.68L107.349 284.002Z" fill="black"/>
<path d="M86.0447 266.523L60.3774 273.945L69.7958 283.619C75.0331 288.935 83.5847 297.457 88.9167 302.673L98.6193 312.053L105.358 285.769C109.076 271.334 112.048 259.437 111.904 259.293C111.76 259.149 100.14 262.429 86.0447 266.523Z" fill="black"/>
<path d="M60.4062 273.633C59.7068 275.436 47.1285 325.992 47.3206 326.183C47.5128 326.375 96.8902 312.49 98.6465 311.739C98.9314 311.638 90.5211 302.873 79.9041 292.293C69.2871 281.713 60.499 273.34 60.4062 273.633Z" fill="black"/>
<path d="M53.0659 335.621C47.8736 336.07 43.8488 341.181 44.672 346.268C44.8759 347.583 58.8342 390.636 59.7022 392.674C60.3604 394.215 61.1495 395.258 62.3747 396.243C66.1566 399.251 71.2815 398.925 74.7675 395.455C75.5946 394.629 76.2195 393.479 79.83 386.225C82.7594 380.338 83.4525 379.05 83.9697 378.571C84.4868 378.092 85.8455 377.495 92.0115 375.031C96.0952 373.414 99.7884 371.872 100.218 371.609C101.984 370.575 103.558 368.636 104.285 366.61C104.869 364.986 104.927 362.677 104.432 360.955C103.748 358.596 102.318 356.673 100.389 355.497C99.65 355.054 86.2767 349.097 60.9993 337.911C56.1564 335.766 55.0404 335.446 53.0659 335.621ZM55.8073 342.465C59.8187 344.162 96.7672 360.596 97.2489 360.902C98.8001 361.871 99.0969 364.212 97.8257 365.616C97.2888 366.188 96.9881 366.331 88.8509 369.583C85.129 371.076 81.7035 372.52 81.258 372.782C80.3187 373.351 79.0244 374.58 78.4108 375.48C78.1788 375.815 76.4805 379.132 74.6253 382.836C70.7588 390.612 70.6239 390.858 70.1081 391.305C68.8188 392.424 66.8311 392.206 65.7478 390.818C65.4109 390.393 63.6353 385.136 58.0457 367.984C54.0619 355.735 50.7769 345.5 50.7426 345.231C50.5529 343.603 52.2612 341.78 53.8999 341.841C54.178 341.854 55.0327 342.13 55.8073 342.465Z" fill="black"/>
</g>
</svg>
