<svg width="375" height="832" viewBox="0 0 375 832" fill="none" xmlns="http://www.w3.org/2000/svg">
<rect y="90" width="375" height="742" fill="white"/>
<g opacity="0.1">
<path d="M46.9119 375.782C49.0896 376.318 54.2996 377.446 54.3627 377.409C54.4257 377.371 57.2201 371.446 58.3514 368.927L58.7766 368.007L52.4424 371.802L46.1082 375.598L46.9119 375.782Z" fill="#FF5F64"/>
<path d="M43.7643 379.288C42.5869 381.782 41.6127 383.919 41.59 384.021C41.5261 384.226 41.8941 384.015 47.8171 380.455C51.898 378.002 54.0941 376.643 54.0774 376.594C54.0524 376.521 46.2934 374.754 46.0052 374.75C45.9306 374.756 44.9231 376.795 43.7643 379.288Z" fill="#0DAFC6"/>
<path d="M57.7047 374.986C56.5143 377.554 55.5602 379.694 55.5742 379.735C55.5911 379.784 57.9048 378.433 61.8904 376.038C67.8134 372.478 68.1758 372.25 68.0169 372.177C67.874 372.095 60.5835 370.411 60.1172 370.334C59.9164 370.306 59.5662 370.963 57.7047 374.986Z" fill="white"/>
<path d="M43.7746 390.048C43.8961 390.123 50.4667 391.627 51.5779 391.85L51.924 391.91L53.9991 387.425C55.1467 384.943 56.1548 382.782 56.2456 382.599L56.4067 382.284L50.0112 386.13C43.9815 389.755 43.6184 389.983 43.7746 390.048Z" fill="#FF5F64"/>
<path d="M57.7794 385.605C57.9431 385.636 59.8305 386.06 61.9919 386.557C64.1346 387.056 65.9116 387.437 65.9247 387.42C66.0368 387.243 70.1705 378.245 70.2265 378.072C70.277 377.883 69.8768 378.113 63.8846 381.716L57.4951 385.558L57.7794 385.605Z" fill="#FDC300"/>
<path d="M40.8819 394.147L38.7009 398.811L45.0111 395.059C48.4831 392.988 51.3448 391.263 51.371 391.228C51.4526 391.13 43.2829 389.341 43.1556 389.418C43.1106 389.454 42.0761 391.586 40.8819 394.147Z" fill="white"/>
<path d="M68.9625 385.054C67.7495 387.616 66.8002 389.716 66.8535 389.704C66.8909 389.701 69.7582 387.993 73.2246 385.906L79.518 382.105L75.429 381.198C73.1859 380.697 71.2923 380.32 71.2418 380.341C71.1781 380.379 70.1567 382.493 68.9625 385.054Z" fill="#0DAFC6"/>
<path d="M44.9514 405.326C47.1593 405.803 49.0123 406.193 49.0867 406.187C49.1983 406.179 52.6078 399.161 53.397 397.348L53.5753 396.922L47.2543 400.697L40.9333 404.472L44.9514 405.326Z" fill="#FF5F64"/>
<path d="M55.4054 400.103C55.734 400.171 57.5753 400.588 59.5023 401.031C61.4452 401.466 63.051 401.808 63.0985 401.779C63.146 401.751 64.0263 399.919 65.0448 397.71C66.079 395.492 67.0406 393.395 67.2187 393.024L67.5125 392.377L61.1783 396.173L54.844 399.969L55.4054 400.103Z" fill="white"/>
<path d="M69.4421 395.659C70.9976 396.072 77.2518 397.319 77.3303 397.214C77.3827 397.144 78.3812 395.051 79.5636 392.55L81.7239 388.006L75.4029 391.781L69.0818 395.556L69.4421 395.659Z" fill="black"/>
<path d="M52.3292 404.084C51.1329 406.601 50.1682 408.681 50.1764 408.705C50.1847 408.729 53.0418 407.042 56.5112 404.97L62.8322 401.195L58.8128 400.338C56.6085 399.871 54.7375 399.484 54.6632 399.49C54.5702 399.498 53.5255 401.567 52.3292 404.084Z" fill="#FDC300"/>
<path d="M68.1572 395.804C67.9105 396.308 66.9137 398.406 65.9377 400.453L64.1675 404.188L70.4885 400.413C73.9579 398.341 76.804 396.622 76.7958 396.598C76.7765 396.542 68.9441 394.872 68.7526 394.871C68.6597 394.878 68.4013 395.292 68.1572 395.804Z" fill="black"/>
<path d="M52.4005 414.617C52.4501 414.761 60.5278 416.367 60.6194 416.245C60.6718 416.175 61.684 414.066 62.8672 411.567L65.0288 407.027L58.7078 410.802C55.2384 412.874 52.3923 414.593 52.4005 414.617Z" fill="black"/>
<path d="M70.381 410.87C72.5881 411.345 74.4591 411.732 74.5335 411.726C74.6451 411.717 79.0668 402.646 79.02 402.51C79.0117 402.486 76.1546 404.173 72.6852 406.245L66.3642 410.02L70.381 410.87Z" fill="black"/>
<path d="M63.7874 413.955L61.607 418.621L64.7824 416.748C66.5359 415.707 69.3688 414.009 71.1167 412.952L74.2754 411.03L70.1852 410.121C67.9415 409.618 66.0791 409.221 66.0314 409.25C65.9837 409.278 64.9813 411.392 63.7874 413.955Z" fill="black"/>
<path d="M63.7964 424.404C64.0438 424.511 71.9647 426.188 72.0283 426.15C72.092 426.112 76.3616 417.129 76.4643 416.813C76.485 416.762 73.6252 418.436 70.1081 420.544C66.591 422.651 63.7534 424.391 63.7964 424.404Z" fill="black"/>
</g>
<g opacity="0.05">
<path d="M307.986 98.8377C308.861 97.2567 311.134 97.2567 312.008 98.8377L317.312 108.424C318.02 109.705 319.729 110.006 320.832 109.045L329.094 101.85C330.457 100.664 332.593 101.441 332.874 103.226L334.579 114.048C334.807 115.494 336.309 116.361 337.675 115.836L347.899 111.901C349.586 111.252 351.327 112.713 350.981 114.486L348.881 125.239C348.601 126.675 349.716 128.004 351.179 127.977L362.133 127.777C363.939 127.744 365.076 129.712 364.144 131.26L358.493 140.647C357.739 141.9 358.332 143.53 359.716 144.006L370.078 147.564C371.787 148.151 372.181 150.389 370.776 151.525L362.256 158.412C361.118 159.332 361.118 161.067 362.256 161.987L370.776 168.875C372.181 170.01 371.787 172.249 370.078 172.836L359.716 176.394C358.332 176.869 357.739 178.499 358.493 179.753L364.144 189.139C365.076 190.687 363.939 192.655 362.133 192.622L351.179 192.422C349.716 192.395 348.601 193.724 348.881 195.16L350.981 205.913C351.327 207.686 349.586 209.147 347.899 208.498L337.675 204.564C336.309 204.038 334.807 204.905 334.579 206.351L332.874 217.173C332.593 218.958 330.457 219.735 329.094 218.549L320.832 211.354C319.729 210.393 318.02 210.695 317.312 211.975L312.008 221.562C311.134 223.143 308.861 223.143 307.986 221.562L302.683 211.975C301.974 210.695 300.266 210.393 299.162 211.354L290.9 218.549C289.537 219.735 287.402 218.958 287.12 217.173L285.416 206.351C285.188 204.905 283.686 204.038 282.32 204.564L272.095 208.498C270.409 209.147 268.668 207.686 269.014 205.913L271.114 195.16C271.394 193.724 270.279 192.395 268.816 192.422L257.862 192.622C256.055 192.655 254.919 190.687 255.851 189.139L261.501 179.753C262.256 178.499 261.663 176.869 260.279 176.394L249.917 172.836C248.208 172.249 247.813 170.01 249.218 168.875L257.738 161.987C258.876 161.067 258.876 159.332 257.738 158.412L249.218 151.525C247.813 150.389 248.208 148.151 249.917 147.564L260.279 144.006C261.663 143.53 262.256 141.9 261.501 140.647L255.851 131.26C254.919 129.712 256.055 127.744 257.862 127.777L268.816 127.977C270.279 128.004 271.394 126.675 271.114 125.239L269.014 114.486C268.668 112.713 270.409 111.252 272.095 111.901L282.32 115.836C283.686 116.361 285.188 115.494 285.416 114.048L287.12 103.226C287.402 101.441 289.537 100.664 290.9 101.85L299.162 109.045C300.266 110.006 301.974 109.705 302.683 108.424L307.986 98.8377Z" fill="white"/>
<path d="M330.383 134.387C329.378 138.172 327.207 147.06 327.259 147.112C327.31 147.163 335.994 144.837 339.692 143.764L341.042 143.389L335.888 138.197L330.734 133.004L330.383 134.387Z" fill="black"/>
<path d="M321.904 134.56C318.275 135.535 315.164 136.421 315.013 136.498C314.711 136.627 314.994 136.937 319.778 141.757C323.074 145.078 324.907 146.822 324.982 146.745C325.094 146.629 328.464 133.357 328.496 132.932C328.495 132.828 325.533 133.559 321.904 134.56Z" fill="black"/>
<path d="M334.567 147.25C330.828 148.287 327.71 149.205 327.647 149.27C327.572 149.348 329.381 151.274 332.6 154.517C337.384 159.337 337.692 159.621 337.816 159.31C337.953 159.011 341.155 146.515 341.314 145.75C341.374 145.426 340.423 145.623 334.567 147.25Z" fill="black"/>
<path d="M313.012 138.436C312.892 138.692 310.182 149.822 309.77 151.671L309.657 152.236L316.117 150.518C319.692 149.567 322.803 148.752 323.066 148.69L323.519 148.592L318.325 143.36C313.429 138.428 313.119 138.141 313.012 138.436Z" fill="black"/>
<path d="M325.863 151.353C325.806 151.623 325.039 154.811 324.144 158.475C323.248 162.114 322.553 165.096 322.578 165.097C322.831 165.073 335.793 161.584 336.044 161.483C336.319 161.357 336.009 161.019 331.143 156.117L325.954 150.89L325.863 151.353Z" fill="black"/>
<path d="M304.133 139.691L297.295 141.55L302.386 146.755C305.196 149.612 307.539 151.947 307.59 151.947C307.731 151.961 311.165 138.001 311.062 137.897C311.01 137.871 307.888 138.665 304.133 139.691Z" fill="black"/>
<path d="M329.915 165.304C326.16 166.304 323.078 167.189 323.091 167.254C323.092 167.306 325.411 169.667 328.246 172.498L333.412 177.625L335.148 170.626C336.106 166.783 336.845 163.588 336.818 163.536C336.767 163.484 333.67 164.278 329.915 165.304Z" fill="black"/>
<path d="M294.148 150.146C293.237 153.906 292.489 157.051 292.491 157.154C292.495 157.309 302.795 154.707 305.464 153.9L306.09 153.701L300.937 148.509L295.783 143.318L294.148 150.146Z" fill="black"/>
<path d="M308.496 157.065C308.364 157.622 307.57 160.783 306.727 164.099C305.897 167.428 305.236 170.162 305.275 170.201C305.313 170.24 307.997 169.544 311.237 168.642C314.489 167.754 317.565 166.89 318.109 166.749L319.058 166.478L313.904 161.286L308.749 156.093L308.496 157.065Z" fill="black"/>
<path d="M321.403 169.649C320.646 172.382 318.225 182.92 318.377 182.922C318.478 182.923 321.551 182.121 325.226 181.144L331.898 179.391L326.744 174.199L321.591 169.007L321.403 169.649Z" fill="black"/>
<path d="M299.644 157.244C295.947 158.216 292.891 159.054 292.854 159.092C292.817 159.131 295.117 161.498 297.946 164.348L303.1 169.539L304.741 162.705C305.635 158.961 306.38 155.793 306.377 155.69C306.374 155.562 303.34 156.272 299.644 157.244Z" fill="black"/>
<path d="M318.167 168.933C317.428 169.117 314.347 169.928 311.341 170.714L305.855 172.164L311.009 177.355C313.838 180.205 316.188 182.521 316.224 182.483C316.311 182.394 319.507 169.078 319.525 168.795C319.522 168.667 318.919 168.737 318.167 168.933Z" fill="black"/>
<path d="M291.261 161.266C291.039 161.495 287.919 175.102 288.095 175.104C288.196 175.106 291.292 174.306 294.963 173.333L301.63 171.586L296.476 166.394C293.647 163.545 291.298 161.228 291.261 161.266Z" fill="black"/>
<path d="M302.438 180.708C301.53 184.465 300.786 187.632 300.788 187.735C300.792 187.89 314.104 184.548 314.313 184.332C314.35 184.294 312.049 181.927 309.22 179.077L304.067 173.886L302.438 180.708Z" fill="black"/>
<path d="M295.221 175.128L288.379 176.991L290.918 179.626C292.33 181.074 294.635 183.397 296.072 184.819L298.687 187.376L300.427 180.373C301.387 176.527 302.154 173.357 302.115 173.317C302.076 173.278 298.978 174.1 295.221 175.128Z" fill="black"/>
<path d="M286.665 178.96C286.483 179.439 283.238 192.912 283.29 192.964C283.342 193.016 296.506 189.537 296.973 189.345C297.049 189.319 294.781 186.932 291.919 184.049C289.057 181.166 286.689 178.882 286.665 178.96Z" fill="black"/>
<path d="M286.06 197.192C284.406 197.335 283.123 198.971 283.385 200.598C283.45 201.019 287.897 214.793 288.173 215.445C288.383 215.937 288.635 216.271 289.025 216.586C290.23 217.549 291.863 217.444 292.974 216.334C293.237 216.07 293.436 215.702 294.587 213.381C295.52 211.497 295.741 211.085 295.906 210.932C296.071 210.779 296.504 210.588 298.468 209.799C299.77 209.282 300.946 208.789 301.083 208.704C301.646 208.374 302.148 207.753 302.379 207.105C302.565 206.585 302.584 205.846 302.426 205.296C302.208 204.541 301.753 203.926 301.138 203.55C300.903 203.408 296.642 201.502 288.588 197.924C287.045 197.238 286.689 197.136 286.06 197.192ZM286.933 199.381C288.212 199.924 299.984 205.181 300.137 205.279C300.632 205.589 300.726 206.338 300.321 206.787C300.15 206.97 300.054 207.016 297.461 208.056C296.276 208.534 295.184 208.996 295.042 209.08C294.743 209.262 294.33 209.655 294.135 209.943C294.061 210.05 293.52 211.112 292.929 212.297C291.696 214.785 291.653 214.863 291.489 215.006C291.078 215.365 290.445 215.295 290.1 214.851C289.992 214.715 289.427 213.033 287.646 207.545C286.377 203.627 285.331 200.352 285.32 200.266C285.259 199.745 285.804 199.162 286.326 199.181C286.414 199.186 286.687 199.274 286.933 199.381Z" fill="black"/>
</g>
</svg>
