<svg width="343" height="66" viewBox="0 0 343 66" fill="none" xmlns="http://www.w3.org/2000/svg">
<path d="M34.0043 48H29.5243L4.75625 10.368V48H0.27625V3.264H4.75625L29.5243 40.832V3.264H34.0043V48ZM59.4473 48.512C56.1619 48.512 53.1966 47.7867 50.5513 46.336C47.9486 44.8427 45.8793 42.752 44.3433 40.064C42.8499 37.3333 42.1033 34.1547 42.1033 30.528C42.1033 26.9013 42.8713 23.744 44.4073 21.056C45.9433 18.3253 48.0339 16.2347 50.6793 14.784C53.3246 13.2907 56.2899 12.544 59.5753 12.544C62.8606 12.544 65.8259 13.2907 68.4713 14.784C71.1593 16.2347 73.2499 18.3253 74.7433 21.056C76.2793 23.744 77.0473 26.9013 77.0473 30.528C77.0473 34.112 76.2793 37.2693 74.7433 40C73.2073 42.7307 71.0953 44.8427 68.4073 46.336C65.7193 47.7867 62.7326 48.512 59.4473 48.512ZM59.4473 44.608C61.7513 44.608 63.8846 44.096 65.8473 43.072C67.8099 42.0053 69.3886 40.4267 70.5833 38.336C71.8206 36.2027 72.4393 33.6 72.4393 30.528C72.4393 27.456 71.8419 24.8747 70.6473 22.784C69.4526 20.6507 67.8739 19.072 65.9113 18.048C63.9486 16.9813 61.8153 16.448 59.5113 16.448C57.2073 16.448 55.0739 16.9813 53.1113 18.048C51.1486 19.072 49.5699 20.6507 48.3753 22.784C47.2233 24.8747 46.6473 27.456 46.6473 30.528C46.6473 33.6 47.2233 36.2027 48.3753 38.336C49.5699 40.4267 51.1273 42.0053 53.0473 43.072C55.0099 44.096 57.1433 44.608 59.4473 44.608ZM97.2458 48.512C93.2351 48.512 89.9498 47.5947 87.3898 45.76C84.8724 43.8827 83.4644 41.344 83.1658 38.144H87.7738C87.9871 40.1067 88.9044 41.7067 90.5258 42.944C92.1898 44.1387 94.4084 44.736 97.1818 44.736C99.6138 44.736 101.512 44.16 102.878 43.008C104.286 41.856 104.99 40.4267 104.99 38.72C104.99 37.5253 104.606 36.544 103.838 35.776C103.07 35.008 102.088 34.4107 100.894 33.984C99.7418 33.5147 98.1631 33.024 96.1578 32.512C93.5551 31.8293 91.4431 31.1467 89.8218 30.464C88.2004 29.7813 86.8138 28.7787 85.6618 27.456C84.5524 26.0907 83.9978 24.2773 83.9978 22.016C83.9978 20.3093 84.5098 18.7307 85.5338 17.28C86.5578 15.8293 88.0084 14.6773 89.8858 13.824C91.7631 12.9707 93.8964 12.544 96.2858 12.544C100.04 12.544 103.07 13.504 105.374 15.424C107.678 17.3013 108.915 19.904 109.086 23.232H104.606C104.478 21.184 103.667 19.5413 102.174 18.304C100.723 17.024 98.7178 16.384 96.1578 16.384C93.8964 16.384 92.0618 16.9173 90.6538 17.984C89.2458 19.0507 88.5417 20.3733 88.5417 21.952C88.5417 23.3173 88.9471 24.448 89.7578 25.344C90.6111 26.1973 91.6564 26.88 92.8938 27.392C94.1311 27.8613 95.7951 28.3947 97.8858 28.992C100.403 29.6747 102.408 30.336 103.902 30.976C105.395 31.616 106.675 32.5547 107.742 33.792C108.808 35.0293 109.363 36.672 109.406 38.72C109.406 40.5973 108.894 42.2827 107.87 43.776C106.846 45.2267 105.416 46.3787 103.582 47.232C101.747 48.0853 99.6351 48.512 97.2458 48.512ZM129.871 48.512C125.86 48.512 122.575 47.5947 120.015 45.76C117.497 43.8827 116.089 41.344 115.791 38.144H120.399C120.612 40.1067 121.529 41.7067 123.151 42.944C124.815 44.1387 127.033 44.736 129.807 44.736C132.239 44.736 134.137 44.16 135.503 43.008C136.911 41.856 137.615 40.4267 137.615 38.72C137.615 37.5253 137.231 36.544 136.463 35.776C135.695 35.008 134.713 34.4107 133.519 33.984C132.367 33.5147 130.788 33.024 128.783 32.512C126.18 31.8293 124.068 31.1467 122.447 30.464C120.825 29.7813 119.439 28.7787 118.287 27.456C117.177 26.0907 116.623 24.2773 116.623 22.016C116.623 20.3093 117.135 18.7307 118.159 17.28C119.183 15.8293 120.633 14.6773 122.511 13.824C124.388 12.9707 126.521 12.544 128.911 12.544C132.665 12.544 135.695 13.504 137.999 15.424C140.303 17.3013 141.54 19.904 141.711 23.232H137.231C137.103 21.184 136.292 19.5413 134.799 18.304C133.348 17.024 131.343 16.384 128.783 16.384C126.521 16.384 124.687 16.9173 123.279 17.984C121.871 19.0507 121.167 20.3733 121.167 21.952C121.167 23.3173 121.572 24.448 122.383 25.344C123.236 26.1973 124.281 26.88 125.519 27.392C126.756 27.8613 128.42 28.3947 130.511 28.992C133.028 29.6747 135.033 30.336 136.527 30.976C138.02 31.616 139.3 32.5547 140.367 33.792C141.433 35.0293 141.988 36.672 142.031 38.72C142.031 40.5973 141.519 42.2827 140.495 43.776C139.471 45.2267 138.041 46.3787 136.207 47.232C134.372 48.0853 132.26 48.512 129.871 48.512ZM165.76 48.512C162.474 48.512 159.509 47.7867 156.864 46.336C154.261 44.8427 152.192 42.752 150.656 40.064C149.162 37.3333 148.416 34.1547 148.416 30.528C148.416 26.9013 149.184 23.744 150.72 21.056C152.256 18.3253 154.346 16.2347 156.992 14.784C159.637 13.2907 162.602 12.544 165.888 12.544C169.173 12.544 172.138 13.2907 174.784 14.784C177.472 16.2347 179.562 18.3253 181.056 21.056C182.592 23.744 183.36 26.9013 183.36 30.528C183.36 34.112 182.592 37.2693 181.056 40C179.52 42.7307 177.408 44.8427 174.72 46.336C172.032 47.7867 169.045 48.512 165.76 48.512ZM165.76 44.608C168.064 44.608 170.197 44.096 172.16 43.072C174.122 42.0053 175.701 40.4267 176.896 38.336C178.133 36.2027 178.752 33.6 178.752 30.528C178.752 27.456 178.154 24.8747 176.96 22.784C175.765 20.6507 174.186 19.072 172.224 18.048C170.261 16.9813 168.128 16.448 165.824 16.448C163.52 16.448 161.386 16.9813 159.424 18.048C157.461 19.072 155.882 20.6507 154.688 22.784C153.536 24.8747 152.96 27.456 152.96 30.528C152.96 33.6 153.536 36.2027 154.688 38.336C155.882 40.4267 157.44 42.0053 159.36 43.072C161.322 44.096 163.456 44.608 165.76 44.608Z" fill="black"/>
<path d="M230.817 24.768C233.548 25.408 235.66 26.7307 237.153 28.736C238.689 30.6987 239.457 32.9813 239.457 35.584C239.457 39.552 238.135 42.624 235.489 44.8C232.887 46.9333 229.132 48 224.225 48H200.481V2.688H223.585C228.193 2.688 231.82 3.69067 234.465 5.696C237.111 7.70133 238.433 10.624 238.433 14.464C238.433 17.1093 237.729 19.3493 236.321 21.184C234.956 22.976 233.121 24.1707 230.817 24.768ZM214.689 20.352H220.193C221.473 20.352 222.412 20.096 223.009 19.584C223.649 19.072 223.969 18.2827 223.969 17.216C223.969 16.1067 223.649 15.296 223.009 14.784C222.412 14.2293 221.473 13.952 220.193 13.952H214.689V20.352ZM221.153 36.608C222.433 36.608 223.372 36.3733 223.969 35.904C224.609 35.392 224.929 34.5813 224.929 33.472C224.929 31.296 223.671 30.208 221.153 30.208H214.689V36.608H221.153ZM258.439 0.639999V48H244.231V0.639999H258.439ZM282.008 48.448C278.382 48.448 275.118 47.7013 272.216 46.208C269.315 44.7147 267.032 42.5813 265.368 39.808C263.747 36.992 262.936 33.7067 262.936 29.952C262.936 26.1973 263.747 22.9333 265.368 20.16C267.032 17.344 269.315 15.1893 272.216 13.696C275.118 12.2027 278.382 11.456 282.008 11.456C285.635 11.456 288.899 12.2027 291.8 13.696C294.702 15.1893 296.963 17.344 298.584 20.16C300.248 22.9333 301.08 26.1973 301.08 29.952C301.08 33.7067 300.248 36.992 298.584 39.808C296.963 42.5813 294.702 44.7147 291.8 46.208C288.899 47.7013 285.635 48.448 282.008 48.448ZM282.008 36.16C283.331 36.16 284.44 35.648 285.336 34.624C286.232 33.5573 286.68 32 286.68 29.952C286.68 27.904 286.232 26.368 285.336 25.344C284.44 24.2773 283.331 23.744 282.008 23.744C280.686 23.744 279.576 24.2773 278.68 25.344C277.784 26.368 277.336 27.904 277.336 29.952C277.336 32 277.763 33.5573 278.616 34.624C279.512 35.648 280.643 36.16 282.008 36.16ZM318.536 11.456C320.882 11.456 322.909 11.9467 324.616 12.928C326.322 13.8667 327.624 15.168 328.52 16.832V11.904H342.664V47.36C342.664 50.7307 342.045 53.8027 340.808 56.576C339.57 59.3493 337.565 61.568 334.792 63.232C332.061 64.896 328.541 65.728 324.232 65.728C318.429 65.728 313.821 64.3627 310.408 61.632C307.037 58.944 305.117 55.2747 304.648 50.624H318.6C318.984 52.5013 320.52 53.44 323.208 53.44C324.872 53.44 326.173 53.0133 327.112 52.16C328.05 51.3067 328.52 49.7067 328.52 47.36V43.072C327.624 44.736 326.322 46.0587 324.616 47.04C322.909 47.9787 320.882 48.448 318.536 48.448C315.72 48.448 313.181 47.7227 310.92 46.272C308.658 44.7787 306.866 42.6453 305.544 39.872C304.264 37.056 303.624 33.7493 303.624 29.952C303.624 26.1547 304.264 22.8693 305.544 20.096C306.866 17.28 308.658 15.1467 310.92 13.696C313.181 12.2027 315.72 11.456 318.536 11.456ZM328.52 29.952C328.52 28.032 328.029 26.5387 327.048 25.472C326.066 24.4053 324.808 23.872 323.272 23.872C321.736 23.872 320.477 24.4053 319.496 25.472C318.514 26.5387 318.024 28.032 318.024 29.952C318.024 31.872 318.514 33.3653 319.496 34.432C320.477 35.4987 321.736 36.032 323.272 36.032C324.808 36.032 326.066 35.4987 327.048 34.432C328.029 33.3653 328.52 31.872 328.52 29.952Z" fill="#FF5F64"/>
</svg>
