<svg width="343" height="206" viewBox="0 0 343 206" fill="none" xmlns="http://www.w3.org/2000/svg">
<path d="M19.6233 59.2C19.6233 57.2773 20.0433 55.56 20.8833 54.048C21.7233 52.5173 22.8713 51.332 24.3273 50.492C25.7833 49.6333 27.4073 49.204 29.1993 49.204C31.3833 49.204 33.25 49.7267 34.7993 50.772C36.3673 51.7987 37.506 53.2547 38.2153 55.14H35.9193C35.3593 53.8147 34.5006 52.7787 33.3433 52.032C32.2046 51.2853 30.8233 50.912 29.1993 50.912C27.762 50.912 26.4646 51.248 25.3073 51.92C24.1686 52.592 23.2726 53.5627 22.6193 54.832C21.966 56.0827 21.6393 57.5387 21.6393 59.2C21.6393 60.8613 21.966 62.3173 22.6193 63.568C23.2726 64.8187 24.1686 65.78 25.3073 66.452C26.4646 67.124 27.762 67.46 29.1993 67.46C30.8233 67.46 32.2046 67.096 33.3433 66.368C34.5006 65.6213 35.3593 64.5947 35.9193 63.288H38.2153C37.506 65.1547 36.3673 66.6013 34.7993 67.628C33.2313 68.6547 31.3646 69.168 29.1993 69.168C27.4073 69.168 25.7833 68.748 24.3273 67.908C22.8713 67.0493 21.7233 65.864 20.8833 64.352C20.0433 62.84 19.6233 61.1227 19.6233 59.2ZM48.8129 69.224C47.3755 69.224 46.0782 68.9067 44.9209 68.272C43.7822 67.6187 42.8769 66.704 42.2049 65.528C41.5515 64.3333 41.2249 62.9427 41.2249 61.356C41.2249 59.7693 41.5609 58.388 42.2329 57.212C42.9049 56.0173 43.8195 55.1027 44.9769 54.468C46.1342 53.8147 47.4315 53.488 48.8689 53.488C50.3062 53.488 51.6035 53.8147 52.7609 54.468C53.9369 55.1027 54.8515 56.0173 55.5049 57.212C56.1769 58.388 56.5129 59.7693 56.5129 61.356C56.5129 62.924 56.1769 64.3053 55.5049 65.5C54.8329 66.6947 53.9089 67.6187 52.7329 68.272C51.5569 68.9067 50.2502 69.224 48.8129 69.224ZM48.8129 67.516C49.8209 67.516 50.7542 67.292 51.6129 66.844C52.4715 66.3773 53.1622 65.6867 53.6849 64.772C54.2262 63.8387 54.4969 62.7 54.4969 61.356C54.4969 60.012 54.2355 58.8827 53.7129 57.968C53.1902 57.0347 52.4995 56.344 51.6409 55.896C50.7822 55.4293 49.8489 55.196 48.8409 55.196C47.8329 55.196 46.8995 55.4293 46.0409 55.896C45.1822 56.344 44.4915 57.0347 43.9689 57.968C43.4649 58.8827 43.2129 60.012 43.2129 61.356C43.2129 62.7 43.4649 63.8387 43.9689 64.772C44.4915 65.6867 45.1729 66.3773 46.0129 66.844C46.8715 67.292 47.8049 67.516 48.8129 67.516ZM67.2537 53.432C69.083 53.432 70.5764 54.0013 71.7337 55.14C72.891 56.26 73.4697 57.8933 73.4697 60.04V69H71.5377V60.264C71.5377 58.6027 71.1177 57.3333 70.2777 56.456C69.4564 55.5787 68.327 55.14 66.8897 55.14C65.415 55.14 64.239 55.6067 63.3617 56.54C62.4844 57.4733 62.0457 58.8453 62.0457 60.656V69H60.0857V53.712H62.0457V56.316C62.531 55.3827 63.231 54.6733 64.1457 54.188C65.0604 53.684 66.0964 53.432 67.2537 53.432ZM83.8245 55.364H80.2685V69H78.3085V55.364H76.1805V53.712H78.3085V52.648C78.3085 50.9867 78.7285 49.764 79.5685 48.98C80.4271 48.196 81.8085 47.804 83.7125 47.804V49.484C82.4431 49.484 81.5471 49.7267 81.0245 50.212C80.5205 50.6973 80.2685 51.5093 80.2685 52.648V53.712H83.8245V55.364ZM87.8899 50.828C87.4979 50.828 87.1619 50.688 86.8819 50.408C86.6019 50.128 86.4619 49.7827 86.4619 49.372C86.4619 48.9613 86.6019 48.6253 86.8819 48.364C87.1619 48.084 87.4979 47.944 87.8899 47.944C88.2819 47.944 88.6179 48.084 88.8979 48.364C89.1779 48.6253 89.3179 48.9613 89.3179 49.372C89.3179 49.7827 89.1779 50.128 88.8979 50.408C88.6179 50.688 88.2819 50.828 87.8899 50.828ZM88.8699 53.712V69H86.9099V53.712H88.8699ZM95.2684 56.428C95.6977 55.476 96.351 54.7387 97.2284 54.216C98.1244 53.6933 99.2164 53.432 100.504 53.432V55.476H99.9724C98.5537 55.476 97.415 55.8587 96.5564 56.624C95.6977 57.3893 95.2684 58.668 95.2684 60.46V69H93.3084V53.712H95.2684V56.428ZM102.557 61.328C102.557 59.76 102.865 58.388 103.481 57.212C104.116 56.0173 104.984 55.1027 106.085 54.468C107.205 53.8147 108.465 53.488 109.865 53.488C111.321 53.488 112.572 53.824 113.617 54.496C114.681 55.168 115.446 56.0267 115.913 57.072V53.712H117.873V69H115.913V65.612C115.428 66.6573 114.653 67.5253 113.589 68.216C112.544 68.888 111.293 69.224 109.837 69.224C108.456 69.224 107.205 68.8973 106.085 68.244C104.984 67.5907 104.116 66.6667 103.481 65.472C102.865 64.2773 102.557 62.896 102.557 61.328ZM115.913 61.356C115.913 60.124 115.661 59.0413 115.157 58.108C114.653 57.1747 113.962 56.456 113.085 55.952C112.226 55.448 111.274 55.196 110.229 55.196C109.146 55.196 108.176 55.4387 107.317 55.924C106.458 56.4093 105.777 57.1187 105.273 58.052C104.788 58.9667 104.545 60.0587 104.545 61.328C104.545 62.5787 104.788 63.68 105.273 64.632C105.777 65.5653 106.458 66.284 107.317 66.788C108.176 67.2733 109.146 67.516 110.229 67.516C111.274 67.516 112.226 67.264 113.085 66.76C113.962 66.256 114.653 65.5373 115.157 64.604C115.661 63.6707 115.913 62.588 115.913 61.356ZM136.723 69.224C135.286 69.224 133.988 68.9067 132.831 68.272C131.692 67.6187 130.787 66.704 130.115 65.528C129.462 64.3333 129.135 62.9427 129.135 61.356C129.135 59.7693 129.471 58.388 130.143 57.212C130.815 56.0173 131.73 55.1027 132.887 54.468C134.044 53.8147 135.342 53.488 136.779 53.488C138.216 53.488 139.514 53.8147 140.671 54.468C141.847 55.1027 142.762 56.0173 143.415 57.212C144.087 58.388 144.423 59.7693 144.423 61.356C144.423 62.924 144.087 64.3053 143.415 65.5C142.743 66.6947 141.819 67.6187 140.643 68.272C139.467 68.9067 138.16 69.224 136.723 69.224ZM136.723 67.516C137.731 67.516 138.664 67.292 139.523 66.844C140.382 66.3773 141.072 65.6867 141.595 64.772C142.136 63.8387 142.407 62.7 142.407 61.356C142.407 60.012 142.146 58.8827 141.623 57.968C141.1 57.0347 140.41 56.344 139.551 55.896C138.692 55.4293 137.759 55.196 136.751 55.196C135.743 55.196 134.81 55.4293 133.951 55.896C133.092 56.344 132.402 57.0347 131.879 57.968C131.375 58.8827 131.123 60.012 131.123 61.356C131.123 62.7 131.375 63.8387 131.879 64.772C132.402 65.6867 133.083 66.3773 133.923 66.844C134.782 67.292 135.715 67.516 136.723 67.516ZM154.783 61.328C154.783 59.76 155.101 58.388 155.735 57.212C156.37 56.0173 157.238 55.1027 158.339 54.468C159.459 53.8147 160.719 53.488 162.119 53.488C163.463 53.488 164.677 53.8147 165.759 54.468C166.842 55.1213 167.635 55.9707 168.139 57.016V48.28H170.099V69H168.139V65.584C167.673 66.648 166.907 67.5253 165.843 68.216C164.779 68.888 163.529 69.224 162.091 69.224C160.691 69.224 159.431 68.8973 158.311 68.244C157.21 67.5907 156.342 66.6667 155.707 65.472C155.091 64.2773 154.783 62.896 154.783 61.328ZM168.139 61.356C168.139 60.124 167.887 59.0413 167.383 58.108C166.879 57.1747 166.189 56.456 165.311 55.952C164.453 55.448 163.501 55.196 162.455 55.196C161.373 55.196 160.402 55.4387 159.543 55.924C158.685 56.4093 158.003 57.1187 157.499 58.052C157.014 58.9667 156.771 60.0587 156.771 61.328C156.771 62.5787 157.014 63.68 157.499 64.632C158.003 65.5653 158.685 66.284 159.543 66.788C160.402 67.2733 161.373 67.516 162.455 67.516C163.501 67.516 164.453 67.264 165.311 66.76C166.189 66.256 166.879 65.5373 167.383 64.604C167.887 63.6707 168.139 62.588 168.139 61.356ZM188.406 60.572C188.406 61.244 188.387 61.7573 188.35 62.112H175.666C175.722 63.2693 176.002 64.2587 176.506 65.08C177.01 65.9013 177.673 66.5267 178.494 66.956C179.315 67.3667 180.211 67.572 181.182 67.572C182.451 67.572 183.515 67.264 184.374 66.648C185.251 66.032 185.83 65.2013 186.11 64.156H188.182C187.809 65.6493 187.006 66.872 185.774 67.824C184.561 68.7573 183.03 69.224 181.182 69.224C179.745 69.224 178.457 68.9067 177.318 68.272C176.179 67.6187 175.283 66.704 174.63 65.528C173.995 64.3333 173.678 62.9427 173.678 61.356C173.678 59.7693 173.995 58.3787 174.63 57.184C175.265 55.9893 176.151 55.0747 177.29 54.44C178.429 53.8053 179.726 53.488 181.182 53.488C182.638 53.488 183.907 53.8053 184.99 54.44C186.091 55.0747 186.931 55.9333 187.51 57.016C188.107 58.08 188.406 59.2653 188.406 60.572ZM186.418 60.516C186.437 59.3773 186.203 58.4067 185.718 57.604C185.251 56.8013 184.607 56.1947 183.786 55.784C182.965 55.3733 182.069 55.168 181.098 55.168C179.642 55.168 178.401 55.6347 177.374 56.568C176.347 57.5013 175.778 58.8173 175.666 60.516H186.418ZM193.924 57.072C194.409 56.0453 195.175 55.196 196.22 54.524C197.284 53.8333 198.544 53.488 200 53.488C201.381 53.488 202.623 53.8147 203.724 54.468C204.844 55.1027 205.712 56.0173 206.328 57.212C206.963 58.388 207.28 59.76 207.28 61.328C207.28 62.896 206.963 64.2773 206.328 65.472C205.712 66.6667 204.844 67.5907 203.724 68.244C202.623 68.8973 201.381 69.224 200 69.224C198.563 69.224 197.312 68.888 196.248 68.216C195.184 67.5253 194.409 66.6667 193.924 65.64V76.224H191.992V53.712H193.924V57.072ZM205.292 61.328C205.292 60.0587 205.04 58.9667 204.536 58.052C204.051 57.1187 203.379 56.4093 202.52 55.924C201.661 55.4387 200.691 55.196 199.608 55.196C198.563 55.196 197.601 55.448 196.724 55.952C195.865 56.456 195.184 57.1747 194.68 58.108C194.176 59.0413 193.924 60.124 193.924 61.356C193.924 62.588 194.176 63.6707 194.68 64.604C195.184 65.5373 195.865 66.256 196.724 66.76C197.601 67.264 198.563 67.516 199.608 67.516C200.691 67.516 201.661 67.2733 202.52 66.788C203.379 66.284 204.051 65.5653 204.536 64.632C205.04 63.68 205.292 62.5787 205.292 61.328ZM217.578 69.224C216.141 69.224 214.844 68.9067 213.686 68.272C212.548 67.6187 211.642 66.704 210.97 65.528C210.317 64.3333 209.99 62.9427 209.99 61.356C209.99 59.7693 210.326 58.388 210.998 57.212C211.67 56.0173 212.585 55.1027 213.742 54.468C214.9 53.8147 216.197 53.488 217.634 53.488C219.072 53.488 220.369 53.8147 221.526 54.468C222.702 55.1027 223.617 56.0173 224.27 57.212C224.942 58.388 225.278 59.7693 225.278 61.356C225.278 62.924 224.942 64.3053 224.27 65.5C223.598 66.6947 222.674 67.6187 221.498 68.272C220.322 68.9067 219.016 69.224 217.578 69.224ZM217.578 67.516C218.586 67.516 219.52 67.292 220.378 66.844C221.237 66.3773 221.928 65.6867 222.45 64.772C222.992 63.8387 223.262 62.7 223.262 61.356C223.262 60.012 223.001 58.8827 222.478 57.968C221.956 57.0347 221.265 56.344 220.406 55.896C219.548 55.4293 218.614 55.196 217.606 55.196C216.598 55.196 215.665 55.4293 214.806 55.896C213.948 56.344 213.257 57.0347 212.734 57.968C212.23 58.8827 211.978 60.012 211.978 61.356C211.978 62.7 212.23 63.8387 212.734 64.772C213.257 65.6867 213.938 66.3773 214.778 66.844C215.637 67.292 216.57 67.516 217.578 67.516ZM229.831 50.828C229.439 50.828 229.103 50.688 228.823 50.408C228.543 50.128 228.403 49.7827 228.403 49.372C228.403 48.9613 228.543 48.6253 228.823 48.364C229.103 48.084 229.439 47.944 229.831 47.944C230.223 47.944 230.559 48.084 230.839 48.364C231.119 48.6253 231.259 48.9613 231.259 49.372C231.259 49.7827 231.119 50.128 230.839 50.408C230.559 50.688 230.223 50.828 229.831 50.828ZM230.811 53.712V69H228.851V53.712H230.811ZM253.45 53.432C255.242 53.432 256.698 54.0013 257.818 55.14C258.956 56.26 259.526 57.8933 259.526 60.04V69H257.594V60.264C257.594 58.6027 257.192 57.3333 256.39 56.456C255.587 55.5787 254.495 55.14 253.114 55.14C251.676 55.14 250.528 55.616 249.67 56.568C248.811 57.52 248.382 58.9013 248.382 60.712V69H246.45V60.264C246.45 58.6027 246.048 57.3333 245.246 56.456C244.443 55.5787 243.342 55.14 241.942 55.14C240.504 55.14 239.356 55.616 238.498 56.568C237.639 57.52 237.21 58.9013 237.21 60.712V69H235.25V53.712H237.21V56.344C237.695 55.392 238.386 54.6733 239.282 54.188C240.178 53.684 241.176 53.432 242.278 53.432C243.603 53.432 244.76 53.7493 245.75 54.384C246.758 55.0187 247.486 55.952 247.934 57.184C248.344 55.9707 249.044 55.0467 250.034 54.412C251.042 53.7587 252.18 53.432 253.45 53.432ZM277.711 60.572C277.711 61.244 277.692 61.7573 277.655 62.112H264.971C265.027 63.2693 265.307 64.2587 265.811 65.08C266.315 65.9013 266.977 66.5267 267.799 66.956C268.62 67.3667 269.516 67.572 270.487 67.572C271.756 67.572 272.82 67.264 273.679 66.648C274.556 66.032 275.135 65.2013 275.415 64.156H277.487C277.113 65.6493 276.311 66.872 275.079 67.824C273.865 68.7573 272.335 69.224 270.487 69.224C269.049 69.224 267.761 68.9067 266.623 68.272C265.484 67.6187 264.588 66.704 263.935 65.528C263.3 64.3333 262.983 62.9427 262.983 61.356C262.983 59.7693 263.3 58.3787 263.935 57.184C264.569 55.9893 265.456 55.0747 266.595 54.44C267.733 53.8053 269.031 53.488 270.487 53.488C271.943 53.488 273.212 53.8053 274.295 54.44C275.396 55.0747 276.236 55.9333 276.815 57.016C277.412 58.08 277.711 59.2653 277.711 60.572ZM275.723 60.516C275.741 59.3773 275.508 58.4067 275.023 57.604C274.556 56.8013 273.912 56.1947 273.091 55.784C272.269 55.3733 271.373 55.168 270.403 55.168C268.947 55.168 267.705 55.6347 266.679 56.568C265.652 57.5013 265.083 58.8173 264.971 60.516H275.723ZM288.465 53.432C290.294 53.432 291.787 54.0013 292.945 55.14C294.102 56.26 294.681 57.8933 294.681 60.04V69H292.749V60.264C292.749 58.6027 292.329 57.3333 291.489 56.456C290.667 55.5787 289.538 55.14 288.101 55.14C286.626 55.14 285.45 55.6067 284.573 56.54C283.695 57.4733 283.257 58.8453 283.257 60.656V69H281.297V53.712H283.257V56.316C283.742 55.3827 284.442 54.6733 285.357 54.188C286.271 53.684 287.307 53.432 288.465 53.432ZM301.563 55.364V64.856C301.563 65.7893 301.741 66.4333 302.095 66.788C302.45 67.1427 303.075 67.32 303.971 67.32H305.763V69H303.663C302.282 69 301.255 68.6827 300.583 68.048C299.911 67.3947 299.575 66.3307 299.575 64.856V55.364H297.447V53.712H299.575V49.876H301.563V53.712H305.763V55.364H301.563ZM315.688 69.224C314.251 69.224 312.953 68.9067 311.796 68.272C310.657 67.6187 309.752 66.704 309.08 65.528C308.427 64.3333 308.1 62.9427 308.1 61.356C308.1 59.7693 308.436 58.388 309.108 57.212C309.78 56.0173 310.695 55.1027 311.852 54.468C313.009 53.8147 314.307 53.488 315.744 53.488C317.181 53.488 318.479 53.8147 319.636 54.468C320.812 55.1027 321.727 56.0173 322.38 57.212C323.052 58.388 323.388 59.7693 323.388 61.356C323.388 62.924 323.052 64.3053 322.38 65.5C321.708 66.6947 320.784 67.6187 319.608 68.272C318.432 68.9067 317.125 69.224 315.688 69.224ZM315.688 67.516C316.696 67.516 317.629 67.292 318.488 66.844C319.347 66.3773 320.037 65.6867 320.56 64.772C321.101 63.8387 321.372 62.7 321.372 61.356C321.372 60.012 321.111 58.8827 320.588 57.968C320.065 57.0347 319.375 56.344 318.516 55.896C317.657 55.4293 316.724 55.196 315.716 55.196C314.708 55.196 313.775 55.4293 312.916 55.896C312.057 56.344 311.367 57.0347 310.844 57.968C310.34 58.8827 310.088 60.012 310.088 61.356C310.088 62.7 310.34 63.8387 310.844 64.772C311.367 65.6867 312.048 66.3773 312.888 66.844C313.747 67.292 314.68 67.516 315.688 67.516ZM20.8264 103.328C20.8264 101.76 21.1438 100.388 21.7784 99.212C22.4131 98.0173 23.2811 97.1027 24.3824 96.468C25.5024 95.8147 26.7624 95.488 28.1624 95.488C29.5064 95.488 30.7198 95.8147 31.8024 96.468C32.8851 97.1213 33.6784 97.9707 34.1824 99.016V90.28H36.1424V111H34.1824V107.584C33.7158 108.648 32.9504 109.525 31.8864 110.216C30.8224 110.888 29.5718 111.224 28.1344 111.224C26.7344 111.224 25.4744 110.897 24.3544 110.244C23.2531 109.591 22.3851 108.667 21.7504 107.472C21.1344 106.277 20.8264 104.896 20.8264 103.328ZM34.1824 103.356C34.1824 102.124 33.9304 101.041 33.4264 100.108C32.9224 99.1747 32.2318 98.456 31.3544 97.952C30.4958 97.448 29.5438 97.196 28.4984 97.196C27.4158 97.196 26.4451 97.4387 25.5864 97.924C24.7278 98.4093 24.0464 99.1187 23.5424 100.052C23.0571 100.967 22.8144 102.059 22.8144 103.328C22.8144 104.579 23.0571 105.68 23.5424 106.632C24.0464 107.565 24.7278 108.284 25.5864 108.788C26.4451 109.273 27.4158 109.516 28.4984 109.516C29.5438 109.516 30.4958 109.264 31.3544 108.76C32.2318 108.256 32.9224 107.537 33.4264 106.604C33.9304 105.671 34.1824 104.588 34.1824 103.356ZM54.449 102.572C54.449 103.244 54.4303 103.757 54.393 104.112H41.709C41.765 105.269 42.045 106.259 42.549 107.08C43.053 107.901 43.7156 108.527 44.537 108.956C45.3583 109.367 46.2543 109.572 47.225 109.572C48.4943 109.572 49.5583 109.264 50.417 108.648C51.2943 108.032 51.873 107.201 52.153 106.156H54.225C53.8516 107.649 53.049 108.872 51.817 109.824C50.6036 110.757 49.073 111.224 47.225 111.224C45.7876 111.224 44.4996 110.907 43.361 110.272C42.2223 109.619 41.3263 108.704 40.673 107.528C40.0383 106.333 39.721 104.943 39.721 103.356C39.721 101.769 40.0383 100.379 40.673 99.184C41.3076 97.9893 42.1943 97.0747 43.333 96.44C44.4716 95.8053 45.769 95.488 47.225 95.488C48.681 95.488 49.9503 95.8053 51.033 96.44C52.1343 97.0747 52.9743 97.9333 53.553 99.016C54.1503 100.08 54.449 101.265 54.449 102.572ZM52.461 102.516C52.4796 101.377 52.2463 100.407 51.761 99.604C51.2943 98.8013 50.6503 98.1947 49.829 97.784C49.0076 97.3733 48.1116 97.168 47.141 97.168C45.685 97.168 44.4436 97.6347 43.417 98.568C42.3903 99.5013 41.821 100.817 41.709 102.516H52.461ZM64.8225 103.328C64.8225 101.76 65.1398 100.388 65.7745 99.212C66.4092 98.0173 67.2772 97.1027 68.3785 96.468C69.4985 95.8147 70.7585 95.488 72.1585 95.488C73.5958 95.488 74.8465 95.8333 75.9105 96.524C76.9745 97.196 77.7305 98.0453 78.1785 99.072V95.712H80.1385V118.224H78.1785V107.64C77.7305 108.667 76.9652 109.525 75.8825 110.216C74.8185 110.888 73.5585 111.224 72.1025 111.224C70.7212 111.224 69.4705 110.897 68.3505 110.244C67.2492 109.591 66.3812 108.667 65.7465 107.472C65.1305 106.277 64.8225 104.896 64.8225 103.328ZM78.1785 103.356C78.1785 102.124 77.9265 101.041 77.4225 100.108C76.9185 99.1747 76.2278 98.456 75.3505 97.952C74.4918 97.448 73.5398 97.196 72.4945 97.196C71.4118 97.196 70.4412 97.4387 69.5825 97.924C68.7238 98.4093 68.0425 99.1187 67.5385 100.052C67.0532 100.967 66.8105 102.059 66.8105 103.328C66.8105 104.579 67.0532 105.68 67.5385 106.632C68.0425 107.565 68.7238 108.284 69.5825 108.788C70.4412 109.273 71.4118 109.516 72.4945 109.516C73.5398 109.516 74.4918 109.264 75.3505 108.76C76.2278 108.256 76.9185 107.537 77.4225 106.604C77.9265 105.671 78.1785 104.588 78.1785 103.356ZM97.857 95.712V111H95.897V108.312C95.449 109.264 94.7584 109.992 93.825 110.496C92.8917 111 91.8464 111.252 90.689 111.252C88.8597 111.252 87.3664 110.692 86.209 109.572C85.0517 108.433 84.473 106.791 84.473 104.644V95.712H86.405V104.42C86.405 106.081 86.8157 107.351 87.637 108.228C88.477 109.105 89.6157 109.544 91.053 109.544C92.5277 109.544 93.7037 109.077 94.581 108.144C95.4584 107.211 95.897 105.839 95.897 104.028V95.712H97.857ZM116.164 102.572C116.164 103.244 116.145 103.757 116.108 104.112H103.424C103.48 105.269 103.76 106.259 104.264 107.08C104.768 107.901 105.43 108.527 106.252 108.956C107.073 109.367 107.969 109.572 108.94 109.572C110.209 109.572 111.273 109.264 112.132 108.648C113.009 108.032 113.588 107.201 113.868 106.156H115.94C115.566 107.649 114.764 108.872 113.532 109.824C112.318 110.757 110.788 111.224 108.94 111.224C107.502 111.224 106.214 110.907 105.076 110.272C103.937 109.619 103.041 108.704 102.388 107.528C101.753 106.333 101.436 104.943 101.436 103.356C101.436 101.769 101.753 100.379 102.388 99.184C103.022 97.9893 103.909 97.0747 105.048 96.44C106.186 95.8053 107.484 95.488 108.94 95.488C110.396 95.488 111.665 95.8053 112.748 96.44C113.849 97.0747 114.689 97.9333 115.268 99.016C115.865 100.08 116.164 101.265 116.164 102.572ZM114.176 102.516C114.194 101.377 113.961 100.407 113.476 99.604C113.009 98.8013 112.365 98.1947 111.544 97.784C110.722 97.3733 109.826 97.168 108.856 97.168C107.4 97.168 106.158 97.6347 105.132 98.568C104.105 99.5013 103.536 100.817 103.424 102.516H114.176ZM137.95 95.432C139.742 95.432 141.198 96.0013 142.318 97.14C143.456 98.26 144.026 99.8933 144.026 102.04V111H142.094V102.264C142.094 100.603 141.692 99.3333 140.89 98.456C140.087 97.5787 138.995 97.14 137.614 97.14C136.176 97.14 135.028 97.616 134.17 98.568C133.311 99.52 132.882 100.901 132.882 102.712V111H130.95V102.264C130.95 100.603 130.548 99.3333 129.746 98.456C128.943 97.5787 127.842 97.14 126.442 97.14C125.004 97.14 123.856 97.616 122.998 98.568C122.139 99.52 121.71 100.901 121.71 102.712V111H119.75V95.712H121.71V98.344C122.195 97.392 122.886 96.6733 123.782 96.188C124.678 95.684 125.676 95.432 126.778 95.432C128.103 95.432 129.26 95.7493 130.25 96.384C131.258 97.0187 131.986 97.952 132.434 99.184C132.844 97.9707 133.544 97.0467 134.534 96.412C135.542 95.7587 136.68 95.432 137.95 95.432ZM155.166 103.356C155.166 101.769 155.484 100.388 156.118 99.212C156.753 98.0173 157.63 97.1027 158.75 96.468C159.87 95.8147 161.149 95.488 162.586 95.488C164.472 95.488 166.021 95.9547 167.234 96.888C168.466 97.8213 169.26 99.0907 169.614 100.696H167.514C167.253 99.5947 166.684 98.736 165.806 98.12C164.948 97.4853 163.874 97.168 162.586 97.168C161.56 97.168 160.636 97.4013 159.814 97.868C158.993 98.3347 158.34 99.0347 157.854 99.968C157.388 100.883 157.154 102.012 157.154 103.356C157.154 104.7 157.388 105.839 157.854 106.772C158.34 107.705 158.993 108.405 159.814 108.872C160.636 109.339 161.56 109.572 162.586 109.572C163.874 109.572 164.948 109.264 165.806 108.648C166.684 108.013 167.253 107.136 167.514 106.016H169.614C169.26 107.584 168.466 108.844 167.234 109.796C166.002 110.748 164.453 111.224 162.586 111.224C161.149 111.224 159.87 110.907 158.75 110.272C157.63 109.619 156.753 108.704 156.118 107.528C155.484 106.333 155.166 104.943 155.166 103.356ZM179.926 111.224C178.489 111.224 177.191 110.907 176.034 110.272C174.895 109.619 173.99 108.704 173.318 107.528C172.665 106.333 172.338 104.943 172.338 103.356C172.338 101.769 172.674 100.388 173.346 99.212C174.018 98.0173 174.933 97.1027 176.09 96.468C177.247 95.8147 178.545 95.488 179.982 95.488C181.419 95.488 182.717 95.8147 183.874 96.468C185.05 97.1027 185.965 98.0173 186.618 99.212C187.29 100.388 187.626 101.769 187.626 103.356C187.626 104.924 187.29 106.305 186.618 107.5C185.946 108.695 185.022 109.619 183.846 110.272C182.67 110.907 181.363 111.224 179.926 111.224ZM179.926 109.516C180.934 109.516 181.867 109.292 182.726 108.844C183.585 108.377 184.275 107.687 184.798 106.772C185.339 105.839 185.61 104.7 185.61 103.356C185.61 102.012 185.349 100.883 184.826 99.968C184.303 99.0347 183.613 98.344 182.754 97.896C181.895 97.4293 180.962 97.196 179.954 97.196C178.946 97.196 178.013 97.4293 177.154 97.896C176.295 98.344 175.605 99.0347 175.082 99.968C174.578 100.883 174.326 102.012 174.326 103.356C174.326 104.7 174.578 105.839 175.082 106.772C175.605 107.687 176.286 108.377 177.126 108.844C177.985 109.292 178.918 109.516 179.926 109.516ZM193.159 90.28V111H191.199V90.28H193.159ZM196.701 103.328C196.701 101.76 197.009 100.388 197.625 99.212C198.26 98.0173 199.128 97.1027 200.229 96.468C201.349 95.8147 202.609 95.488 204.009 95.488C205.465 95.488 206.716 95.824 207.761 96.496C208.825 97.168 209.591 98.0267 210.057 99.072V95.712H212.017V111H210.057V107.612C209.572 108.657 208.797 109.525 207.733 110.216C206.688 110.888 205.437 111.224 203.981 111.224C202.6 111.224 201.349 110.897 200.229 110.244C199.128 109.591 198.26 108.667 197.625 107.472C197.009 106.277 196.701 104.896 196.701 103.328ZM210.057 103.356C210.057 102.124 209.805 101.041 209.301 100.108C208.797 99.1747 208.107 98.456 207.229 97.952C206.371 97.448 205.419 97.196 204.373 97.196C203.291 97.196 202.32 97.4387 201.461 97.924C200.603 98.4093 199.921 99.1187 199.417 100.052C198.932 100.967 198.689 102.059 198.689 103.328C198.689 104.579 198.932 105.68 199.417 106.632C199.921 107.565 200.603 108.284 201.461 108.788C202.32 109.273 203.291 109.516 204.373 109.516C205.419 109.516 206.371 109.264 207.229 108.76C208.107 108.256 208.797 107.537 209.301 106.604C209.805 105.671 210.057 104.588 210.057 103.356ZM218.424 99.1C218.928 98.036 219.703 97.168 220.748 96.496C221.812 95.824 223.063 95.488 224.5 95.488C225.9 95.488 227.151 95.8147 228.252 96.468C229.353 97.1027 230.212 98.0173 230.828 99.212C231.463 100.388 231.78 101.76 231.78 103.328C231.78 104.896 231.463 106.277 230.828 107.472C230.212 108.667 229.344 109.591 228.224 110.244C227.123 110.897 225.881 111.224 224.5 111.224C223.044 111.224 221.784 110.897 220.72 110.244C219.675 109.572 218.909 108.704 218.424 107.64V111H216.492V90.28H218.424V99.1ZM229.792 103.328C229.792 102.059 229.54 100.967 229.036 100.052C228.551 99.1187 227.879 98.4093 227.02 97.924C226.161 97.4387 225.191 97.196 224.108 97.196C223.063 97.196 222.101 97.448 221.224 97.952C220.365 98.456 219.684 99.1747 219.18 100.108C218.676 101.041 218.424 102.124 218.424 103.356C218.424 104.588 218.676 105.671 219.18 106.604C219.684 107.537 220.365 108.256 221.224 108.76C222.101 109.264 223.063 109.516 224.108 109.516C225.191 109.516 226.161 109.273 227.02 108.788C227.879 108.284 228.551 107.565 229.036 106.632C229.54 105.68 229.792 104.579 229.792 103.328ZM242.078 111.224C240.641 111.224 239.344 110.907 238.186 110.272C237.048 109.619 236.142 108.704 235.47 107.528C234.817 106.333 234.49 104.943 234.49 103.356C234.49 101.769 234.826 100.388 235.498 99.212C236.17 98.0173 237.085 97.1027 238.242 96.468C239.4 95.8147 240.697 95.488 242.134 95.488C243.572 95.488 244.869 95.8147 246.026 96.468C247.202 97.1027 248.117 98.0173 248.77 99.212C249.442 100.388 249.778 101.769 249.778 103.356C249.778 104.924 249.442 106.305 248.77 107.5C248.098 108.695 247.174 109.619 245.998 110.272C244.822 110.907 243.516 111.224 242.078 111.224ZM242.078 109.516C243.086 109.516 244.02 109.292 244.878 108.844C245.737 108.377 246.428 107.687 246.95 106.772C247.492 105.839 247.762 104.7 247.762 103.356C247.762 102.012 247.501 100.883 246.978 99.968C246.456 99.0347 245.765 98.344 244.906 97.896C244.048 97.4293 243.114 97.196 242.106 97.196C241.098 97.196 240.165 97.4293 239.306 97.896C238.448 98.344 237.757 99.0347 237.234 99.968C236.73 100.883 236.478 102.012 236.478 103.356C236.478 104.7 236.73 105.839 237.234 106.772C237.757 107.687 238.438 108.377 239.278 108.844C240.137 109.292 241.07 109.516 242.078 109.516ZM255.311 98.428C255.741 97.476 256.394 96.7387 257.271 96.216C258.167 95.6933 259.259 95.432 260.547 95.432V97.476H260.015C258.597 97.476 257.458 97.8587 256.599 98.624C255.741 99.3893 255.311 100.668 255.311 102.46V111H253.351V95.712H255.311V98.428ZM262.6 103.328C262.6 101.76 262.908 100.388 263.524 99.212C264.159 98.0173 265.027 97.1027 266.128 96.468C267.248 95.8147 268.508 95.488 269.908 95.488C271.364 95.488 272.615 95.824 273.66 96.496C274.724 97.168 275.489 98.0267 275.956 99.072V95.712H277.916V111H275.956V107.612C275.471 108.657 274.696 109.525 273.632 110.216C272.587 110.888 271.336 111.224 269.88 111.224C268.499 111.224 267.248 110.897 266.128 110.244C265.027 109.591 264.159 108.667 263.524 107.472C262.908 106.277 262.6 104.896 262.6 103.328ZM275.956 103.356C275.956 102.124 275.704 101.041 275.2 100.108C274.696 99.1747 274.005 98.456 273.128 97.952C272.269 97.448 271.317 97.196 270.272 97.196C269.189 97.196 268.219 97.4387 267.36 97.924C266.501 98.4093 265.82 99.1187 265.316 100.052C264.831 100.967 264.588 102.059 264.588 103.328C264.588 104.579 264.831 105.68 265.316 106.632C265.82 107.565 266.501 108.284 267.36 108.788C268.219 109.273 269.189 109.516 270.272 109.516C271.317 109.516 272.269 109.264 273.128 108.76C274.005 108.256 274.696 107.537 275.2 106.604C275.704 105.671 275.956 104.588 275.956 103.356ZM296.766 111.224C295.329 111.224 294.031 110.907 292.874 110.272C291.735 109.619 290.83 108.704 290.158 107.528C289.505 106.333 289.178 104.943 289.178 103.356C289.178 101.769 289.514 100.388 290.186 99.212C290.858 98.0173 291.773 97.1027 292.93 96.468C294.087 95.8147 295.385 95.488 296.822 95.488C298.259 95.488 299.557 95.8147 300.714 96.468C301.89 97.1027 302.805 98.0173 303.458 99.212C304.13 100.388 304.466 101.769 304.466 103.356C304.466 104.924 304.13 106.305 303.458 107.5C302.786 108.695 301.862 109.619 300.686 110.272C299.51 110.907 298.203 111.224 296.766 111.224ZM296.766 109.516C297.774 109.516 298.707 109.292 299.566 108.844C300.425 108.377 301.115 107.687 301.638 106.772C302.179 105.839 302.45 104.7 302.45 103.356C302.45 102.012 302.189 100.883 301.666 99.968C301.143 99.0347 300.453 98.344 299.594 97.896C298.735 97.4293 297.802 97.196 296.794 97.196C295.786 97.196 294.853 97.4293 293.994 97.896C293.135 98.344 292.445 99.0347 291.922 99.968C291.418 100.883 291.166 102.012 291.166 103.356C291.166 104.7 291.418 105.839 291.922 106.772C292.445 107.687 293.126 108.377 293.966 108.844C294.825 109.292 295.758 109.516 296.766 109.516ZM321.283 95.712V111H319.323V108.312C318.875 109.264 318.184 109.992 317.251 110.496C316.317 111 315.272 111.252 314.115 111.252C312.285 111.252 310.792 110.692 309.635 109.572C308.477 108.433 307.899 106.791 307.899 104.644V95.712H309.831V104.42C309.831 106.081 310.241 107.351 311.063 108.228C311.903 109.105 313.041 109.544 314.479 109.544C315.953 109.544 317.129 109.077 318.007 108.144C318.884 107.211 319.323 105.839 319.323 104.028V95.712H321.283ZM17.7073 139.364H14.1513V153H12.1913V139.364H10.0633V137.712H12.1913V136.648C12.1913 134.987 12.6113 133.764 13.4513 132.98C14.3099 132.196 15.6913 131.804 17.5953 131.804V133.484C16.3259 133.484 15.4299 133.727 14.9073 134.212C14.4033 134.697 14.1513 135.509 14.1513 136.648V137.712H17.7073V139.364ZM27.4847 153.224C26.0474 153.224 24.7501 152.907 23.5927 152.272C22.4541 151.619 21.5487 150.704 20.8767 149.528C20.2234 148.333 19.8967 146.943 19.8967 145.356C19.8967 143.769 20.2327 142.388 20.9047 141.212C21.5767 140.017 22.4914 139.103 23.6487 138.468C24.8061 137.815 26.1034 137.488 27.5407 137.488C28.9781 137.488 30.2754 137.815 31.4327 138.468C32.6087 139.103 33.5234 140.017 34.1767 141.212C34.8487 142.388 35.1847 143.769 35.1847 145.356C35.1847 146.924 34.8487 148.305 34.1767 149.5C33.5047 150.695 32.5807 151.619 31.4047 152.272C30.2287 152.907 28.9221 153.224 27.4847 153.224ZM27.4847 151.516C28.4927 151.516 29.4261 151.292 30.2847 150.844C31.1434 150.377 31.8341 149.687 32.3567 148.772C32.8981 147.839 33.1687 146.7 33.1687 145.356C33.1687 144.012 32.9074 142.883 32.3847 141.968C31.8621 141.035 31.1714 140.344 30.3127 139.896C29.4541 139.429 28.5207 139.196 27.5127 139.196C26.5047 139.196 25.5714 139.429 24.7127 139.896C23.8541 140.344 23.1634 141.035 22.6407 141.968C22.1367 142.883 21.8847 144.012 21.8847 145.356C21.8847 146.7 22.1367 147.839 22.6407 148.772C23.1634 149.687 23.8447 150.377 24.6847 150.844C25.5434 151.292 26.4767 151.516 27.4847 151.516ZM39.7376 134.828C39.3456 134.828 39.0096 134.688 38.7296 134.408C38.4496 134.128 38.3096 133.783 38.3096 133.372C38.3096 132.961 38.4496 132.625 38.7296 132.364C39.0096 132.084 39.3456 131.944 39.7376 131.944C40.1296 131.944 40.4656 132.084 40.7456 132.364C41.0256 132.625 41.1656 132.961 41.1656 133.372C41.1656 133.783 41.0256 134.128 40.7456 134.408C40.4656 134.688 40.1296 134.828 39.7376 134.828ZM40.7176 137.712V153H38.7576V137.712H40.7176ZM53.8196 134.828C53.4276 134.828 53.0916 134.688 52.8116 134.408C52.5316 134.128 52.3916 133.783 52.3916 133.372C52.3916 132.961 52.5316 132.625 52.8116 132.364C53.0916 132.084 53.4276 131.944 53.8196 131.944C54.2116 131.944 54.5476 132.084 54.8276 132.364C55.1076 132.625 55.2476 132.961 55.2476 133.372C55.2476 133.783 55.1076 134.128 54.8276 134.408C54.5476 134.688 54.2116 134.828 53.8196 134.828ZM54.7996 137.712V153H52.8396V137.712H54.7996ZM77.438 137.432C79.23 137.432 80.686 138.001 81.806 139.14C82.9447 140.26 83.514 141.893 83.514 144.04V153H81.582V144.264C81.582 142.603 81.1807 141.333 80.378 140.456C79.5754 139.579 78.4834 139.14 77.102 139.14C75.6647 139.14 74.5167 139.616 73.658 140.568C72.7994 141.52 72.37 142.901 72.37 144.712V153H70.438V144.264C70.438 142.603 70.0367 141.333 69.234 140.456C68.4314 139.579 67.33 139.14 65.93 139.14C64.4927 139.14 63.3447 139.616 62.486 140.568C61.6274 141.52 61.198 142.901 61.198 144.712V153H59.238V137.712H61.198V140.344C61.6834 139.392 62.374 138.673 63.27 138.188C64.166 137.684 65.1647 137.432 66.266 137.432C67.5914 137.432 68.7487 137.749 69.738 138.384C70.746 139.019 71.474 139.952 71.922 141.184C72.3327 139.971 73.0327 139.047 74.022 138.412C75.03 137.759 76.1687 137.432 77.438 137.432ZM89.799 141.072C90.2843 140.045 91.0496 139.196 92.095 138.524C93.159 137.833 94.419 137.488 95.875 137.488C97.2563 137.488 98.4976 137.815 99.599 138.468C100.719 139.103 101.587 140.017 102.203 141.212C102.838 142.388 103.155 143.76 103.155 145.328C103.155 146.896 102.838 148.277 102.203 149.472C101.587 150.667 100.719 151.591 99.599 152.244C98.4976 152.897 97.2563 153.224 95.875 153.224C94.4376 153.224 93.187 152.888 92.123 152.216C91.059 151.525 90.2843 150.667 89.799 149.64V160.224H87.867V137.712H89.799V141.072ZM101.167 145.328C101.167 144.059 100.915 142.967 100.411 142.052C99.9256 141.119 99.2536 140.409 98.395 139.924C97.5363 139.439 96.5656 139.196 95.483 139.196C94.4376 139.196 93.4763 139.448 92.599 139.952C91.7403 140.456 91.059 141.175 90.555 142.108C90.051 143.041 89.799 144.124 89.799 145.356C89.799 146.588 90.051 147.671 90.555 148.604C91.059 149.537 91.7403 150.256 92.599 150.76C93.4763 151.264 94.4376 151.516 95.483 151.516C96.5656 151.516 97.5363 151.273 98.395 150.788C99.2536 150.284 99.9256 149.565 100.411 148.632C100.915 147.68 101.167 146.579 101.167 145.328ZM105.865 145.328C105.865 143.76 106.173 142.388 106.789 141.212C107.424 140.017 108.292 139.103 109.393 138.468C110.513 137.815 111.773 137.488 113.173 137.488C114.629 137.488 115.88 137.824 116.925 138.496C117.989 139.168 118.755 140.027 119.221 141.072V137.712H121.181V153H119.221V149.612C118.736 150.657 117.961 151.525 116.897 152.216C115.852 152.888 114.601 153.224 113.145 153.224C111.764 153.224 110.513 152.897 109.393 152.244C108.292 151.591 107.424 150.667 106.789 149.472C106.173 148.277 105.865 146.896 105.865 145.328ZM119.221 145.356C119.221 144.124 118.969 143.041 118.465 142.108C117.961 141.175 117.271 140.456 116.393 139.952C115.535 139.448 114.583 139.196 113.537 139.196C112.455 139.196 111.484 139.439 110.625 139.924C109.767 140.409 109.085 141.119 108.581 142.052C108.096 142.967 107.853 144.059 107.853 145.328C107.853 146.579 108.096 147.68 108.581 148.632C109.085 149.565 109.767 150.284 110.625 150.788C111.484 151.273 112.455 151.516 113.537 151.516C114.583 151.516 115.535 151.264 116.393 150.76C117.271 150.256 117.961 149.537 118.465 148.604C118.969 147.671 119.221 146.588 119.221 145.356ZM124.76 145.356C124.76 143.769 125.077 142.388 125.712 141.212C126.347 140.017 127.224 139.103 128.344 138.468C129.464 137.815 130.743 137.488 132.18 137.488C134.065 137.488 135.615 137.955 136.828 138.888C138.06 139.821 138.853 141.091 139.208 142.696H137.108C136.847 141.595 136.277 140.736 135.4 140.12C134.541 139.485 133.468 139.168 132.18 139.168C131.153 139.168 130.229 139.401 129.408 139.868C128.587 140.335 127.933 141.035 127.448 141.968C126.981 142.883 126.748 144.012 126.748 145.356C126.748 146.7 126.981 147.839 127.448 148.772C127.933 149.705 128.587 150.405 129.408 150.872C130.229 151.339 131.153 151.572 132.18 151.572C133.468 151.572 134.541 151.264 135.4 150.648C136.277 150.013 136.847 149.136 137.108 148.016H139.208C138.853 149.584 138.06 150.844 136.828 151.796C135.596 152.748 134.047 153.224 132.18 153.224C130.743 153.224 129.464 152.907 128.344 152.272C127.224 151.619 126.347 150.704 125.712 149.528C125.077 148.333 124.76 146.943 124.76 145.356ZM145.376 139.364V148.856C145.376 149.789 145.553 150.433 145.908 150.788C146.263 151.143 146.888 151.32 147.784 151.32H149.576V153H147.476C146.095 153 145.068 152.683 144.396 152.048C143.724 151.395 143.388 150.331 143.388 148.856V139.364H141.26V137.712H143.388V133.876H145.376V137.712H149.576V139.364H145.376ZM151.912 145.328C151.912 143.76 152.22 142.388 152.836 141.212C153.471 140.017 154.339 139.103 155.44 138.468C156.56 137.815 157.82 137.488 159.22 137.488C160.676 137.488 161.927 137.824 162.972 138.496C164.036 139.168 164.802 140.027 165.268 141.072V137.712H167.228V153H165.268V149.612C164.783 150.657 164.008 151.525 162.944 152.216C161.899 152.888 160.648 153.224 159.192 153.224C157.811 153.224 156.56 152.897 155.44 152.244C154.339 151.591 153.471 150.667 152.836 149.472C152.22 148.277 151.912 146.896 151.912 145.328ZM165.268 145.356C165.268 144.124 165.016 143.041 164.512 142.108C164.008 141.175 163.318 140.456 162.44 139.952C161.582 139.448 160.63 139.196 159.584 139.196C158.502 139.196 157.531 139.439 156.672 139.924C155.814 140.409 155.132 141.119 154.628 142.052C154.143 142.967 153.9 144.059 153.9 145.328C153.9 146.579 154.143 147.68 154.628 148.632C155.132 149.565 155.814 150.284 156.672 150.788C157.531 151.273 158.502 151.516 159.584 151.516C160.63 151.516 161.582 151.264 162.44 150.76C163.318 150.256 164.008 149.537 164.512 148.604C165.016 147.671 165.268 146.588 165.268 145.356ZM170.807 145.328C170.807 143.76 171.124 142.388 171.759 141.212C172.394 140.017 173.262 139.103 174.363 138.468C175.483 137.815 176.743 137.488 178.143 137.488C179.487 137.488 180.7 137.815 181.783 138.468C182.866 139.121 183.659 139.971 184.163 141.016V132.28H186.123V153H184.163V149.584C183.696 150.648 182.931 151.525 181.867 152.216C180.803 152.888 179.552 153.224 178.115 153.224C176.715 153.224 175.455 152.897 174.335 152.244C173.234 151.591 172.366 150.667 171.731 149.472C171.115 148.277 170.807 146.896 170.807 145.328ZM184.163 145.356C184.163 144.124 183.911 143.041 183.407 142.108C182.903 141.175 182.212 140.456 181.335 139.952C180.476 139.448 179.524 139.196 178.479 139.196C177.396 139.196 176.426 139.439 175.567 139.924C174.708 140.409 174.027 141.119 173.523 142.052C173.038 142.967 172.795 144.059 172.795 145.328C172.795 146.579 173.038 147.68 173.523 148.632C174.027 149.565 174.708 150.284 175.567 150.788C176.426 151.273 177.396 151.516 178.479 151.516C179.524 151.516 180.476 151.264 181.335 150.76C182.212 150.256 182.903 149.537 183.407 148.604C183.911 147.671 184.163 146.588 184.163 145.356ZM197.289 153.224C195.852 153.224 194.555 152.907 193.397 152.272C192.259 151.619 191.353 150.704 190.681 149.528C190.028 148.333 189.701 146.943 189.701 145.356C189.701 143.769 190.037 142.388 190.709 141.212C191.381 140.017 192.296 139.103 193.453 138.468C194.611 137.815 195.908 137.488 197.345 137.488C198.783 137.488 200.08 137.815 201.237 138.468C202.413 139.103 203.328 140.017 203.981 141.212C204.653 142.388 204.989 143.769 204.989 145.356C204.989 146.924 204.653 148.305 203.981 149.5C203.309 150.695 202.385 151.619 201.209 152.272C200.033 152.907 198.727 153.224 197.289 153.224ZM197.289 151.516C198.297 151.516 199.231 151.292 200.089 150.844C200.948 150.377 201.639 149.687 202.161 148.772C202.703 147.839 202.973 146.7 202.973 145.356C202.973 144.012 202.712 142.883 202.189 141.968C201.667 141.035 200.976 140.344 200.117 139.896C199.259 139.429 198.325 139.196 197.317 139.196C196.309 139.196 195.376 139.429 194.517 139.896C193.659 140.344 192.968 141.035 192.445 141.968C191.941 142.883 191.689 144.012 191.689 145.356C191.689 146.7 191.941 147.839 192.445 148.772C192.968 149.687 193.649 150.377 194.489 150.844C195.348 151.292 196.281 151.516 197.289 151.516ZM218.178 141.072C218.663 140.045 219.429 139.196 220.474 138.524C221.538 137.833 222.798 137.488 224.254 137.488C225.635 137.488 226.877 137.815 227.978 138.468C229.098 139.103 229.966 140.017 230.582 141.212C231.217 142.388 231.534 143.76 231.534 145.328C231.534 146.896 231.217 148.277 230.582 149.472C229.966 150.667 229.098 151.591 227.978 152.244C226.877 152.897 225.635 153.224 224.254 153.224C222.817 153.224 221.566 152.888 220.502 152.216C219.438 151.525 218.663 150.667 218.178 149.64V160.224H216.246V137.712H218.178V141.072ZM229.546 145.328C229.546 144.059 229.294 142.967 228.79 142.052C228.305 141.119 227.633 140.409 226.774 139.924C225.915 139.439 224.945 139.196 223.862 139.196C222.817 139.196 221.855 139.448 220.978 139.952C220.119 140.456 219.438 141.175 218.934 142.108C218.43 143.041 218.178 144.124 218.178 145.356C218.178 146.588 218.43 147.671 218.934 148.604C219.438 149.537 220.119 150.256 220.978 150.76C221.855 151.264 222.817 151.516 223.862 151.516C224.945 151.516 225.915 151.273 226.774 150.788C227.633 150.284 228.305 149.565 228.79 148.632C229.294 147.68 229.546 146.579 229.546 145.328ZM241.832 153.224C240.395 153.224 239.098 152.907 237.94 152.272C236.802 151.619 235.896 150.704 235.224 149.528C234.571 148.333 234.244 146.943 234.244 145.356C234.244 143.769 234.58 142.388 235.252 141.212C235.924 140.017 236.839 139.103 237.996 138.468C239.154 137.815 240.451 137.488 241.888 137.488C243.326 137.488 244.623 137.815 245.78 138.468C246.956 139.103 247.871 140.017 248.524 141.212C249.196 142.388 249.532 143.769 249.532 145.356C249.532 146.924 249.196 148.305 248.524 149.5C247.852 150.695 246.928 151.619 245.752 152.272C244.576 152.907 243.27 153.224 241.832 153.224ZM241.832 151.516C242.84 151.516 243.774 151.292 244.632 150.844C245.491 150.377 246.182 149.687 246.704 148.772C247.246 147.839 247.516 146.7 247.516 145.356C247.516 144.012 247.255 142.883 246.732 141.968C246.21 141.035 245.519 140.344 244.66 139.896C243.802 139.429 242.868 139.196 241.86 139.196C240.852 139.196 239.919 139.429 239.06 139.896C238.202 140.344 237.511 141.035 236.988 141.968C236.484 142.883 236.232 144.012 236.232 145.356C236.232 146.7 236.484 147.839 236.988 148.772C237.511 149.687 238.192 150.377 239.032 150.844C239.891 151.292 240.824 151.516 241.832 151.516ZM255.065 140.428C255.495 139.476 256.148 138.739 257.025 138.216C257.921 137.693 259.013 137.432 260.301 137.432V139.476H259.769C258.351 139.476 257.212 139.859 256.353 140.624C255.495 141.389 255.065 142.668 255.065 144.46V153H253.105V137.712H255.065V140.428ZM284.765 144.572C284.765 145.244 284.747 145.757 284.709 146.112H272.025C272.081 147.269 272.361 148.259 272.865 149.08C273.369 149.901 274.032 150.527 274.853 150.956C275.675 151.367 276.571 151.572 277.541 151.572C278.811 151.572 279.875 151.264 280.733 150.648C281.611 150.032 282.189 149.201 282.469 148.156H284.541C284.168 149.649 283.365 150.872 282.133 151.824C280.92 152.757 279.389 153.224 277.541 153.224C276.104 153.224 274.816 152.907 273.677 152.272C272.539 151.619 271.643 150.704 270.989 149.528C270.355 148.333 270.037 146.943 270.037 145.356C270.037 143.769 270.355 142.379 270.989 141.184C271.624 139.989 272.511 139.075 273.649 138.44C274.788 137.805 276.085 137.488 277.541 137.488C278.997 137.488 280.267 137.805 281.349 138.44C282.451 139.075 283.291 139.933 283.869 141.016C284.467 142.08 284.765 143.265 284.765 144.572ZM282.777 144.516C282.796 143.377 282.563 142.407 282.077 141.604C281.611 140.801 280.967 140.195 280.145 139.784C279.324 139.373 278.428 139.168 277.457 139.168C276.001 139.168 274.76 139.635 273.733 140.568C272.707 141.501 272.137 142.817 272.025 144.516H282.777ZM293.615 153.224C291.861 153.224 290.423 152.823 289.303 152.02C288.202 151.199 287.586 150.088 287.455 148.688H289.471C289.565 149.547 289.966 150.247 290.675 150.788C291.403 151.311 292.374 151.572 293.587 151.572C294.651 151.572 295.482 151.32 296.079 150.816C296.695 150.312 297.003 149.687 297.003 148.94C297.003 148.417 296.835 147.988 296.499 147.652C296.163 147.316 295.734 147.055 295.211 146.868C294.707 146.663 294.017 146.448 293.139 146.224C292.001 145.925 291.077 145.627 290.367 145.328C289.658 145.029 289.051 144.591 288.547 144.012C288.062 143.415 287.819 142.621 287.819 141.632C287.819 140.885 288.043 140.195 288.491 139.56C288.939 138.925 289.574 138.421 290.395 138.048C291.217 137.675 292.15 137.488 293.195 137.488C294.838 137.488 296.163 137.908 297.171 138.748C298.179 139.569 298.721 140.708 298.795 142.164H296.835C296.779 141.268 296.425 140.549 295.771 140.008C295.137 139.448 294.259 139.168 293.139 139.168C292.15 139.168 291.347 139.401 290.731 139.868C290.115 140.335 289.807 140.913 289.807 141.604C289.807 142.201 289.985 142.696 290.339 143.088C290.713 143.461 291.17 143.76 291.711 143.984C292.253 144.189 292.981 144.423 293.895 144.684C294.997 144.983 295.874 145.272 296.527 145.552C297.181 145.832 297.741 146.243 298.207 146.784C298.674 147.325 298.917 148.044 298.935 148.94C298.935 149.761 298.711 150.499 298.263 151.152C297.815 151.787 297.19 152.291 296.387 152.664C295.585 153.037 294.661 153.224 293.615 153.224ZM307.889 153.224C306.134 153.224 304.697 152.823 303.577 152.02C302.475 151.199 301.859 150.088 301.729 148.688H303.745C303.838 149.547 304.239 150.247 304.949 150.788C305.677 151.311 306.647 151.572 307.861 151.572C308.925 151.572 309.755 151.32 310.353 150.816C310.969 150.312 311.277 149.687 311.277 148.94C311.277 148.417 311.109 147.988 310.773 147.652C310.437 147.316 310.007 147.055 309.485 146.868C308.981 146.663 308.29 146.448 307.413 146.224C306.274 145.925 305.35 145.627 304.641 145.328C303.931 145.029 303.325 144.591 302.821 144.012C302.335 143.415 302.093 142.621 302.093 141.632C302.093 140.885 302.317 140.195 302.765 139.56C303.213 138.925 303.847 138.421 304.669 138.048C305.49 137.675 306.423 137.488 307.469 137.488C309.111 137.488 310.437 137.908 311.445 138.748C312.453 139.569 312.994 140.708 313.069 142.164H311.109C311.053 141.268 310.698 140.549 310.045 140.008C309.41 139.448 308.533 139.168 307.413 139.168C306.423 139.168 305.621 139.401 305.005 139.868C304.389 140.335 304.081 140.913 304.081 141.604C304.081 142.201 304.258 142.696 304.613 143.088C304.986 143.461 305.443 143.76 305.985 143.984C306.526 144.189 307.254 144.423 308.169 144.684C309.27 144.983 310.147 145.272 310.801 145.552C311.454 145.832 312.014 146.243 312.481 146.784C312.947 147.325 313.19 148.044 313.209 148.94C313.209 149.761 312.985 150.499 312.537 151.152C312.089 151.787 311.463 152.291 310.661 152.664C309.858 153.037 308.934 153.224 307.889 153.224ZM316.002 145.328C316.002 143.76 316.31 142.388 316.926 141.212C317.561 140.017 318.429 139.103 319.53 138.468C320.65 137.815 321.91 137.488 323.31 137.488C324.766 137.488 326.017 137.824 327.062 138.496C328.126 139.168 328.892 140.027 329.358 141.072V137.712H331.318V153H329.358V149.612C328.873 150.657 328.098 151.525 327.034 152.216C325.989 152.888 324.738 153.224 323.282 153.224C321.901 153.224 320.65 152.897 319.53 152.244C318.429 151.591 317.561 150.667 316.926 149.472C316.31 148.277 316.002 146.896 316.002 145.328ZM329.358 145.356C329.358 144.124 329.106 143.041 328.602 142.108C328.098 141.175 327.408 140.456 326.53 139.952C325.672 139.448 324.72 139.196 323.674 139.196C322.592 139.196 321.621 139.439 320.762 139.924C319.904 140.409 319.222 141.119 318.718 142.052C318.233 142.967 317.99 144.059 317.99 145.328C317.99 146.579 318.233 147.68 318.718 148.632C319.222 149.565 319.904 150.284 320.762 150.788C321.621 151.273 322.592 151.516 323.674 151.516C324.72 151.516 325.672 151.264 326.53 150.76C327.408 150.256 328.098 149.537 328.602 148.604C329.106 147.671 329.358 146.588 329.358 145.356Z" fill="#39373E"/>
<path d="M75.2119 175.344V179.18H70.0039V195H65.2159V179.18H60.0079V175.344H75.2119ZM82.4029 181.98C82.9629 181.121 83.6629 180.449 84.5029 179.964C85.3429 179.46 86.2762 179.208 87.3029 179.208V184.276H85.9869C84.7922 184.276 83.8962 184.537 83.2989 185.06C82.7016 185.564 82.4029 186.46 82.4029 187.748V195H77.6149V179.376H82.4029V181.98ZM88.6395 187.16C88.6395 185.555 88.9381 184.145 89.5355 182.932C90.1515 181.719 90.9821 180.785 92.0275 180.132C93.0728 179.479 94.2395 179.152 95.5275 179.152C96.6288 179.152 97.5901 179.376 98.4115 179.824C99.2515 180.272 99.8955 180.86 100.343 181.588V179.376H105.131V195H100.343V192.788C99.8768 193.516 99.2235 194.104 98.3835 194.552C97.5621 195 96.6008 195.224 95.4995 195.224C94.2301 195.224 93.0728 194.897 92.0275 194.244C90.9821 193.572 90.1515 192.629 89.5355 191.416C88.9381 190.184 88.6395 188.765 88.6395 187.16ZM100.343 187.188C100.343 185.993 100.007 185.051 99.3355 184.36C98.6821 183.669 97.8795 183.324 96.9275 183.324C95.9755 183.324 95.1635 183.669 94.4915 184.36C93.8381 185.032 93.5115 185.965 93.5115 187.16C93.5115 188.355 93.8381 189.307 94.4915 190.016C95.1635 190.707 95.9755 191.052 96.9275 191.052C97.8795 191.052 98.6821 190.707 99.3355 190.016C100.007 189.325 100.343 188.383 100.343 187.188ZM118.115 179.208C119.945 179.208 121.401 179.805 122.483 181C123.585 182.176 124.135 183.8 124.135 185.872V195H119.375V186.516C119.375 185.471 119.105 184.659 118.563 184.08C118.022 183.501 117.294 183.212 116.379 183.212C115.465 183.212 114.737 183.501 114.195 184.08C113.654 184.659 113.383 185.471 113.383 186.516V195H108.595V179.376H113.383V181.448C113.869 180.757 114.522 180.216 115.343 179.824C116.165 179.413 117.089 179.208 118.115 179.208ZM133.819 195.224C132.456 195.224 131.243 194.991 130.179 194.524C129.115 194.057 128.275 193.423 127.659 192.62C127.043 191.799 126.697 190.884 126.623 189.876H131.355C131.411 190.417 131.663 190.856 132.111 191.192C132.559 191.528 133.109 191.696 133.763 191.696C134.36 191.696 134.817 191.584 135.135 191.36C135.471 191.117 135.639 190.809 135.639 190.436C135.639 189.988 135.405 189.661 134.939 189.456C134.472 189.232 133.716 188.989 132.671 188.728C131.551 188.467 130.617 188.196 129.871 187.916C129.124 187.617 128.48 187.16 127.939 186.544C127.397 185.909 127.127 185.06 127.127 183.996C127.127 183.1 127.369 182.288 127.855 181.56C128.359 180.813 129.087 180.225 130.039 179.796C131.009 179.367 132.157 179.152 133.483 179.152C135.443 179.152 136.983 179.637 138.103 180.608C139.241 181.579 139.895 182.867 140.063 184.472H135.639C135.564 183.931 135.321 183.501 134.911 183.184C134.519 182.867 133.996 182.708 133.343 182.708C132.783 182.708 132.353 182.82 132.055 183.044C131.756 183.249 131.607 183.539 131.607 183.912C131.607 184.36 131.84 184.696 132.307 184.92C132.792 185.144 133.539 185.368 134.547 185.592C135.704 185.891 136.647 186.189 137.375 186.488C138.103 186.768 138.737 187.235 139.279 187.888C139.839 188.523 140.128 189.381 140.147 190.464C140.147 191.379 139.885 192.2 139.363 192.928C138.859 193.637 138.121 194.197 137.151 194.608C136.199 195.019 135.088 195.224 133.819 195.224ZM150.916 183.352H148.34V195H143.552V183.352H141.816V179.376H143.552V178.928C143.552 177.005 144.103 175.549 145.204 174.56C146.305 173.552 147.92 173.048 150.048 173.048C150.403 173.048 150.664 173.057 150.832 173.076V177.136C149.917 177.08 149.273 177.211 148.9 177.528C148.527 177.845 148.34 178.415 148.34 179.236V179.376H150.916V183.352ZM160.278 195.224C158.747 195.224 157.366 194.897 156.134 194.244C154.92 193.591 153.959 192.657 153.25 191.444C152.559 190.231 152.214 188.812 152.214 187.188C152.214 185.583 152.568 184.173 153.278 182.96C153.987 181.728 154.958 180.785 156.19 180.132C157.422 179.479 158.803 179.152 160.334 179.152C161.864 179.152 163.246 179.479 164.478 180.132C165.71 180.785 166.68 181.728 167.39 182.96C168.099 184.173 168.454 185.583 168.454 187.188C168.454 188.793 168.09 190.212 167.362 191.444C166.652 192.657 165.672 193.591 164.422 194.244C163.19 194.897 161.808 195.224 160.278 195.224ZM160.278 191.08C161.192 191.08 161.967 190.744 162.602 190.072C163.255 189.4 163.582 188.439 163.582 187.188C163.582 185.937 163.264 184.976 162.63 184.304C162.014 183.632 161.248 183.296 160.334 183.296C159.4 183.296 158.626 183.632 158.01 184.304C157.394 184.957 157.086 185.919 157.086 187.188C157.086 188.439 157.384 189.4 157.982 190.072C158.598 190.744 159.363 191.08 160.278 191.08ZM175.782 181.98C176.342 181.121 177.042 180.449 177.882 179.964C178.722 179.46 179.655 179.208 180.682 179.208V184.276H179.366C178.171 184.276 177.275 184.537 176.678 185.06C176.08 185.564 175.782 186.46 175.782 187.748V195H170.994V179.376H175.782V181.98ZM202.906 179.208C204.848 179.208 206.388 179.796 207.526 180.972C208.684 182.148 209.262 183.781 209.262 185.872V195H204.502V186.516C204.502 185.508 204.232 184.733 203.69 184.192C203.168 183.632 202.44 183.352 201.506 183.352C200.573 183.352 199.836 183.632 199.294 184.192C198.772 184.733 198.51 185.508 198.51 186.516V195H193.75V186.516C193.75 185.508 193.48 184.733 192.938 184.192C192.416 183.632 191.688 183.352 190.754 183.352C189.821 183.352 189.084 183.632 188.542 184.192C188.02 184.733 187.758 185.508 187.758 186.516V195H182.97V179.376H187.758V181.336C188.244 180.683 188.878 180.169 189.662 179.796C190.446 179.404 191.333 179.208 192.322 179.208C193.498 179.208 194.544 179.46 195.458 179.964C196.392 180.468 197.12 181.187 197.642 182.12C198.184 181.261 198.921 180.561 199.854 180.02C200.788 179.479 201.805 179.208 202.906 179.208ZM211.659 187.16C211.659 185.555 211.958 184.145 212.555 182.932C213.171 181.719 214.002 180.785 215.047 180.132C216.092 179.479 217.259 179.152 218.547 179.152C219.648 179.152 220.61 179.376 221.431 179.824C222.271 180.272 222.915 180.86 223.363 181.588V179.376H228.151V195H223.363V192.788C222.896 193.516 222.243 194.104 221.403 194.552C220.582 195 219.62 195.224 218.519 195.224C217.25 195.224 216.092 194.897 215.047 194.244C214.002 193.572 213.171 192.629 212.555 191.416C211.958 190.184 211.659 188.765 211.659 187.16ZM223.363 187.188C223.363 185.993 223.027 185.051 222.355 184.36C221.702 183.669 220.899 183.324 219.947 183.324C218.995 183.324 218.183 183.669 217.511 184.36C216.858 185.032 216.531 185.965 216.531 187.16C216.531 188.355 216.858 189.307 217.511 190.016C218.183 190.707 218.995 191.052 219.947 191.052C220.899 191.052 221.702 190.707 222.355 190.016C223.027 189.325 223.363 188.383 223.363 187.188ZM238.419 191.136C239.651 191.136 240.482 190.539 240.911 189.344H246.007C245.652 190.931 244.943 192.228 243.879 193.236C242.815 194.244 241.49 194.869 239.903 195.112V196.148C240.874 196.148 241.723 196.409 242.451 196.932C243.179 197.473 243.543 198.276 243.543 199.34C243.543 200.404 243.16 201.207 242.395 201.748C241.63 202.308 240.715 202.588 239.651 202.588H235.339V199.956H239.007C239.38 199.956 239.66 199.9 239.847 199.788C240.034 199.676 240.127 199.489 240.127 199.228C240.127 198.967 240.034 198.78 239.847 198.668C239.66 198.575 239.38 198.528 239.007 198.528H237.019V195.112C235.096 194.813 233.556 193.964 232.399 192.564C231.242 191.145 230.663 189.353 230.663 187.188C230.663 185.564 230.99 184.145 231.643 182.932C232.315 181.719 233.239 180.785 234.415 180.132C235.61 179.479 236.972 179.152 238.503 179.152C240.463 179.152 242.096 179.665 243.403 180.692C244.728 181.719 245.596 183.165 246.007 185.032H240.911C240.482 183.837 239.651 183.24 238.419 183.24C237.542 183.24 236.842 183.585 236.319 184.276C235.796 184.948 235.535 185.919 235.535 187.188C235.535 188.457 235.796 189.437 236.319 190.128C236.842 190.8 237.542 191.136 238.419 191.136ZM247.616 187.16C247.616 185.555 247.915 184.145 248.512 182.932C249.128 181.719 249.959 180.785 251.004 180.132C252.049 179.479 253.216 179.152 254.504 179.152C255.605 179.152 256.567 179.376 257.388 179.824C258.228 180.272 258.872 180.86 259.32 181.588V179.376H264.108V195H259.32V192.788C258.853 193.516 258.2 194.104 257.36 194.552C256.539 195 255.577 195.224 254.476 195.224C253.207 195.224 252.049 194.897 251.004 194.244C249.959 193.572 249.128 192.629 248.512 191.416C247.915 190.184 247.616 188.765 247.616 187.16ZM259.32 187.188C259.32 185.993 258.984 185.051 258.312 184.36C257.659 183.669 256.856 183.324 255.904 183.324C254.952 183.324 254.14 183.669 253.468 184.36C252.815 185.032 252.488 185.965 252.488 187.16C252.488 188.355 252.815 189.307 253.468 190.016C254.14 190.707 254.952 191.052 255.904 191.052C256.856 191.052 257.659 190.707 258.312 190.016C258.984 189.325 259.32 188.383 259.32 187.188ZM250.836 178.06C251.284 175.297 252.572 173.916 254.7 173.916C255.111 173.916 255.465 173.981 255.764 174.112C256.081 174.224 256.464 174.401 256.912 174.644C257.248 174.831 257.519 174.971 257.724 175.064C257.929 175.139 258.144 175.176 258.368 175.176C259.059 175.176 259.46 174.756 259.572 173.916H262.036C261.588 176.679 260.3 178.06 258.172 178.06C257.761 178.06 257.397 178.004 257.08 177.892C256.781 177.761 256.408 177.575 255.96 177.332C255.624 177.145 255.353 177.015 255.148 176.94C254.943 176.847 254.728 176.8 254.504 176.8C253.813 176.8 253.403 177.22 253.272 178.06H250.836ZM274.684 195.224C273.153 195.224 271.772 194.897 270.54 194.244C269.327 193.591 268.365 192.657 267.656 191.444C266.965 190.231 266.62 188.812 266.62 187.188C266.62 185.583 266.975 184.173 267.684 182.96C268.393 181.728 269.364 180.785 270.596 180.132C271.828 179.479 273.209 179.152 274.74 179.152C276.271 179.152 277.652 179.479 278.884 180.132C280.116 180.785 281.087 181.728 281.796 182.96C282.505 184.173 282.86 185.583 282.86 187.188C282.86 188.793 282.496 190.212 281.768 191.444C281.059 192.657 280.079 193.591 278.828 194.244C277.596 194.897 276.215 195.224 274.684 195.224ZM274.684 191.08C275.599 191.08 276.373 190.744 277.008 190.072C277.661 189.4 277.988 188.439 277.988 187.188C277.988 185.937 277.671 184.976 277.036 184.304C276.42 183.632 275.655 183.296 274.74 183.296C273.807 183.296 273.032 183.632 272.416 184.304C271.8 184.957 271.492 185.919 271.492 187.188C271.492 188.439 271.791 189.4 272.388 190.072C273.004 190.744 273.769 191.08 274.684 191.08Z" fill="#FF5F64"/>
<path d="M128.357 4.913V5.667H125.835V14H124.925V5.667H122.39V4.913H128.357ZM131.744 5.654V9.047H135.189V9.801H131.744V13.246H135.579V14H130.834V4.9H135.579V5.654H131.744ZM141.168 14.091C140.57 14.091 140.041 13.987 139.582 13.779C139.131 13.571 138.776 13.2807 138.516 12.908C138.256 12.5353 138.117 12.1193 138.1 11.66H139.062C139.105 12.102 139.3 12.492 139.647 12.83C139.994 13.1593 140.501 13.324 141.168 13.324C141.783 13.324 142.269 13.168 142.624 12.856C142.988 12.5353 143.17 12.1323 143.17 11.647C143.17 11.257 143.07 10.945 142.871 10.711C142.672 10.4683 142.425 10.2907 142.13 10.178C141.835 10.0567 141.428 9.92667 140.908 9.788C140.301 9.62333 139.82 9.463 139.465 9.307C139.11 9.151 138.806 8.90833 138.555 8.579C138.304 8.24967 138.178 7.80333 138.178 7.24C138.178 6.772 138.299 6.356 138.542 5.992C138.785 5.61933 139.127 5.329 139.569 5.121C140.011 4.913 140.518 4.809 141.09 4.809C141.931 4.809 142.607 5.017 143.118 5.433C143.638 5.84033 143.937 6.369 144.015 7.019H143.027C142.966 6.64633 142.763 6.317 142.416 6.031C142.069 5.73633 141.601 5.589 141.012 5.589C140.466 5.589 140.011 5.73633 139.647 6.031C139.283 6.317 139.101 6.71133 139.101 7.214C139.101 7.59533 139.201 7.903 139.4 8.137C139.599 8.371 139.846 8.54867 140.141 8.67C140.444 8.79133 140.852 8.92133 141.363 9.06C141.952 9.22467 142.429 9.38933 142.793 9.554C143.157 9.71 143.465 9.95267 143.716 10.282C143.967 10.6113 144.093 11.0533 144.093 11.608C144.093 12.0327 143.98 12.4357 143.755 12.817C143.53 13.1983 143.196 13.506 142.754 13.74C142.312 13.974 141.783 14.091 141.168 14.091ZM152.208 4.913V5.667H149.686V14H148.776V5.667H146.241V4.913H152.208ZM155.595 5.654V9.047H159.04V9.801H155.595V13.246H159.43V14H154.685V4.9H159.43V5.654H155.595ZM171.142 5.03V14H170.232V6.837L167.034 14H166.371L163.173 6.863V14H162.263V5.03H163.225L166.696 12.804L170.167 5.03H171.142ZM175.118 4.913V10.633C175.118 11.5343 175.33 12.2017 175.755 12.635C176.188 13.0683 176.777 13.285 177.523 13.285C178.268 13.285 178.849 13.0727 179.265 12.648C179.689 12.2147 179.902 11.543 179.902 10.633V4.913H180.812V10.62C180.812 11.7727 180.504 12.6393 179.889 13.22C179.282 13.8007 178.489 14.091 177.51 14.091C176.53 14.091 175.733 13.8007 175.118 13.22C174.511 12.6393 174.208 11.7727 174.208 10.62V4.913H175.118ZM190.733 14H189.823L184.792 6.356V14H183.882V4.913H184.792L189.823 12.544V4.913H190.733V14ZM200.581 4.913V14H199.671V9.749H194.744V14H193.834V4.913H194.744V8.995H199.671V4.913H200.581ZM207.779 14.091C206.938 14.091 206.176 13.896 205.491 13.506C204.806 13.1073 204.265 12.557 203.866 11.855C203.476 11.1443 203.281 10.3427 203.281 9.45C203.281 8.55733 203.476 7.76 203.866 7.058C204.265 6.34733 204.806 5.797 205.491 5.407C206.176 5.00833 206.938 4.809 207.779 4.809C208.628 4.809 209.395 5.00833 210.08 5.407C210.765 5.797 211.302 6.34733 211.692 7.058C212.082 7.76 212.277 8.55733 212.277 9.45C212.277 10.3427 212.082 11.1443 211.692 11.855C211.302 12.557 210.765 13.1073 210.08 13.506C209.395 13.896 208.628 14.091 207.779 14.091ZM207.779 13.298C208.455 13.298 209.062 13.142 209.599 12.83C210.136 12.518 210.561 12.0717 210.873 11.491C211.185 10.9017 211.341 10.2213 211.341 9.45C211.341 8.67867 211.185 8.00267 210.873 7.422C210.561 6.84133 210.136 6.395 209.599 6.083C209.062 5.771 208.455 5.615 207.779 5.615C207.103 5.615 206.496 5.771 205.959 6.083C205.422 6.395 204.997 6.84133 204.685 7.422C204.373 8.00267 204.217 8.67867 204.217 9.45C204.217 10.2213 204.373 10.9017 204.685 11.491C204.997 12.0717 205.422 12.518 205.959 12.83C206.496 13.142 207.103 13.298 207.779 13.298ZM217.738 14.091C217.14 14.091 216.611 13.987 216.152 13.779C215.701 13.571 215.346 13.2807 215.086 12.908C214.826 12.5353 214.687 12.1193 214.67 11.66H215.632C215.675 12.102 215.87 12.492 216.217 12.83C216.564 13.1593 217.071 13.324 217.738 13.324C218.353 13.324 218.839 13.168 219.194 12.856C219.558 12.5353 219.74 12.1323 219.74 11.647C219.74 11.257 219.64 10.945 219.441 10.711C219.242 10.4683 218.995 10.2907 218.7 10.178C218.405 10.0567 217.998 9.92667 217.478 9.788C216.871 9.62333 216.39 9.463 216.035 9.307C215.68 9.151 215.376 8.90833 215.125 8.579C214.874 8.24967 214.748 7.80333 214.748 7.24C214.748 6.772 214.869 6.356 215.112 5.992C215.355 5.61933 215.697 5.329 216.139 5.121C216.581 4.913 217.088 4.809 217.66 4.809C218.501 4.809 219.177 5.017 219.688 5.433C220.208 5.84033 220.507 6.369 220.585 7.019H219.597C219.536 6.64633 219.333 6.317 218.986 6.031C218.639 5.73633 218.171 5.589 217.582 5.589C217.036 5.589 216.581 5.73633 216.217 6.031C215.853 6.317 215.671 6.71133 215.671 7.214C215.671 7.59533 215.771 7.903 215.97 8.137C216.169 8.371 216.416 8.54867 216.711 8.67C217.014 8.79133 217.422 8.92133 217.933 9.06C218.522 9.22467 218.999 9.38933 219.363 9.554C219.727 9.71 220.035 9.95267 220.286 10.282C220.537 10.6113 220.663 11.0533 220.663 11.608C220.663 12.0327 220.55 12.4357 220.325 12.817C220.1 13.1983 219.766 13.506 219.324 13.74C218.882 13.974 218.353 14.091 217.738 14.091Z" fill="#39373E"/>
</svg>
