<svg width="79" height="135" viewBox="0 0 79 135" fill="none" xmlns="http://www.w3.org/2000/svg">
<path d="M111.931 38.7299C113.222 38.9607 113.757 40.5199 112.879 41.4944L108.627 46.2175C107.916 47.0063 108.111 48.2486 109.029 48.7819L114.537 51.9822C115.672 52.6413 115.64 54.2906 114.481 54.9051L108.882 57.8725C107.943 58.3702 107.701 59.6063 108.382 60.4218L112.47 65.3128C113.313 66.321 112.717 67.8623 111.415 68.0413L105.152 68.9027C104.097 69.0478 103.445 70.1292 103.809 71.1301L105.983 77.112C106.433 78.3487 105.343 79.596 104.057 79.317L97.8826 77.9776C96.8399 77.7514 95.8551 78.5465 95.8563 79.6134L95.8634 85.9601C95.8649 87.2773 94.4133 88.0788 93.2993 87.3759L87.9473 83.9988C87.0444 83.4291 85.8461 83.8401 85.4829 84.8441L83.3304 90.7952C82.8824 92.0339 81.2444 92.292 80.4371 91.2512L76.5473 86.2362C75.8934 85.3932 74.6279 85.37 73.9436 86.1885L69.8908 91.036C69.0467 92.0456 67.4212 91.7295 67.017 90.4772L65.062 84.4201C64.7349 83.4066 63.5562 82.9532 62.6342 83.4862L57.1613 86.65C56.0239 87.3076 54.6073 86.4565 54.6537 85.1435L54.8789 78.7732C54.9164 77.7111 53.9663 76.884 52.9195 77.0674L46.6783 78.1608C45.386 78.3872 44.3484 77.1049 44.8395 75.8882L47.2239 69.9807C47.6211 68.9964 47.0126 67.8959 45.9677 67.7091L39.7114 66.5905C38.4206 66.3597 37.8858 64.8005 38.7632 63.826L43.0159 59.1029C43.7261 58.3141 43.531 57.0718 42.6133 56.5386L37.1049 53.3382C35.9705 52.6791 36.0026 51.0298 37.1618 50.4154L42.7602 47.4479C43.6992 46.9502 43.9416 45.7141 43.26 44.8986L39.1723 40.0076C38.3298 38.9995 38.9258 37.4581 40.2274 37.2791L46.49 36.4178C47.545 36.2727 48.1973 35.1913 47.8335 34.1903L45.6592 28.2084C45.2097 26.9717 46.299 25.7244 47.585 26.0034L53.7598 27.3428C54.8025 27.569 55.7873 26.7739 55.7861 25.707L55.779 19.3603C55.7775 18.0431 57.2291 17.2416 58.3431 17.9445L63.6951 21.3216C64.598 21.8913 65.7963 21.4803 66.1595 20.4763L68.312 14.5252C68.76 13.2865 70.398 13.0284 71.2053 14.0692L75.0951 19.0842C75.749 19.9272 77.0145 19.9504 77.6988 19.1319L81.7516 14.2844C82.5957 13.2749 84.2212 13.591 84.6254 14.8433L86.5804 20.9004C86.9075 21.9139 88.0862 22.3673 89.0082 21.8343L94.4811 18.6704C95.6186 18.0129 97.0351 18.8639 96.9887 20.1769L96.7636 26.5472C96.726 27.6093 97.6761 28.4365 98.7229 28.2531L104.964 27.1596C106.256 26.9332 107.294 28.2155 106.803 29.4322L104.419 35.3397C104.021 36.324 104.63 37.4245 105.675 37.6113L111.931 38.7299Z" fill="black"/>
<path d="M59.8712 73.7396C60.1812 73.5298 60.5128 73.4923 60.8662 73.627L61.3003 73.7925L60.6244 75.628L59.7517 75.2953L58.7515 78.012L56.9238 77.3152L57.924 74.5985L57.234 74.3355L57.9098 72.5L58.5998 72.763L59.0053 71.6616C59.3072 70.8418 59.845 70.5793 60.6187 70.8743L62.1586 71.4613L61.5503 73.1133L61.235 72.9931C61.101 72.942 60.9815 72.9174 60.8766 72.9193C60.7729 72.9181 60.6736 72.9518 60.5789 73.0203L59.7447 73.6443L59.8302 73.7658L59.8712 73.7396Z" fill="#FF5F64"/>
<path d="M67.5663 82.2778C67.3056 82.3542 67.0683 82.4016 66.8543 82.4198C66.6423 82.4407 66.4426 82.4225 66.2554 82.3651C66.0707 82.3057 65.8925 82.2014 65.7206 82.0523C65.548 81.9077 65.373 81.7085 65.1956 81.4546C64.768 80.8427 64.5806 80.29 64.6334 79.7967C64.6882 79.3059 64.9781 78.8701 65.5033 78.4892C66.0258 78.1102 66.5203 77.9729 66.987 78.0774C67.4537 78.1818 67.8952 78.532 68.3117 79.1279C68.4424 79.3149 68.55 79.4945 68.6346 79.6668C68.721 79.8416 68.7889 80.0099 68.8382 80.1714C68.8901 80.3311 68.927 80.4835 68.9489 80.6287C68.9735 80.7719 68.9879 80.9064 68.9923 81.0321L69.0516 80.989C69.1493 80.9182 69.2185 80.8237 69.2592 80.7056C69.3026 80.5856 69.3144 80.4461 69.2948 80.2872C69.2779 80.1263 69.2258 79.9466 69.1388 79.748C69.0536 79.5521 68.9316 79.3406 68.7728 79.1135C68.5824 78.8409 68.3795 78.6075 68.1643 78.4133C67.9517 78.2172 67.7132 78.0439 67.4489 77.8933L69.4455 77.6349L70.2215 78.7452C70.5576 79.2262 70.7938 79.6609 70.93 80.0493C71.0663 80.4377 71.1207 80.7888 71.0935 81.1026C71.068 81.419 70.9682 81.7029 70.7938 81.9541C70.6221 82.2035 70.3951 82.4306 70.1127 82.6354L67.4765 84.5477L66.356 82.9444L67.6092 82.4159L67.5663 82.2778ZM67.1664 81.0398C67.2785 81.2001 67.3763 81.3345 67.46 81.4429C67.5464 81.5494 67.6208 81.6303 67.6833 81.6856C67.7477 81.7436 67.8021 81.7787 67.8464 81.7908C67.8952 81.8038 67.938 81.7968 67.975 81.77C68.0093 81.7451 68.0271 81.7081 68.0284 81.6588C68.0317 81.6121 68.0169 81.5483 67.9842 81.4674C67.9533 81.3891 67.9013 81.2919 67.8282 81.1759C67.7577 81.0579 67.6664 80.9187 67.5543 80.7584C67.4385 80.5927 67.3365 80.4553 67.2483 80.3461C67.1646 80.2377 67.0906 80.1545 67.0262 80.0966C66.9644 80.0366 66.9105 79.9993 66.8643 79.9844C66.82 79.9723 66.7794 79.9796 66.7425 80.0064C66.7055 80.0332 66.6841 80.0709 66.6783 80.1194C66.6769 80.1687 66.6926 80.2338 66.7254 80.3148C66.7581 80.3957 66.8097 80.4952 66.8802 80.6132C66.9552 80.7319 67.0506 80.8741 67.1664 81.0398Z" fill="#FF5F64"/>
<path d="M71.3099 91.1215C71.3984 91.108 71.4949 91.0997 71.5994 91.0966C71.7071 91.0935 71.8147 91.0937 71.9223 91.0972C72.0298 91.1007 72.1356 91.1073 72.2396 91.1172C72.3469 91.1305 72.4442 91.1466 72.5316 91.1658L75.8015 91.8827L75.7381 93.8719L70.1993 92.6562L70.3112 89.147L75.916 88.2903L75.8526 90.2796L71.2802 90.9787L71.2951 91.1259L71.3099 91.1215Z" fill="#FF5F64"/>
<path d="M70.8308 101.102C70.6971 101.076 70.5701 101.103 70.4498 101.181C70.332 101.261 70.2033 101.39 70.0636 101.566L68.4509 103.601L67.2677 101.945L68.4946 100.397C69.1222 99.6049 69.7726 99.1647 70.4455 99.0765C71.1165 98.9908 71.8159 99.247 72.5438 99.8451C73.2717 100.443 73.6728 101.079 73.747 101.751C73.8191 102.427 73.5535 103.145 72.9501 103.906C72.6485 104.287 72.3409 104.581 72.0275 104.787C71.7167 104.996 71.4055 105.126 71.0939 105.178C70.7824 105.23 70.4731 105.206 70.166 105.105C69.8614 105.007 69.5655 104.84 69.2783 104.604C69.0164 104.389 68.7989 104.149 68.6259 103.884L70.8308 101.102ZM70.3953 103.155C70.5363 103.271 70.6826 103.296 70.8342 103.231C70.9863 103.17 71.1696 103.004 71.3842 102.733C71.5685 102.501 71.6815 102.301 71.7232 102.132C71.7655 101.969 71.7227 101.805 71.5949 101.641L70.3953 103.155Z" fill="#FF5F64"/>
<path d="M63.5268 106.014L65.9551 112.936L64.1175 113.606L61.6892 106.684L63.5268 106.014Z" fill="#FF5F64"/>
<path d="M52.9222 109.335C53.065 109.103 53.2098 108.908 53.3568 108.75C53.5006 108.592 53.6614 108.47 53.8394 108.386C54.0167 108.305 54.2193 108.261 54.4474 108.254C54.6729 108.244 54.9369 108.272 55.2394 108.338C55.9685 108.499 56.4789 108.778 56.7708 109.176C57.0595 109.574 57.1362 110.09 57.0011 110.724C56.8666 111.355 56.5907 111.79 56.1732 112.029C55.7558 112.268 55.192 112.309 54.482 112.152C54.2592 112.103 54.0585 112.044 53.8799 111.975C53.6982 111.905 53.5348 111.827 53.3896 111.742C53.2438 111.659 53.114 111.572 53.0002 111.481C52.8858 111.392 52.7847 111.303 52.6971 111.214L52.6818 111.285C52.6567 111.403 52.6687 111.519 52.7176 111.634C52.766 111.751 52.8508 111.862 52.972 111.965C53.0926 112.072 53.252 112.169 53.4501 112.256C53.6451 112.342 53.8778 112.415 54.1485 112.474C54.4732 112.546 54.7809 112.58 55.0714 112.578C55.3613 112.578 55.6552 112.544 55.953 112.476L54.6403 114.015L53.3175 113.724C52.7444 113.597 52.2768 113.438 51.9146 113.244C51.5525 113.051 51.2762 112.83 51.0859 112.581C50.8924 112.332 50.7762 112.056 50.7373 111.754C50.6977 111.454 50.7142 111.134 50.7868 110.793L51.4653 107.608L53.3756 108.028L52.7976 109.263L52.9222 109.335ZM54.051 109.975C53.8599 109.932 53.6969 109.9 53.5618 109.877C53.4261 109.857 53.3163 109.848 53.2327 109.849C53.1458 109.85 53.0818 109.861 53.0407 109.882C52.9957 109.906 52.9684 109.94 52.9589 109.984C52.9501 110.026 52.9617 110.065 52.9938 110.102C53.0227 110.139 53.0765 110.176 53.1552 110.213C53.2308 110.25 53.3347 110.286 53.4671 110.322C53.5988 110.361 53.7601 110.401 53.9511 110.443C54.1485 110.487 54.3167 110.519 54.4556 110.539C54.5907 110.562 54.7017 110.573 54.7885 110.573C54.8747 110.575 54.94 110.566 54.9843 110.546C55.0254 110.525 55.0507 110.492 55.0602 110.447C55.0697 110.402 55.0604 110.36 55.0322 110.321C55.0001 110.284 54.9447 110.246 54.866 110.209C54.7873 110.172 54.6821 110.133 54.5504 110.094C54.4148 110.058 54.2484 110.018 54.051 109.975Z" fill="#FF5F64"/>
<path d="M44.6135 104.042L45.1853 104.645C45.6316 105.116 45.8541 105.58 45.8529 106.039C45.847 106.497 45.6384 106.928 45.227 107.333L43.9438 108.595L44.233 108.9L42.8383 110.271L40.5863 109.153L41.2035 108.546L40.6417 107.953L42.0365 106.582L42.5982 107.175L43.5118 106.277C43.6164 106.174 43.6627 106.076 43.6506 105.982C43.634 105.889 43.5674 105.781 43.4508 105.658L43.064 105.25L44.6135 104.042Z" fill="#FF5F64"/>
<path d="M38.329 99.5208C38.4353 99.4336 38.4982 99.3183 38.5177 99.1749C38.534 99.0322 38.5213 98.8503 38.4797 98.6293L37.9995 96.0774L40.0166 96.2202L40.382 98.1617C40.5689 99.1549 40.4762 99.9404 40.104 100.518C39.7312 101.093 39.0825 101.471 38.1579 101.652C37.2333 101.833 36.4938 101.738 35.9393 101.365C35.3842 100.988 35.0168 100.323 34.8372 99.3682C34.7473 98.8908 34.7268 98.4646 34.7757 98.0896C34.8213 97.7153 34.9261 97.3908 35.0901 97.1161C35.254 96.8415 35.4739 96.6173 35.7497 96.4437C36.0223 96.2706 36.341 96.1484 36.7057 96.0769C37.0384 96.0117 37.3607 95.9967 37.6725 96.0319L38.329 99.5208ZM37.0679 97.8695C36.8887 97.9046 36.7743 98.0018 36.7247 98.161C36.6712 98.3177 36.6765 98.5658 36.7404 98.9054C36.7952 99.197 36.8723 99.4127 36.9717 99.5527C37.0672 99.6901 37.2183 99.7618 37.4251 99.7678L37.0679 97.8695Z" fill="#FF5F64"/>
<path d="M38.8227 84.7323C39.6214 85.1687 40.1186 85.703 40.3143 86.3351C40.51 86.9673 40.3977 87.7068 39.9774 88.5536C39.5455 89.4238 39.0106 89.9625 38.3728 90.1697C37.7336 90.3724 36.9878 90.2546 36.1354 89.8163C35.2831 89.3779 34.7475 88.8367 34.5286 88.1926C34.3082 87.5441 34.414 86.7848 34.846 85.9146C35.2663 85.0677 35.7838 84.5384 36.3983 84.3267C37.0144 84.112 37.7297 84.1995 38.5444 84.5891L37.6726 86.3456C37.4189 86.2334 37.2087 86.2133 37.042 86.2852C36.8753 86.3571 36.7231 86.5318 36.5854 86.8092C36.5101 86.961 36.46 87.0984 36.4354 87.2214C36.4122 87.3414 36.418 87.4507 36.4528 87.5492C36.4847 87.6463 36.5456 87.7362 36.6355 87.8191C36.7253 87.902 36.8457 87.9822 36.9964 88.0597C37.1472 88.1372 37.2834 88.189 37.4052 88.215C37.524 88.2394 37.6328 88.2367 37.7313 88.2067C37.827 88.1753 37.9154 88.1145 37.9966 88.0243C38.0792 87.9311 38.1582 87.8086 38.2336 87.6568C38.3713 87.3794 38.4191 87.1511 38.377 86.9718C38.3321 86.7911 38.19 86.6301 37.9509 86.4887L38.8227 84.7323Z" fill="#FF5F64"/>
<path d="M48.1976 79.1958L46.4466 80.0675L45.2462 77.5627C45.0996 77.2569 44.9333 77.0721 44.7473 77.0081C44.5612 76.9442 44.3339 76.9791 44.0654 77.1127C43.7969 77.2464 43.6331 77.4062 43.5741 77.5922C43.5179 77.7767 43.5631 78.0218 43.7096 78.3276L44.91 80.8323L43.159 81.704L39.9889 75.0893L41.7399 74.2176L42.5029 75.8096L42.5516 76.692L42.6996 76.6839C42.6924 76.4653 42.7146 76.274 42.7661 76.11C42.8162 75.9431 42.8886 75.796 42.983 75.6689C43.0775 75.5417 43.1936 75.4293 43.3311 75.3317C43.4687 75.2341 43.6207 75.1439 43.787 75.0611C44.4495 74.7313 45.0455 74.7041 45.5751 74.9794C46.1076 75.2532 46.5802 75.8208 46.993 76.6822L48.1976 79.1958Z" fill="#FF5F64"/>
</svg>
