<svg width="150" height="150" viewBox="0 0 150 150" fill="none" xmlns="http://www.w3.org/2000/svg">
<circle cx="75" cy="75" r="75" fill="#0DAFC6"/>
<path d="M67.5 45C62.725 45 58.8575 48.4675 57.89 52.97C52.06 54.01 47.5 58.875 47.5 65C47.5 65.615 47.5675 66.1625 47.6575 66.72C46.045 69.09 45 71.8825 45 75C45 79.4925 47.2375 83.2725 50.39 86.015C50.165 86.905 50 87.7925 50 88.75C50 94.9325 55.0675 100 61.25 100H61.4075C62.8625 102.822 65.3825 105 68.75 105C69.9165 104.997 71.0707 104.761 72.1442 104.304C73.2177 103.848 74.1888 103.181 75 102.342C75.8112 103.181 76.7823 103.848 77.8558 104.304C78.9293 104.761 80.0835 104.997 81.25 105C84.62 105 87.1375 102.822 88.595 100H88.75C94.62 100 99.4325 95.43 99.9225 89.6875H100C100 89.53 99.9325 89.375 99.9225 89.2175C99.9325 89.0625 100 88.905 100 88.75C100 87.8225 99.6675 87.03 99.4525 86.1725C102.695 83.4175 105 79.5725 105 75C105 71.885 103.955 69.0925 102.342 66.7175C102.432 66.1625 102.5 65.6175 102.5 65C102.5 58.875 97.94 54.0125 92.11 52.9675C91.1425 48.47 87.275 45 82.5 45C79.5 45 76.835 46.3975 75 48.515C73.165 46.4 70.5 45 67.5 45ZM67.5 50C70.2925 50 72.5 52.2075 72.5 55V60C72.5 64.17 69.17 67.5 65 67.5V72.5C67.8325 72.5 70.4 71.525 72.5 69.9225V96.25C72.5 98.35 70.85 100 68.75 100C67.8753 100.012 67.025 99.7121 66.3518 99.1535C65.6786 98.5948 65.2268 97.8144 65.0775 96.9525L64.61 94.5325L62.1875 94.9225C61.2974 95.0631 60.3873 95.0085 59.5204 94.7626C58.6534 94.5166 57.8503 94.0851 57.1667 93.498C56.483 92.9109 55.9352 92.1822 55.561 91.3623C55.1869 90.5425 54.9955 89.6511 55 88.75C55 87.9775 55.125 87.255 55.39 86.5625C55.41 86.505 55.45 86.4625 55.4675 86.405C55.8511 85.452 56.4666 84.6099 57.2581 83.955C58.0496 83.3002 58.992 82.8533 60 82.655L58.985 77.735C56.4335 78.239 54.139 79.6206 52.5 81.64C50.8745 79.8118 49.9839 77.4463 50 75C49.9957 72.7518 50.7685 70.5713 52.1875 68.8275L52.97 67.89L52.735 66.64C52.5933 66.1043 52.5145 65.5539 52.5 65C52.5 60.83 55.83 57.5 60 57.5H62.5V55C62.5 52.2075 64.7075 50 67.5 50ZM82.5 50C85.2925 50 87.5 52.2075 87.5 55V57.5H90C94.17 57.5 97.5 60.83 97.5 65C97.5 65.5375 97.4 66.055 97.265 66.64L97.0325 67.89L97.8125 68.8275C99.2315 70.5713 100.004 72.7518 100 75C100 78 98.72 80.675 96.64 82.5C94.9325 80.9875 92.755 80 90.3125 80C87.95 80 85.82 80.84 84.14 82.265L87.345 86.095C88.1698 85.3841 89.2237 84.9952 90.3125 85C92.725 85 94.6475 86.8075 94.9225 89.14C94.7175 92.4325 92.09 95 88.75 95C88.525 95 88.25 94.99 87.8125 94.9225L85.39 94.53L84.9225 96.955C84.7727 97.8165 84.3206 98.5963 83.6475 99.1544C82.9744 99.7125 82.1243 100.012 81.25 100C79.15 100 77.5 98.35 77.5 96.25V69.9225C79.6464 71.587 82.2838 72.4934 85 72.5V67.5C80.83 67.5 77.5 64.17 77.5 60V55C77.5 52.2075 79.7075 50 82.5 50Z" fill="white"/>
</svg>
