<svg width="64" height="64" viewBox="0 0 64 64" fill="none" xmlns="http://www.w3.org/2000/svg">
<circle cx="32" cy="32" r="32" fill="white"/>
<path d="M26.5273 18C21.8465 18 18 21.8412 18 26.5273V38.4727C18 43.1535 21.8412 47 26.5273 47H38.4727C43.1535 47 47 43.1588 47 38.4727V26.5286C47 21.8465 43.1588 18 38.4727 18H26.5273ZM26.5273 20.6364H38.4727C39.2466 20.6353 40.0131 20.787 40.7283 21.0827C41.4435 21.3783 42.0933 21.8122 42.6405 22.3595C43.1878 22.9067 43.6217 23.5565 43.9173 24.2717C44.213 24.9869 44.3647 25.7534 44.3636 26.5273V38.4727C44.3647 39.2466 44.213 40.0131 43.9173 40.7283C43.6217 41.4435 43.1878 42.0933 42.6405 42.6405C42.0933 43.1878 41.4435 43.6217 40.7283 43.9173C40.0131 44.213 39.2466 44.3647 38.4727 44.3636H26.5286C25.7546 44.3649 24.988 44.2133 24.2726 43.9177C23.5573 43.6221 22.9073 43.1883 22.3599 42.641C21.8126 42.0938 21.3786 41.4439 21.0828 40.7286C20.787 40.0133 20.6353 39.2467 20.6364 38.4727V26.5286C20.6351 25.7546 20.7867 24.988 21.0823 24.2726C21.3779 23.5573 21.8117 22.9073 22.359 22.3599C22.9062 21.8126 23.5561 21.3786 24.2714 21.0828C24.9867 20.787 25.7533 20.6353 26.5273 20.6364ZM40.2852 23.5205C40.1282 23.5198 39.9725 23.5503 39.8273 23.61C39.6821 23.6698 39.5502 23.7577 39.4391 23.8688C39.3281 23.9798 39.2402 24.1118 39.1804 24.257C39.1206 24.4022 39.0902 24.5578 39.0909 24.7148C39.0909 25.3792 39.6208 25.9091 40.2852 25.9091C40.4423 25.91 40.5981 25.8797 40.7434 25.82C40.8888 25.7603 41.0209 25.6724 41.1321 25.5613C41.2432 25.4503 41.3313 25.3183 41.3912 25.173C41.451 25.0277 41.4815 24.872 41.4808 24.7148C41.4815 24.5577 41.451 24.402 41.3912 24.2567C41.3313 24.1114 41.2432 23.9794 41.1321 23.8683C41.0209 23.7573 40.8888 23.6693 40.7434 23.6097C40.5981 23.55 40.4423 23.5197 40.2852 23.5205ZM32.5 24.5909C28.15 24.5909 24.5909 28.15 24.5909 32.5C24.5909 36.85 28.15 40.4091 32.5 40.4091C36.85 40.4091 40.4091 36.85 40.4091 32.5C40.4091 28.15 36.85 24.5909 32.5 24.5909ZM32.5 27.2273C35.4303 27.2273 37.7727 29.5697 37.7727 32.5C37.7727 35.4303 35.4303 37.7727 32.5 37.7727C29.5697 37.7727 27.2273 35.4303 27.2273 32.5C27.2273 29.5697 29.5697 27.2273 32.5 27.2273Z" fill="#FF5F64"/>
</svg>
