<svg width="150" height="150" viewBox="0 0 150 150" fill="none" xmlns="http://www.w3.org/2000/svg">
<circle cx="75" cy="75" r="75" fill="#75D8AB"/>
<path d="M40 52.5V97.5H110V52.5H40ZM45 57.5H105V92.5H45V57.5ZM50 62.5V67.5H75V62.5H50ZM90 62.5V65.1575C87.1875 65.625 85 68.0075 85 70.9375C85 72.8225 86.045 74.55 87.735 75.39L95 79.0625C95.0065 79.1873 94.9867 79.3121 94.9418 79.4288C94.897 79.5455 94.8282 79.6514 94.7398 79.7398C94.6514 79.8282 94.5455 79.897 94.4288 79.9418C94.3121 79.9867 94.1873 80.0065 94.0625 80H90.9375C90.8127 80.0065 90.6879 79.9867 90.5712 79.9418C90.4545 79.897 90.3486 79.8282 90.2602 79.7398C90.1718 79.6514 90.103 79.5455 90.0582 79.4288C90.0133 79.3121 89.9935 79.1873 90 79.0625V77.5H85V79.0625C85 81.9925 87.1875 84.375 90 84.845V87.5H95V84.8425C97.8125 84.375 100 81.9925 100 79.0625C100 77.1775 98.955 75.46 97.265 74.61L90 70.9375C90 70.38 90.38 70 90.9375 70H94.0625C94.62 70 95 70.38 95 70.9375V72.5H100V70.9375C100 68.0075 97.8125 65.625 95 65.155V62.5H90ZM50 70V75H67.5V70H50ZM56.25 77.5C54.7375 77.5 53.6725 78.36 52.9675 79.14C52.2675 79.9225 51.7475 80.79 51.3275 81.72C50.4875 83.5825 50 85.595 50 87.5H55C55 86.7 55.39 84.96 55.9375 83.75C56.095 83.4 56.25 83.28 56.4075 83.0475C56.5925 83.3 56.7275 83.4675 56.9525 83.8275C57.315 84.415 57.715 85.1175 58.2025 85.7825C58.6925 86.445 59.2875 87.54 61.1725 87.5775C62.6575 87.6075 63.115 87.07 63.595 86.72C64.07 86.3675 64.405 86.035 64.765 85.7025C65.01 85.4775 65.205 85.3125 65.39 85.1575C65.46 85.255 65.7325 85.42 67.11 86.015C68.78 86.7475 71.31 87.5 75 87.5V82.5C71.925 82.5 70.3225 82 69.14 81.485C67.96 80.9675 67.06 80 65 80C63.495 80 63.115 80.585 62.655 80.9375C62.245 81.25 61.9625 81.5825 61.64 81.875C61.495 81.64 61.425 81.525 61.25 81.25C60.7907 80.4593 60.2402 79.7251 59.61 79.0625C58.885 78.33 57.745 77.5 56.25 77.5Z" fill="black"/>
</svg>
