<svg width="32" height="32" viewBox="0 0 32 32" fill="none" xmlns="http://www.w3.org/2000/svg">
<path d="M8.656 3C8.133 3 7.617 3.188 7.187 3.531L7.125 3.562L7.094 3.594L3.969 6.813L4 6.843C3.54147 7.25935 3.21659 7.80223 3.06638 8.40309C2.91616 9.00395 2.94735 9.63585 3.156 10.219C3.16 10.227 3.152 10.242 3.156 10.25C4.004 12.676 6.172 17.36 10.406 21.594C14.656 25.844 19.402 27.926 21.75 28.844H21.781C22.3694 29.0385 22.9982 29.0774 23.6061 28.9568C24.214 28.8362 24.7803 28.5604 25.25 28.156L28.406 25C29.234 24.172 29.234 22.734 28.406 21.906L24.344 17.844L24.312 17.781C23.484 16.953 22.016 16.953 21.187 17.781L19.187 19.781C17.6861 19.0599 16.3055 18.1114 15.094 16.969C13.457 15.406 12.621 13.609 12.313 12.906L14.313 10.906C15.153 10.066 15.168 8.668 14.281 7.844L14.312 7.812L14.219 7.719L10.219 3.594L10.188 3.563L10.125 3.531C9.70996 3.1921 9.1918 3.0048 8.656 3ZM8.656 5C8.73775 5.00475 8.81524 5.03801 8.875 5.094L12.875 9.187L12.969 9.281C12.961 9.273 13.027 9.379 12.906 9.5L10.406 12L9.937 12.438L10.157 13.062C10.157 13.062 11.305 16.137 13.719 18.438L13.938 18.625C16.261 20.746 19 21.906 19 21.906L19.625 22.188L22.594 19.218C22.766 19.047 22.734 19.047 22.906 19.218L27 23.314C27.172 23.485 27.172 23.423 27 23.594L23.937 26.657C23.477 27.052 22.988 27.134 22.407 26.939C20.141 26.048 15.738 24.114 11.812 20.189C7.855 16.231 5.789 11.743 5.032 9.564C4.879 9.157 4.988 8.556 5.344 8.251L5.406 8.188L8.438 5.095C8.49709 5.03907 8.57382 5.00548 8.655 5H8.656Z" fill="white"/>
</svg>
