<svg width="64" height="64" viewBox="0 0 64 64" fill="none" xmlns="http://www.w3.org/2000/svg">
<circle cx="32" cy="32" r="32" fill="white"/>
<path d="M48 22.0843C46.8018 22.6144 45.5307 22.9617 44.2293 23.1144C45.5994 22.2944 46.6248 21.0048 47.1147 19.4855C45.8261 20.2488 44.4172 20.7877 42.948 21.0794C42.048 20.1177 40.8792 19.4488 39.5938 19.1599C38.3084 18.871 36.9657 18.9753 35.7404 19.4593C34.5151 19.9433 33.4638 20.7846 32.7232 21.8738C31.9827 22.963 31.5871 24.2497 31.588 25.5666C31.588 26.0823 31.6453 26.5821 31.7613 27.0605C29.15 26.9321 26.5951 26.2551 24.263 25.0736C21.931 23.8922 19.8742 22.2329 18.2267 20.2038C17.6413 21.2053 17.3343 22.345 17.3373 23.5049C17.3373 25.7798 18.4933 27.7895 20.2587 28.9663C19.2159 28.9332 18.1963 28.6508 17.2853 28.1427V28.2267C17.2844 29.7422 17.8086 31.2112 18.7687 32.3842C19.7288 33.5572 21.0656 34.3616 22.552 34.6609C21.5854 34.9259 20.5708 34.9651 19.5867 34.7755C20.0059 36.0793 20.8221 37.2197 21.9212 38.0373C23.0203 38.8549 24.3475 39.309 25.7173 39.336C24.3555 40.4044 22.7963 41.1939 21.1289 41.6593C19.4614 42.1246 17.7186 42.2567 16 42.0481C19.0007 43.9782 22.4943 45.0031 26.0627 45C38.14 45 44.7453 34.9994 44.7453 26.3262C44.7453 26.0464 44.7347 25.7585 44.724 25.4773C46.0074 24.5485 47.1165 23.4002 48 22.0856V22.0843Z" fill="#FF5F64"/>
</svg>
