<svg width="64" height="64" viewBox="0 0 64 64" fill="none" xmlns="http://www.w3.org/2000/svg">
<circle cx="32" cy="32" r="32" fill="white"/>
<path d="M32 19C27.0752 19 22.7232 19.507 20.0673 19.8944C17.8704 20.2142 16.0985 21.8587 15.6944 24.0375C15.3531 25.8913 15 28.6031 15 32C15 35.3969 15.3531 38.11 15.6944 39.9625C16.0985 42.1413 17.8704 43.791 20.0673 44.1069C22.735 44.4917 27.1014 45 32 45C36.8986 45 41.2663 44.493 43.9327 44.1056C46.1296 43.791 47.9015 42.1413 48.3056 39.9625C48.6469 38.1035 49 35.3865 49 32C49 28.6135 48.6522 25.8965 48.3056 24.0375C47.9015 21.8587 46.1296 20.2142 43.9327 19.8931C41.2768 19.5083 36.9235 19 32 19ZM32 21.6C36.7508 21.6 40.9956 22.0823 43.5652 22.4528C44.0992 22.5287 44.5957 22.7696 44.9844 23.1415C45.373 23.5134 45.6341 23.9974 45.7308 24.525C46.0472 26.241 46.3846 28.7851 46.3846 32C46.3846 35.2097 46.0472 37.759 45.7308 39.475C45.6358 40.0033 45.3752 40.4883 44.9863 40.8605C44.5973 41.2326 44.0999 41.473 43.5652 41.5472C40.9838 41.9177 36.7195 42.4 32 42.4C27.2792 42.4 23.0096 41.9177 20.4348 41.5472C19.9005 41.4721 19.4036 41.2314 19.0148 40.8594C18.626 40.4873 18.3651 40.0029 18.2692 39.475C17.9528 37.759 17.6154 35.2201 17.6154 32C17.6154 28.776 17.9528 26.241 18.2692 24.525C18.3651 23.9971 18.626 23.5127 19.0148 23.1406C19.4036 22.7686 19.9005 22.5279 20.4348 22.4528C22.9992 22.0823 27.2492 21.6 32 21.6ZM28.0769 24.5653V39.436L30.0385 38.3388L39.1923 33.1388L41.1538 32L39.1923 30.8625L30.0385 25.6625L28.0769 24.5653ZM30.6923 29.0347L35.8825 32L30.6923 34.9653V29.0347Z" fill="#FF5F64"/>
</svg>
